<?xml version="1.0" encoding="UTF-8" standalone="no"?>
<svg
   viewBox="0 0 36 36"
   version="1.1"
   id="svg6"
   sodipodi:docname="8192.svg"
   xml:space="preserve"
   inkscape:version="1.2.2 (b0a8486541, 2022-12-01)"
   xmlns:inkscape="http://www.inkscape.org/namespaces/inkscape"
   xmlns:sodipodi="http://sodipodi.sourceforge.net/DTD/sodipodi-0.dtd"
   xmlns="http://www.w3.org/2000/svg"
   xmlns:svg="http://www.w3.org/2000/svg"><defs
     id="defs10" /><sodipodi:namedview
     id="namedview8"
     pagecolor="#505050"
     bordercolor="#eeeeee"
     borderopacity="1"
     inkscape:showpageshadow="0"
     inkscape:pageopacity="0"
     inkscape:pagecheckerboard="0"
     inkscape:deskcolor="#505050"
     showgrid="false"
     inkscape:zoom="1"
     inkscape:cx="12"
     inkscape:cy="18"
     inkscape:window-width="1920"
     inkscape:window-height="1027"
     inkscape:window-x="0"
     inkscape:window-y="24"
     inkscape:window-maximized="1"
     inkscape:current-layer="svg6"
     showguides="false"><sodipodi:guide
       position="0,0"
       orientation="36,0"
       id="guide347"
       inkscape:locked="false" /><sodipodi:guide
       position="4.5,0"
       orientation="36,0"
       id="guide349"
       inkscape:locked="false" /><sodipodi:guide
       position="9,0"
       orientation="36,0"
       id="guide351"
       inkscape:locked="false" /><sodipodi:guide
       position="13.5,0"
       orientation="36,0"
       id="guide353"
       inkscape:locked="false" /><sodipodi:guide
       position="18,0"
       orientation="36,0"
       id="guide355"
       inkscape:locked="false" /><sodipodi:guide
       position="22.5,0"
       orientation="36,0"
       id="guide357"
       inkscape:locked="false" /><sodipodi:guide
       position="27,0"
       orientation="36,0"
       id="guide359"
       inkscape:locked="false" /><sodipodi:guide
       position="31.5,0"
       orientation="36,0"
       id="guide361"
       inkscape:locked="false" /><sodipodi:guide
       position="36,0"
       orientation="36,0"
       id="guide363"
       inkscape:locked="false" /><sodipodi:guide
       position="0,0"
       orientation="0,36"
       id="guide365"
       inkscape:locked="false" /><sodipodi:guide
       position="0,18"
       orientation="0,36"
       id="guide367"
       inkscape:locked="false" /><sodipodi:guide
       position="0,36"
       orientation="0,36"
       id="guide369"
       inkscape:locked="false" /><inkscape:grid
       type="xygrid"
       id="grid511"
       empspacing="6" /></sodipodi:namedview><path
     fill="#3B88C3"
     d="M36 32c0 2.209-1.791 4-4 4H4c-2.209 0-4-1.791-4-4V4c0-2.209 1.791-4 4-4h28c2.209 0 4 1.791 4 4v28z"
     id="path2" /><path
     fill="#ffffff"
     d="m 0.6715,20.1515 c 0,-1.24 0.682,-2.1545 1.6585,-2.682 -0.7285,-0.527 -1.178,-1.24 -1.178,-2.217 0,-1.814 1.504,-2.9765 3.3485,-2.9765 1.798,0 3.3645,1.147 3.3645,2.9765 0,0.868 -0.4345,1.7365 -1.1945,2.217 1.0545,0.5275 1.659,1.4885 1.659,2.682 0,2.155 -1.752,3.5345 -3.8295,3.5345 -2.1385,0 -3.8285,-1.4575 -3.8285,-3.5345 z M 3.09,19.996 c 0,0.791 0.465,1.551 1.4105,1.551 0.884,0 1.411,-0.76 1.411,-1.551 0,-0.9765 -0.558,-1.55 -1.411,-1.55 -0.8985,0 -1.4105,0.682 -1.4105,1.55 z m 0.2945,-4.4955 c 0,0.6975 0.4035,1.178 1.116,1.178 0.713,0 1.132,-0.4805 1.132,-1.178 0,-0.6665 -0.4035,-1.1785 -1.132,-1.1785 -0.7285,0 -1.116,0.512 -1.116,1.1785 z"
     id="path4"
     style="stroke-width:1" /><path
     fill="#ffffff"
     d="m 12.730999,14.5875 h -0.9145 c -0.744,0 -1.054,-0.5425 -1.054,-1.0695 0,-0.5425 0.3875,-1.07 1.054,-1.07 H 14.0175 c 0.666999,0 1.039,0.4805 1.039,1.1005 V 22.37 c 0,0.7755 -0.496,1.209 -1.163001,1.209 -0.666499,0 -1.1625,-0.4335 -1.1625,-1.209 z"
     id="path241"
     style="stroke-width:1" /><path
     fill="#ffffff"
     d="m 26.392,16.1205 c 0,2.341 -2.3715,5.6275 -3.9375,7.085 -0.124,0.124 -0.31,0.248 -0.496,0.372 -0.1705,0.1085 -0.341,0.1085 -0.465,0.1085 -0.434,0 -1.101,-0.574 -1.101,-1.132 0,-0.217 0.1395,-0.403 0.3255,-0.6355 0.62,-0.76 1.628,-1.752 2.1395,-2.4805 l -0.031,-0.031 c -0.279,0.124 -0.6355,0.186 -0.9765,0.186 -1.8605,0 -3.24,-1.6435 -3.24,-3.4725 0,-2.0155 1.5965,-3.8445 3.891,-3.8445 2.3875,0 3.891,1.7825 3.891,3.8445 z m -2.4185,0 c 0,-0.868 -0.543,-1.6125 -1.473,-1.6125 -0.8835,0 -1.4725,0.713 -1.4725,1.6125 0,0.822 0.496,1.6125 1.4725,1.6125 0.8845,0 1.473,-0.698 1.473,-1.6125 z"
     id="path269"
     style="stroke-width:1" /><path
     fill="#ffffff"
     d="m 34.043,21.4535 c 0.6825,0 1.21,0.31 1.21,1.023 0,0.7135 -0.5275,1.0235 -1.1165,1.0235 h -5.178 c -0.682,0 -1.209,-0.31 -1.209,-1.0235 0,-0.325 0.2015,-0.6045 0.3565,-0.7905 1.2865,-1.5345 2.682,-2.93 3.8605,-4.6355 0.279,-0.403 0.5425,-0.884 0.5425,-1.442 0,-0.6355 -0.4805,-1.1935 -1.1165,-1.1935 -1.783,0 -0.93,2.5115 -2.4185,2.5115 -0.744,0 -1.132,-0.527 -1.132,-1.132 0,-1.953 1.7365,-3.519 3.6435,-3.519 1.9075,0 3.4415,1.256 3.4415,3.2245 0,2.1545 -2.4025,4.2945 -3.7205,5.953 h 2.8365 z"
     id="path255"
     style="stroke-width:1" /></svg>
