<?xml version="1.0" encoding="UTF-8" standalone="no"?>
<svg
   sodipodi:docname="512.svg"
   id="svg6"
   version="1.1"
   viewBox="0 0 36 36"
   inkscape:version="1.2.2 (b0a8486541, 2022-12-01)"
   xml:space="preserve"
   xmlns:inkscape="http://www.inkscape.org/namespaces/inkscape"
   xmlns:sodipodi="http://sodipodi.sourceforge.net/DTD/sodipodi-0.dtd"
   xmlns="http://www.w3.org/2000/svg"
   xmlns:svg="http://www.w3.org/2000/svg"><defs
     id="defs10" /><sodipodi:namedview
     id="namedview8"
     pagecolor="#505050"
     bordercolor="#eeeeee"
     borderopacity="1"
     inkscape:showpageshadow="0"
     inkscape:pageopacity="0"
     inkscape:pagecheckerboard="0"
     inkscape:deskcolor="#505050"
     showgrid="false"
     inkscape:zoom="1"
     inkscape:cx="10"
     inkscape:cy="15"
     inkscape:window-width="1920"
     inkscape:window-height="1027"
     inkscape:window-x="0"
     inkscape:window-y="24"
     inkscape:window-maximized="1"
     inkscape:current-layer="svg6"
     showguides="false"><inkscape:grid
       type="xygrid"
       id="grid318"
       empspacing="6" /><sodipodi:guide
       position="0,0"
       orientation="36,0"
       id="guide330"
       inkscape:locked="false" /><sodipodi:guide
       position="6,0"
       orientation="36,0"
       id="guide332"
       inkscape:locked="false" /><sodipodi:guide
       position="12,0"
       orientation="36,0"
       id="guide334"
       inkscape:locked="false" /><sodipodi:guide
       position="18,0"
       orientation="36,0"
       id="guide336"
       inkscape:locked="false" /><sodipodi:guide
       position="24,0"
       orientation="36,0"
       id="guide338"
       inkscape:locked="false" /><sodipodi:guide
       position="30,0"
       orientation="36,0"
       id="guide340"
       inkscape:locked="false" /><sodipodi:guide
       position="36,0"
       orientation="36,0"
       id="guide342"
       inkscape:locked="false" /><sodipodi:guide
       position="0,0"
       orientation="0,36"
       id="guide344"
       inkscape:locked="false" /><sodipodi:guide
       position="0,18"
       orientation="0,36"
       id="guide346"
       inkscape:locked="false" /><sodipodi:guide
       position="0,36"
       orientation="0,36"
       id="guide348"
       inkscape:locked="false" /></sodipodi:namedview><path
     fill="#3B88C3"
     d="M36 32c0 2.209-1.791 4-4 4H4c-2.209 0-4-1.791-4-4V4c0-2.209 1.791-4 4-4h28c2.209 0 4 1.791 4 4v28z"
     id="path2" /><path
     fill="#ffffff"
     d="M 4.926,15.659333 C 5.422,15.556 5.96,15.452667 6.476667,15.452667 c 2.501333,0 4.278666,1.984666 4.278666,4.402666 0,3.452 -1.900666,5.726 -5.477333,5.726 -1.467333,0 -4.547333,-0.951333 -4.547333,-2.77 0,-0.764666 0.640666,-1.404666 1.405333,-1.404666 0.826667,0 1.819333,1.322666 3.204,1.322666 1.446667,0 2.192,-1.406 2.192,-2.708 C 7.532,18.781333 6.828667,17.934 5.547333,17.934 4.348,17.934 4.162,18.616 3.108,18.616 c -0.806,0 -1.219333,-0.62 -1.219333,-0.971333 0,-0.268667 0.04133,-0.475334 0.062,-0.702667 l 0.516,-4.362667 c 0.227333,-1.612 0.62,-1.963333 1.612,-1.963333 H 9.06 c 0.952,0 1.509333,0.558 1.509333,1.302 0,1.426667 -1.074,1.550667 -1.446666,1.550667 h -3.886 z"
     id="path196"
     style="stroke-width:1" /><path
     fill="#ffffff"
     d="m 16.974667,13.45 h -1.219334 c -0.992,0 -1.405333,-0.723333 -1.405333,-1.426 0,-0.723333 0.516667,-1.426667 1.405333,-1.426667 H 18.69 c 0.889333,0 1.385333,0.640667 1.385333,1.467334 v 11.762 c 0,1.034 -0.661333,1.612 -1.550666,1.612 -0.888667,0 -1.55,-0.578 -1.55,-1.612 z"
     id="path4"
     style="stroke-width:1" /><path
     fill="#ffffff"
     d="m 33.390667,22.604667 c 0.91,0 1.613333,0.413333 1.613333,1.364 0,0.951333 -0.703333,1.364666 -1.488667,1.364666 h -6.904 c -0.909333,0 -1.612,-0.413333 -1.612,-1.364666 0,-0.433334 0.268667,-0.806 0.475334,-1.054 1.715333,-2.046 3.576,-3.906667 5.147333,-6.180667 0.372,-0.537333 0.723333,-1.178667 0.723333,-1.922667 0,-0.847333 -0.640666,-1.591333 -1.488666,-1.591333 -2.377334,0 -1.24,3.348667 -3.224667,3.348667 -0.992,0 -1.509333,-0.702667 -1.509333,-1.509334 0,-2.604 2.315333,-4.692 4.858,-4.692 2.543333,0 4.588666,1.674667 4.588666,4.299334 0,2.872666 -3.203333,5.726 -4.960666,7.937333 h 3.782 z"
     id="path182"
     style="stroke-width:1" /></svg>
