<?xml version="1.0" encoding="UTF-8" standalone="no"?>
<svg
   viewBox="0 0 36 36"
   version="1.1"
   id="svg6"
   sodipodi:docname="32768.svg"
   xml:space="preserve"
   inkscape:version="1.2.2 (b0a8486541, 2022-12-01)"
   xmlns:inkscape="http://www.inkscape.org/namespaces/inkscape"
   xmlns:sodipodi="http://sodipodi.sourceforge.net/DTD/sodipodi-0.dtd"
   xmlns="http://www.w3.org/2000/svg"
   xmlns:svg="http://www.w3.org/2000/svg"><defs
     id="defs10" /><sodipodi:namedview
     id="namedview8"
     pagecolor="#505050"
     bordercolor="#eeeeee"
     borderopacity="1"
     inkscape:showpageshadow="0"
     inkscape:pageopacity="0"
     inkscape:pagecheckerboard="0"
     inkscape:deskcolor="#505050"
     showgrid="false"
     inkscape:zoom="1"
     inkscape:cx="10"
     inkscape:cy="18"
     inkscape:window-width="1920"
     inkscape:window-height="1027"
     inkscape:window-x="0"
     inkscape:window-y="24"
     inkscape:window-maximized="1"
     inkscape:current-layer="svg6"
     showguides="false"><sodipodi:guide
       position="0,0"
       orientation="36,0"
       id="guide363"
       inkscape:locked="false" /><sodipodi:guide
       position="3.6,0"
       orientation="36,0"
       id="guide365"
       inkscape:locked="false" /><sodipodi:guide
       position="7.2,0"
       orientation="36,0"
       id="guide367"
       inkscape:locked="false" /><sodipodi:guide
       position="10.8,0"
       orientation="36,0"
       id="guide369"
       inkscape:locked="false" /><sodipodi:guide
       position="14.4,0"
       orientation="36,0"
       id="guide371"
       inkscape:locked="false" /><sodipodi:guide
       position="18,0"
       orientation="36,0"
       id="guide373"
       inkscape:locked="false" /><sodipodi:guide
       position="21.6,0"
       orientation="36,0"
       id="guide375"
       inkscape:locked="false" /><sodipodi:guide
       position="25.2,0"
       orientation="36,0"
       id="guide377"
       inkscape:locked="false" /><sodipodi:guide
       position="28.8,0"
       orientation="36,0"
       id="guide379"
       inkscape:locked="false" /><sodipodi:guide
       position="32.4,0"
       orientation="36,0"
       id="guide381"
       inkscape:locked="false" /><sodipodi:guide
       position="36,0"
       orientation="36,0"
       id="guide383"
       inkscape:locked="false" /><sodipodi:guide
       position="0,0"
       orientation="0,36"
       id="guide385"
       inkscape:locked="false" /><sodipodi:guide
       position="0,18"
       orientation="0,36"
       id="guide387"
       inkscape:locked="false" /><sodipodi:guide
       position="0,36"
       orientation="0,36"
       id="guide389"
       inkscape:locked="false" /><sodipodi:guide
       position="9,0"
       orientation="36,0"
       id="guide451"
       inkscape:locked="false" /><sodipodi:guide
       position="27,0"
       orientation="36,0"
       id="guide453"
       inkscape:locked="false" /></sodipodi:namedview><path
     fill="#3B88C3"
     d="M36 32c0 2.209-1.791 4-4 4H4c-2.209 0-4-1.791-4-4V4c0-2.209 1.791-4 4-4h28c2.209 0 4 1.791 4 4v28z"
     id="path2" /><path
     fill="#ffffff"
     d="m 6.0436002,15.6904 c 0,0.7816 -0.3344,1.4636 -1.0168,1.8976 0.8928,0.4096 1.5128,1.2404 1.5128,2.22 0,1.4884 -1.364,2.7412 -3.1252,2.7412 -1.8356,0 -2.97639996,-1.352 -2.97639996,-2.3316 0,-0.4836 0.5088,-0.8308 0.95519996,-0.8308 0.8432,0 0.6448,1.4512 2.0464,1.4512 0.6448,0 1.166,-0.496 1.166,-1.1536 0,-1.7364 -2.1088,-0.4588 -2.1088,-1.9224 0,-1.302 1.7608,-0.4216 1.7608,-1.7984 0,-0.4716 -0.3344,-0.8312 -0.8928,-0.8312 -1.178,0 -1.0168,1.2152 -1.8604,1.2152 -0.50839996,0 -0.80599996,-0.4588 -0.80599996,-0.9176 0,-0.9672 1.32679996,-2.0092 2.70359996,-2.0092 1.7864,0 2.6416,1.3024 2.6416,2.2696 z"
     id="path201"
     style="stroke-width:1" /><path
     fill="#ffffff"
     d="m 12.8344,20.7628 c 0.546,0 0.968,0.248 0.968,0.8184 0,0.5708 -0.422,0.8188 -0.8932,0.8188 H 8.7668001 c -0.5456,0 -0.9672,-0.248 -0.9672,-0.8188 0,-0.26 0.1612,-0.4836 0.2852,-0.6324 1.0292,-1.2276 2.1455999,-2.344 3.0883999,-3.7084 0.2232,-0.3224 0.434,-0.7072 0.434,-1.1536 0,-0.5084 -0.3844,-0.9548 -0.8932,-0.9548 -1.4263999,0 -0.7439999,2.0092 -1.9347999,2.0092 -0.5952,0 -0.9056,-0.4216 -0.9056,-0.9056 0,-1.5624 1.3892,-2.8152 2.9147999,-2.8152 1.526,0 2.7532,1.0048 2.7532,2.5796 0,1.7236 -1.922,3.4356 -2.9764,4.7624 h 2.2692 z"
     id="path187"
     style="stroke-width:1" /><path
     fill="#ffffff"
     d="M 18.9428,15.2812 H 15.768 c -0.6696,0 -0.9176,-0.434 -0.9176,-0.8556 0,-0.434 0.2356,-0.856 0.9176,-0.856 h 4.4896 c 0.6328,0 0.8932,0.5704 0.8932,0.8928 0,0.248 -0.1364,0.5084 -0.2852,0.8184 l -3.076,6.2508 c -0.3472,0.6944 -0.4836,0.942 -1.0416,0.942 -0.682,0 -1.0296,-0.5208 -1.0296,-0.8804 0,-0.1488 0.0372,-0.26 0.1244,-0.434 z"
     id="path4"
     style="stroke-width:1" /><path
     fill="#ffffff"
     d="m 22.0872,19.4732 c 0,-1.8728 1.8976,-4.502 3.15,-5.668 0.0992,-0.0992 0.248,-0.1984 0.3968,-0.2976 0.1364,-0.0868 0.2732,-0.0868 0.3724,-0.0868 0.3468,0 0.8804,0.4588 0.8804,0.9056 0,0.1736 -0.1116,0.3224 -0.2604,0.5084 -0.496,0.6076 -1.302,1.4012 -1.7116,1.9844 l 0.0248,0.0248 c 0.2232,-0.0992 0.5084,-0.1488 0.7816,-0.1488 1.4884,0 2.5916,1.3148 2.5916,2.778 0,1.612 -1.2776,3.076 -3.1132,3.076 -1.9092,-4e-4 -3.1124,-1.4264 -3.1124,-3.076 z m 1.9348,0 c 0,0.6944 0.434,1.29 1.178,1.29 0.7072,0 1.1784,-0.5708 1.1784,-1.29 0,-0.6572 -0.3968,-1.29 -1.1784,-1.29 -0.7068,0 -1.178,0.5584 -1.178,1.29 z"
     id="path215"
     style="stroke-width:1" /><path
     fill="#ffffff"
     d="m 29.337201,19.7212 c 0,-0.992 0.5456,-1.7236 1.3268,-2.1456 -0.5828,-0.4216 -0.9424,-0.992 -0.9424,-1.7736 0,-1.4512 1.2032,-2.3812 2.6788,-2.3812 1.4384,0 2.6916,0.9176 2.6916,2.3812 0,0.6944 -0.3476,1.3892 -0.9556,1.7736 0.8436,0.422 1.3272,1.1908 1.3272,2.1456 0,1.724 -1.4016,2.8276 -3.0636,2.8276 -1.7108,0 -3.0628,-1.166 -3.0628,-2.8276 z m 1.9348,-0.1244 c 0,0.6328 0.372,1.2408 1.1284,1.2408 0.7072,0 1.1288,-0.608 1.1288,-1.2408 0,-0.7812 -0.4464,-1.24 -1.1288,-1.24 -0.7188,0 -1.1284,0.5456 -1.1284,1.24 z m 0.2356,-3.5964 c 0,0.558 0.3228,0.9424 0.8928,0.9424 0.5704,0 0.9056,-0.3844 0.9056,-0.9424 0,-0.5332 -0.3228,-0.9428 -0.9056,-0.9428 -0.5828,0 -0.8928,0.4096 -0.8928,0.9428 z"
     id="path229"
     style="stroke-width:1" /></svg>
