<?xml version="1.0" encoding="UTF-8" standalone="no"?>
<svg
   viewBox="0 0 36 36"
   version="1.1"
   id="svg6"
   sodipodi:docname="256.svg"
   xml:space="preserve"
   inkscape:version="1.2.2 (b0a8486541, 2022-12-01)"
   xmlns:inkscape="http://www.inkscape.org/namespaces/inkscape"
   xmlns:sodipodi="http://sodipodi.sourceforge.net/DTD/sodipodi-0.dtd"
   xmlns="http://www.w3.org/2000/svg"
   xmlns:svg="http://www.w3.org/2000/svg"><defs
     id="defs10" /><sodipodi:namedview
     id="namedview8"
     pagecolor="#505050"
     bordercolor="#eeeeee"
     borderopacity="1"
     inkscape:showpageshadow="0"
     inkscape:pageopacity="0"
     inkscape:pagecheckerboard="0"
     inkscape:deskcolor="#505050"
     showgrid="false"
     showguides="false"
     inkscape:zoom="1"
     inkscape:cx="12"
     inkscape:cy="18"
     inkscape:window-width="1920"
     inkscape:window-height="1027"
     inkscape:window-x="0"
     inkscape:window-y="24"
     inkscape:window-maximized="1"
     inkscape:current-layer="svg6"><inkscape:grid
       type="xygrid"
       id="grid324"
       empspacing="6" /><sodipodi:guide
       position="0,0"
       orientation="36,0"
       id="guide391"
       inkscape:locked="false" /><sodipodi:guide
       position="6,0"
       orientation="36,0"
       id="guide393"
       inkscape:locked="false" /><sodipodi:guide
       position="12,0"
       orientation="36,0"
       id="guide395"
       inkscape:locked="false" /><sodipodi:guide
       position="18,0"
       orientation="36,0"
       id="guide397"
       inkscape:locked="false" /><sodipodi:guide
       position="24,0"
       orientation="36,0"
       id="guide399"
       inkscape:locked="false" /><sodipodi:guide
       position="30,0"
       orientation="36,0"
       id="guide401"
       inkscape:locked="false" /><sodipodi:guide
       position="36,0"
       orientation="36,0"
       id="guide403"
       inkscape:locked="false" /><sodipodi:guide
       position="0,0"
       orientation="0,36"
       id="guide405"
       inkscape:locked="false" /><sodipodi:guide
       position="0,18"
       orientation="0,36"
       id="guide407"
       inkscape:locked="false" /><sodipodi:guide
       position="0,36"
       orientation="0,36"
       id="guide409"
       inkscape:locked="false" /></sodipodi:namedview><path
     fill="#3B88C3"
     d="M36 32c0 2.209-1.791 4-4 4H4c-2.209 0-4-1.791-4-4V4c0-2.209 1.791-4 4-4h28c2.209 0 4 1.791 4 4v28z"
     id="path2" /><path
     fill="#ffffff"
     d="m 9.390667,22.604667 c 0.91,0 1.613333,0.413333 1.613333,1.364 0,0.951333 -0.703333,1.364666 -1.488667,1.364666 h -6.904 c -0.909333,0 -1.612,-0.413333 -1.612,-1.364666 0,-0.433334 0.268667,-0.806 0.475334,-1.054 C 3.19,20.868667 5.050667,19.008 6.622,16.734 6.994,16.196667 7.345333,15.555333 7.345333,14.811333 7.345333,13.964 6.704667,13.22 5.856667,13.22 c -2.377334,0 -1.24,3.348667 -3.224667,3.348667 -0.992,0 -1.509333,-0.702667 -1.509333,-1.509334 0,-2.604 2.315333,-4.692 4.858,-4.692 2.543333,0 4.588666,1.674667 4.588666,4.299334 0,2.872666 -3.203333,5.726 -4.960666,7.937333 h 3.782 z"
     id="path241"
     style="stroke-width:1" /><path
     fill="#ffffff"
     d="m 16.926,15.659333 c 0.496,-0.103333 1.034,-0.206666 1.550667,-0.206666 2.501333,0 4.278666,1.984666 4.278666,4.402666 0,3.452 -1.900666,5.726 -5.477333,5.726 -1.467333,0 -4.547333,-0.951333 -4.547333,-2.77 0,-0.764666 0.640666,-1.404666 1.405333,-1.404666 0.826667,0 1.819333,1.322666 3.204,1.322666 1.446667,0 2.192,-1.406 2.192,-2.708 0,-1.24 -0.703333,-2.087333 -1.984667,-2.087333 -1.199333,0 -1.385333,0.682 -2.439333,0.682 -0.806,0 -1.219333,-0.62 -1.219333,-0.971333 0,-0.268667 0.04133,-0.475334 0.062,-0.702667 l 0.516,-4.362667 c 0.227333,-1.612 0.62,-1.963333 1.612,-1.963333 H 21.06 c 0.952,0 1.509333,0.558 1.509333,1.302 0,1.426667 -1.074,1.550667 -1.446666,1.550667 h -3.886 z"
     id="path4"
     style="stroke-width:1" /><path
     fill="#ffffff"
     d="m 24.812668,20.455333 c 0,-3.121333 3.162666,-7.503333 5.25,-9.446666 0.165333,-0.165334 0.413333,-0.330667 0.661333,-0.496 C 30.951334,10.368 31.179334,10.368 31.344668,10.368 c 0.578,0 1.467333,0.764667 1.467333,1.509333 0,0.289334 -0.186,0.537334 -0.434,0.847334 -0.826667,1.012666 -2.17,2.335333 -2.852667,3.307333 l 0.04133,0.04133 c 0.372,-0.165333 0.847333,-0.248 1.302666,-0.248 2.480667,0 4.319334,2.191334 4.319334,4.63 4e-6,2.68667 -2.12933,5.12667 -5.188663,5.12667 -3.182,-6.67e-4 -5.187333,-2.377333 -5.187333,-5.126667 z m 3.224666,0 c 0,1.157334 0.723334,2.15 1.963334,2.15 1.178666,0 1.964,-0.951333 1.964,-2.15 0,-1.095333 -0.661334,-2.15 -1.964,-2.15 -1.178,0 -1.963334,0.930667 -1.963334,2.15 z"
     id="path255"
     style="stroke-width:1" /></svg>
