<?xml version="1.0" encoding="UTF-8" standalone="no"?>
<svg
   viewBox="0 0 36 36"
   version="1.1"
   id="svg6"
   sodipodi:docname="1024.svg"
   xml:space="preserve"
   inkscape:version="1.2.2 (b0a8486541, 2022-12-01)"
   xmlns:inkscape="http://www.inkscape.org/namespaces/inkscape"
   xmlns:sodipodi="http://sodipodi.sourceforge.net/DTD/sodipodi-0.dtd"
   xmlns="http://www.w3.org/2000/svg"
   xmlns:svg="http://www.w3.org/2000/svg"><defs
     id="defs10" /><sodipodi:namedview
     id="namedview8"
     pagecolor="#505050"
     bordercolor="#eeeeee"
     borderopacity="1"
     inkscape:showpageshadow="0"
     inkscape:pageopacity="0"
     inkscape:pagecheckerboard="0"
     inkscape:deskcolor="#505050"
     showgrid="false"
     inkscape:zoom="1"
     inkscape:cx="20"
     inkscape:cy="10"
     inkscape:window-width="1920"
     inkscape:window-height="1027"
     inkscape:window-x="0"
     inkscape:window-y="24"
     inkscape:window-maximized="1"
     inkscape:current-layer="svg6"
     showguides="false"><sodipodi:guide
       position="0,0"
       orientation="36,0"
       id="guide347"
       inkscape:locked="false" /><sodipodi:guide
       position="4.5,0"
       orientation="36,0"
       id="guide349"
       inkscape:locked="false" /><sodipodi:guide
       position="9,0"
       orientation="36,0"
       id="guide351"
       inkscape:locked="false" /><sodipodi:guide
       position="13.5,0"
       orientation="36,0"
       id="guide353"
       inkscape:locked="false" /><sodipodi:guide
       position="18,0"
       orientation="36,0"
       id="guide355"
       inkscape:locked="false" /><sodipodi:guide
       position="22.5,0"
       orientation="36,0"
       id="guide357"
       inkscape:locked="false" /><sodipodi:guide
       position="27,0"
       orientation="36,0"
       id="guide359"
       inkscape:locked="false" /><sodipodi:guide
       position="31.5,0"
       orientation="36,0"
       id="guide361"
       inkscape:locked="false" /><sodipodi:guide
       position="36,0"
       orientation="36,0"
       id="guide363"
       inkscape:locked="false" /><sodipodi:guide
       position="0,0"
       orientation="0,36"
       id="guide365"
       inkscape:locked="false" /><sodipodi:guide
       position="0,18"
       orientation="0,36"
       id="guide367"
       inkscape:locked="false" /><sodipodi:guide
       position="0,36"
       orientation="0,36"
       id="guide369"
       inkscape:locked="false" /></sodipodi:namedview><path
     fill="#3B88C3"
     d="M36 32c0 2.209-1.791 4-4 4H4c-2.209 0-4-1.791-4-4V4c0-2.209 1.791-4 4-4h28c2.209 0 4 1.791 4 4v28z"
     id="path2" /><path
     fill="#ffffff"
     d="M 3.731,14.587501 H 2.8165 c -0.744,0 -1.054,-0.542501 -1.054,-1.069501 0,-0.5425 0.3875,-1.07 1.054,-1.07 h 2.201 c 0.667,0 1.039,0.4805 1.039,1.1005 V 22.37 c 0,0.7755 -0.496,1.209 -1.163,1.209 -0.6665,0 -1.1625,-0.4335 -1.1625,-1.209 z"
     id="path4"
     style="stroke-width:1" /><path
     fill="#ffffff"
     d="m 9.39175,17.78487 c 0,-2.527001 0.977,-5.705001 4.108,-5.705001 3.132,0 4.1085,3.178 4.1085,5.705001 0,2.526999 -0.9765,5.704999 -4.1085,5.704999 -3.131,0 -4.108,-3.178 -4.108,-5.704999 z m 5.798,0 c 0,-1.178001 -0.1085,-3.5965 -1.6895,-3.5965 -1.581,0 -1.6895,2.418499 -1.6895,3.5965 0,1.100499 0.1085,3.5965 1.6895,3.5965 1.581,0 1.6895,-2.496001 1.6895,-3.5965 z"
     id="path241"
     style="stroke-width:1" /><path
     fill="#ffffff"
     d="m 25.04175,21.257369 c 0.6825,0 1.21,0.31 1.21,1.023 0,0.713501 -0.5275,1.0235 -1.1165,1.0235 h -5.178 c -0.682,0 -1.209,-0.309999 -1.209,-1.0235 0,-0.325 0.2015,-0.604499 0.3565,-0.7905 1.2865,-1.534499 2.682,-2.93 3.8605,-4.6355 0.279,-0.402999 0.5425,-0.883999 0.5425,-1.441999 0,-0.635501 -0.4805,-1.193501 -1.1165,-1.193501 -1.783,0 -0.93,2.511501 -2.4185,2.511501 -0.744,0 -1.132,-0.527001 -1.132,-1.132001 0,-1.953 1.7365,-3.518999 3.6435,-3.518999 1.9075,0 3.4415,1.255999 3.4415,3.224499 0,2.1545 -2.4025,4.2945 -3.7205,5.953 h 2.8365 z"
     id="path255"
     style="stroke-width:1" /><path
     fill="#ffffff"
     d="m 27.8845,20.869869 c -0.7595,0 -1.085,-0.511 -1.085,-0.914499 0,-0.341001 0.124,-0.527501 0.217,-0.682 l 3.473,-6.294501 c 0.341,-0.62 0.775,-0.899 1.581,-0.899 0.8995,0 1.783,0.5735 1.783,1.984501 v 4.7595 h 0.2635 c 0.6045,0 1.085,0.403499 1.085,1.023499 0,0.620001 -0.4805,1.023001 -1.085,1.023001 h -0.2635 v 1.317999 c 0,0.822 -0.3255,1.209 -1.116,1.209 -0.7905,0 -1.1165,-0.387 -1.1165,-1.209 V 20.87037 h -3.7365 z m 3.7365,-6.3715 H 31.59 l -2.093001,4.325 H 31.621 Z"
     id="path269"
     style="stroke-width:1" /></svg>
