<?xml version="1.0" encoding="UTF-8" standalone="no"?>
<svg
   viewBox="0 0 36 36"
   version="1.1"
   id="svg6"
   sodipodi:docname="32.svg"
   xml:space="preserve"
   inkscape:version="1.2.2 (b0a8486541, 2022-12-01)"
   xmlns:inkscape="http://www.inkscape.org/namespaces/inkscape"
   xmlns:sodipodi="http://sodipodi.sourceforge.net/DTD/sodipodi-0.dtd"
   xmlns="http://www.w3.org/2000/svg"
   xmlns:svg="http://www.w3.org/2000/svg"><defs
     id="defs10" /><sodipodi:namedview
     id="namedview8"
     pagecolor="#505050"
     bordercolor="#eeeeee"
     borderopacity="1"
     inkscape:showpageshadow="0"
     inkscape:pageopacity="0"
     inkscape:pagecheckerboard="0"
     inkscape:deskcolor="#505050"
     showgrid="false"
     inkscape:zoom="11.313708"
     inkscape:cx="14.318912"
     inkscape:cy="18.296388"
     inkscape:window-width="1920"
     inkscape:window-height="1027"
     inkscape:window-x="0"
     inkscape:window-y="24"
     inkscape:window-maximized="1"
     inkscape:current-layer="svg6"
     showguides="true"><inkscape:grid
       type="xygrid"
       id="grid347"
       empspacing="6" /><sodipodi:guide
       position="0,0"
       orientation="36,0"
       id="guide261"
       inkscape:locked="false" /><sodipodi:guide
       position="9,0"
       orientation="36,0"
       id="guide263"
       inkscape:locked="false" /><sodipodi:guide
       position="18,0"
       orientation="36,0"
       id="guide265"
       inkscape:locked="false" /><sodipodi:guide
       position="27,0"
       orientation="36,0"
       id="guide267"
       inkscape:locked="false" /><sodipodi:guide
       position="36,0"
       orientation="36,0"
       id="guide269"
       inkscape:locked="false" /><sodipodi:guide
       position="0,0"
       orientation="0,36"
       id="guide271"
       inkscape:locked="false" /><sodipodi:guide
       position="0,18"
       orientation="0,36"
       id="guide273"
       inkscape:locked="false" /><sodipodi:guide
       position="0,36"
       orientation="0,36"
       id="guide275"
       inkscape:locked="false" /><sodipodi:guide
       position="0,32.4"
       orientation="0,36"
       id="guide316"
       inkscape:locked="false" /><sodipodi:guide
       position="0,3.6"
       orientation="0,36"
       id="guide318"
       inkscape:locked="false" /><sodipodi:guide
       position="3.6,0"
       orientation="36,0"
       id="guide320"
       inkscape:locked="false" /><sodipodi:guide
       position="32.4,0"
       orientation="36,0"
       id="guide322"
       inkscape:locked="false" /></sodipodi:namedview><path
     fill="#3B88C3"
     d="M36 32c0 2.209-1.791 4-4 4H4c-2.209 0-4-1.791-4-4V4c0-2.209 1.791-4 4-4h28c2.209 0 4 1.791 4 4v28z"
     id="path2" /><path
     fill="#ffffff"
     d="m 15.6872,13.3808 c 0,1.5632 -0.6688,2.9272 -2.0336,3.7952 1.7856,0.8192 3.0256,2.4808 3.0256,4.44 0,2.9768 -2.728,5.4824 -6.2504,5.4824 -3.6712,0 -5.9528,-2.704 -5.9528,-4.6632 0,-0.9672 1.0176,-1.6616 1.9104,-1.6616 1.6864,0 1.2896,2.9024 4.0928,2.9024 1.2896,0 2.332,-0.992 2.332,-2.3072 0,-3.4728 -4.2176,-0.9176 -4.2176,-3.8448 0,-2.604 3.5216,-0.8432 3.5216,-3.5968 0,-0.9432 -0.6688,-1.6624 -1.7856,-1.6624 -2.356,0 -2.0336,2.4304 -3.7208,2.4304 -1.0168,0 -1.612,-0.9176 -1.612,-1.8352 0,-1.9344 2.6536,-4.0184 5.4072,-4.0184 3.5728,0 5.2832,2.6048 5.2832,4.5392 z"
     id="path4"
     style="stroke-width:1" /><path
     fill="#ffffff"
     d="m 29.2688,23.5256 c 1.092,0 1.936,0.496 1.936,1.6368 0,1.1416 -0.844,1.6376 -1.7864,1.6376 h -8.2848 c -1.0912,0 -1.9344,-0.496 -1.9344,-1.6376 0,-0.52 0.3224,-0.9672 0.5704,-1.2648 2.0584,-2.4552 4.2912,-4.688 6.1768,-7.4168 0.4464,-0.6448 0.868,-1.4144 0.868,-2.3072 0,-1.0168 -0.7688,-1.9096 -1.7864,-1.9096 -2.8528,0 -1.488,4.0184 -3.8696,4.0184 -1.1904,0 -1.8112,-0.8432 -1.8112,-1.8112 0,-3.1248 2.7784,-5.6304 5.8296,-5.6304 3.052,0 5.5064,2.0096 5.5064,5.1592 0,3.4472 -3.844,6.8712 -5.9528,9.5248 h 4.5384 z"
     id="path187"
     style="stroke-width:1" /></svg>
