<?xml version="1.0" encoding="UTF-8" standalone="no"?>
<svg
   viewBox="0 0 36 36"
   version="1.1"
   id="svg6"
   sodipodi:docname="128.svg"
   xml:space="preserve"
   inkscape:version="1.2.2 (b0a8486541, 2022-12-01)"
   xmlns:inkscape="http://www.inkscape.org/namespaces/inkscape"
   xmlns:sodipodi="http://sodipodi.sourceforge.net/DTD/sodipodi-0.dtd"
   xmlns="http://www.w3.org/2000/svg"
   xmlns:svg="http://www.w3.org/2000/svg"><defs
     id="defs10" /><sodipodi:namedview
     id="namedview8"
     pagecolor="#505050"
     bordercolor="#eeeeee"
     borderopacity="1"
     inkscape:showpageshadow="0"
     inkscape:pageopacity="0"
     inkscape:pagecheckerboard="0"
     inkscape:deskcolor="#505050"
     showgrid="false"
     inkscape:zoom="1"
     inkscape:cx="4"
     inkscape:cy="18"
     inkscape:window-width="1920"
     inkscape:window-height="1027"
     inkscape:window-x="0"
     inkscape:window-y="24"
     inkscape:window-maximized="1"
     inkscape:current-layer="svg6"
     showguides="false"><sodipodi:guide
       position="0,0"
       orientation="36,0"
       id="guide331"
       inkscape:locked="false" /><sodipodi:guide
       position="6,0"
       orientation="36,0"
       id="guide333"
       inkscape:locked="false" /><sodipodi:guide
       position="12,0"
       orientation="36,0"
       id="guide335"
       inkscape:locked="false" /><sodipodi:guide
       position="18,0"
       orientation="36,0"
       id="guide337"
       inkscape:locked="false" /><sodipodi:guide
       position="24,0"
       orientation="36,0"
       id="guide339"
       inkscape:locked="false" /><sodipodi:guide
       position="30,0"
       orientation="36,0"
       id="guide341"
       inkscape:locked="false" /><sodipodi:guide
       position="36,0"
       orientation="36,0"
       id="guide343"
       inkscape:locked="false" /><sodipodi:guide
       position="0,0"
       orientation="0,36"
       id="guide345"
       inkscape:locked="false" /><sodipodi:guide
       position="0,18"
       orientation="0,36"
       id="guide347"
       inkscape:locked="false" /><sodipodi:guide
       position="0,36"
       orientation="0,36"
       id="guide349"
       inkscape:locked="false" /><inkscape:grid
       type="xygrid"
       id="grid367"
       empspacing="6" /></sodipodi:namedview><path
     fill="#3B88C3"
     d="M36 32c0 2.209-1.791 4-4 4H4c-2.209 0-4-1.791-4-4V4c0-2.209 1.791-4 4-4h28c2.209 0 4 1.791 4 4v28z"
     id="path2" /><path
     fill="#ffffff"
     d="M 4.974667,13.45 H 3.755333 C 2.763333,13.45 2.35,12.726667 2.35,12.024 c 0,-0.723333 0.516667,-1.426667 1.405333,-1.426667 H 6.69 c 0.889333,0 1.385333,0.640667 1.385333,1.467334 v 11.762 c 0,1.034 -0.661333,1.612 -1.550666,1.612 -0.888667,0 -1.55,-0.578 -1.55,-1.612 z"
     id="path4"
     style="stroke-width:1" /><path
     fill="#ffffff"
     d="m 21.390667,22.604667 c 0.91,0 1.613333,0.413333 1.613333,1.364 0,0.951333 -0.703333,1.364666 -1.488667,1.364666 h -6.904 c -0.909333,0 -1.612,-0.413333 -1.612,-1.364666 0,-0.433334 0.268667,-0.806 0.475334,-1.054 1.715333,-2.046 3.576,-3.906667 5.147333,-6.180667 0.372,-0.537333 0.723333,-1.178667 0.723333,-1.922667 0,-0.847333 -0.640666,-1.591333 -1.488666,-1.591333 -2.377334,0 -1.24,3.348667 -3.224667,3.348667 -0.992,0 -1.509333,-0.702667 -1.509333,-1.509334 0,-2.604 2.315333,-4.692 4.858,-4.692 2.543333,0 4.588666,1.674667 4.588666,4.299334 0,2.872666 -3.203333,5.726 -4.960666,7.937333 h 3.782 z"
     id="path187"
     style="stroke-width:1" /><path
     fill="#ffffff"
     d="m 24.894666,20.894 c 0,-1.653334 0.909334,-2.872667 2.211334,-3.576 -0.971334,-0.702667 -1.570667,-1.653334 -1.570667,-2.956 0,-2.418667 2.005333,-3.968667 4.464667,-3.968667 2.397334,0 4.486001,1.529333 4.486001,3.968667 0,1.157333 -0.579335,2.315333 -1.592668,2.956 1.406001,0.703333 2.212,1.984666 2.212,3.576 0,2.873333 -2.335999,4.712666 -5.106,4.712666 -2.851333,0 -5.104667,-1.943333 -5.104667,-4.712666 z m 3.224667,-0.207334 c 0,1.054667 0.62,2.068 1.880667,2.068 1.178666,0 1.881333,-1.013333 1.881333,-2.068 0,-1.302 -0.744,-2.066666 -1.881333,-2.066666 -1.198,0 -1.880667,0.909333 -1.880667,2.066666 z m 0.392667,-5.994 c 0,0.93 0.538,1.570667 1.488,1.570667 0.950666,0 1.509333,-0.640667 1.509333,-1.570667 0,-0.888666 -0.538,-1.571333 -1.509333,-1.571333 -0.971334,0 -1.488,0.682667 -1.488,1.571333 z"
     id="path201"
     style="stroke-width:1" /></svg>
