<?xml version="1.0" encoding="UTF-8" standalone="no"?>
<svg
   viewBox="0 0 36 36"
   version="1.1"
   id="svg6"
   sodipodi:docname="16384.svg"
   xml:space="preserve"
   inkscape:version="1.2.2 (b0a8486541, 2022-12-01)"
   xmlns:inkscape="http://www.inkscape.org/namespaces/inkscape"
   xmlns:sodipodi="http://sodipodi.sourceforge.net/DTD/sodipodi-0.dtd"
   xmlns="http://www.w3.org/2000/svg"
   xmlns:svg="http://www.w3.org/2000/svg"><defs
     id="defs10" /><sodipodi:namedview
     id="namedview8"
     pagecolor="#505050"
     bordercolor="#eeeeee"
     borderopacity="1"
     inkscape:showpageshadow="0"
     inkscape:pageopacity="0"
     inkscape:pagecheckerboard="0"
     inkscape:deskcolor="#505050"
     showgrid="false"
     inkscape:zoom="1"
     inkscape:cx="-2"
     inkscape:cy="12"
     inkscape:window-width="1920"
     inkscape:window-height="1027"
     inkscape:window-x="0"
     inkscape:window-y="24"
     inkscape:window-maximized="1"
     inkscape:current-layer="svg6"
     showguides="false"><sodipodi:guide
       position="0,0"
       orientation="36,0"
       id="guide363"
       inkscape:locked="false" /><sodipodi:guide
       position="3.6,0"
       orientation="36,0"
       id="guide365"
       inkscape:locked="false" /><sodipodi:guide
       position="7.2,0"
       orientation="36,0"
       id="guide367"
       inkscape:locked="false" /><sodipodi:guide
       position="10.8,0"
       orientation="36,0"
       id="guide369"
       inkscape:locked="false" /><sodipodi:guide
       position="14.4,0"
       orientation="36,0"
       id="guide371"
       inkscape:locked="false" /><sodipodi:guide
       position="18,0"
       orientation="36,0"
       id="guide373"
       inkscape:locked="false" /><sodipodi:guide
       position="21.6,0"
       orientation="36,0"
       id="guide375"
       inkscape:locked="false" /><sodipodi:guide
       position="25.2,0"
       orientation="36,0"
       id="guide377"
       inkscape:locked="false" /><sodipodi:guide
       position="28.8,0"
       orientation="36,0"
       id="guide379"
       inkscape:locked="false" /><sodipodi:guide
       position="32.4,0"
       orientation="36,0"
       id="guide381"
       inkscape:locked="false" /><sodipodi:guide
       position="36,0"
       orientation="36,0"
       id="guide383"
       inkscape:locked="false" /><sodipodi:guide
       position="0,0"
       orientation="0,36"
       id="guide385"
       inkscape:locked="false" /><sodipodi:guide
       position="0,18"
       orientation="0,36"
       id="guide387"
       inkscape:locked="false" /><sodipodi:guide
       position="0,36"
       orientation="0,36"
       id="guide389"
       inkscape:locked="false" /><sodipodi:guide
       position="9,0"
       orientation="36,0"
       id="guide451"
       inkscape:locked="false" /><sodipodi:guide
       position="27,0"
       orientation="36,0"
       id="guide453"
       inkscape:locked="false" /></sodipodi:namedview><path
     fill="#3B88C3"
     d="M36 32c0 2.209-1.791 4-4 4H4c-2.209 0-4-1.791-4-4V4c0-2.209 1.791-4 4-4h28c2.209 0 4 1.791 4 4v28z"
     id="path2" /><path
     fill="#ffffff"
     d="m 20.4436,15.455043 c 0,0.781599 -0.3344,1.4636 -1.0168,1.8976 0.8928,0.4096 1.5128,1.2404 1.5128,2.22 0,1.4884 -1.364,2.7412 -3.1252,2.7412 -1.8356,0 -2.9764,-1.352001 -2.9764,-2.331601 0,-0.4836 0.5088,-0.830799 0.9552,-0.830799 0.8432,0 0.6448,1.451199 2.0464,1.451199 0.6448,0 1.166,-0.495999 1.166,-1.153599 0,-1.7364 -2.1088,-0.4588 -2.1088,-1.922401 0,-1.301999 1.7608,-0.421599 1.7608,-1.798399 0,-0.4716 -0.3344,-0.8312 -0.8928,-0.8312 -1.178,0 -1.0168,1.2152 -1.8604,1.2152 -0.5084,0 -0.806,-0.458801 -0.806,-0.9176 0,-0.9672 1.3268,-2.0092 2.7036,-2.0092 1.7864,0 2.6416,1.3024 2.6416,2.2696 z"
     id="path4"
     style="stroke-width:0.999998" /><path
     fill="#ffffff"
     d="m 2.984801,15.034643 h -0.7316 c -0.5952,0 -0.8432,-0.434 -0.8432,-0.8556 0,-0.434 0.31,-0.856 0.8432,-0.856 h 1.7608 c 0.5336,0 0.8312,0.3844 0.8312,0.8804 v 7.0572 c 0,0.6204 -0.3968,0.967199 -0.9304,0.967199 -0.5332,0 -0.93,-0.346799 -0.93,-0.967199 z"
     id="path241"
     style="stroke-width:0.999998" /><path
     fill="#ffffff"
     d="m 7.6876004,19.237843 c 0,-1.8728 1.8976,-4.502 3.1499996,-5.668 0.0992,-0.0992 0.248,-0.1984 0.3968,-0.2976 0.1364,-0.0868 0.2732,-0.0868 0.3724,-0.0868 0.3468,0 0.8804,0.4588 0.8804,0.9056 0,0.1736 -0.1116,0.3224 -0.2604,0.5084 -0.496,0.6076 -1.302,1.4012 -1.7116,1.9844 l 0.0248,0.0248 c 0.2232,-0.0992 0.5084,-0.1488 0.7816,-0.1488 1.4884,0 2.5916,1.3148 2.5916,2.778 0,1.612 -1.2776,3.076 -3.1132,3.076 -1.9091996,-4.01e-4 -3.1123996,-1.426401 -3.1123996,-3.076 z m 1.9348,0 c 0,0.694399 0.4339996,1.29 1.1779996,1.29 0.7072,0 1.1784,-0.570801 1.1784,-1.29 0,-0.657201 -0.3968,-1.29 -1.1784,-1.29 -0.7068,0 -1.1779996,0.558399 -1.1779996,1.29 z"
     id="path269"
     style="stroke-width:0.999998" /><path
     fill="#ffffff"
     d="m 22.1368,19.485843 c 0,-0.992 0.5456,-1.7236 1.3268,-2.1456 -0.5828,-0.4216 -0.9424,-0.992001 -0.9424,-1.7736 0,-1.4512 1.2032,-2.3812 2.6788,-2.3812 1.4384,0 2.6916,0.9176 2.6916,2.3812 0,0.6944 -0.3476,1.3892 -0.9556,1.7736 0.8436,0.422 1.3272,1.1908 1.3272,2.1456 0,1.724 -1.4016,2.827599 -3.0636,2.827599 -1.7108,0 -3.0628,-1.165999 -3.0628,-2.827599 z m 1.9348,-0.1244 c 0,0.6328 0.372,1.2408 1.1284,1.2408 0.7072,0 1.1288,-0.608 1.1288,-1.2408 0,-0.7812 -0.4464,-1.24 -1.1288,-1.24 -0.7188,0 -1.1284,0.545599 -1.1284,1.24 z m 0.2356,-3.5964 c 0,0.558 0.3228,0.9424 0.8928,0.9424 0.5704,0 0.9056,-0.3844 0.9056,-0.9424 0,-0.5332 -0.3228,-0.9428 -0.9056,-0.9428 -0.5828,0 -0.8928,0.4096 -0.8928,0.9428 z"
     id="path283"
     style="stroke-width:0.999998" /><path
     fill="#ffffff"
     d="m 29.507601,20.217443 c -0.6076,0 -0.868,-0.4088 -0.868,-0.7316 0,-0.272801 0.0992,-0.422 0.1736,-0.5456 l 2.7784,-5.0356 c 0.2728,-0.496 0.62,-0.7192 1.2648,-0.7192 0.7196,0 1.4264,0.4588 1.4264,1.5876 v 3.807599 h 0.2108 c 0.4836,0 0.868,0.3228 0.868,0.818801 0,0.496 -0.3844,0.8184 -0.868,0.8184 h -0.2108 v 1.054399 c 0,0.6576 -0.2604,0.967201 -0.8928,0.967201 -0.6324,0 -0.8932,-0.309601 -0.8932,-0.967201 v -1.054399 h -2.9892 z m 2.9892,-5.0972 h -0.0248 l -1.6744,3.46 h 1.6992 z"
     id="path255"
     style="stroke-width:0.999998" /></svg>
