<?xml version="1.0" encoding="UTF-8" standalone="no"?>
<svg
   viewBox="0 0 36 36"
   version="1.1"
   id="svg6"
   sodipodi:docname="16.svg"
   xml:space="preserve"
   inkscape:version="1.2.2 (b0a8486541, 2022-12-01)"
   xmlns:inkscape="http://www.inkscape.org/namespaces/inkscape"
   xmlns:sodipodi="http://sodipodi.sourceforge.net/DTD/sodipodi-0.dtd"
   xmlns="http://www.w3.org/2000/svg"
   xmlns:svg="http://www.w3.org/2000/svg"><defs
     id="defs10" /><sodipodi:namedview
     id="namedview8"
     pagecolor="#505050"
     bordercolor="#eeeeee"
     borderopacity="1"
     inkscape:showpageshadow="0"
     inkscape:pageopacity="0"
     inkscape:pagecheckerboard="0"
     inkscape:deskcolor="#505050"
     showgrid="false"
     inkscape:zoom="11.313708"
     inkscape:cx="15.733126"
     inkscape:cy="20.948038"
     inkscape:window-width="1920"
     inkscape:window-height="1027"
     inkscape:window-x="0"
     inkscape:window-y="24"
     inkscape:window-maximized="1"
     inkscape:current-layer="svg6"
     showguides="false"><inkscape:grid
       type="xygrid"
       id="grid347"
       empspacing="6" /><sodipodi:guide
       position="0,0"
       orientation="36,0"
       id="guide261"
       inkscape:locked="false" /><sodipodi:guide
       position="9,0"
       orientation="36,0"
       id="guide263"
       inkscape:locked="false" /><sodipodi:guide
       position="18,0"
       orientation="36,0"
       id="guide265"
       inkscape:locked="false" /><sodipodi:guide
       position="27,0"
       orientation="36,0"
       id="guide267"
       inkscape:locked="false" /><sodipodi:guide
       position="36,0"
       orientation="36,0"
       id="guide269"
       inkscape:locked="false" /><sodipodi:guide
       position="0,0"
       orientation="0,36"
       id="guide271"
       inkscape:locked="false" /><sodipodi:guide
       position="0,18"
       orientation="0,36"
       id="guide273"
       inkscape:locked="false" /><sodipodi:guide
       position="0,36"
       orientation="0,36"
       id="guide275"
       inkscape:locked="false" /><sodipodi:guide
       position="0,32.4"
       orientation="0,36"
       id="guide316"
       inkscape:locked="false" /><sodipodi:guide
       position="0,3.6"
       orientation="0,36"
       id="guide318"
       inkscape:locked="false" /><sodipodi:guide
       position="3.6,0"
       orientation="36,0"
       id="guide320"
       inkscape:locked="false" /><sodipodi:guide
       position="32.4,0"
       orientation="36,0"
       id="guide322"
       inkscape:locked="false" /></sodipodi:namedview><path
     fill="#3B88C3"
     d="M36 32c0 2.209-1.791 4-4 4H4c-2.209 0-4-1.791-4-4V4c0-2.209 1.791-4 4-4h28c2.209 0 4 1.791 4 4v28z"
     id="path2" /><path
     fill="#ffffff"
     d="M 9.5696,12.54 H 8.1064 C 6.916,12.54 6.42,11.672 6.42,10.8288 c 0,-0.868 0.62,-1.712 1.6864,-1.712 h 3.5216 c 1.0672,0 1.6624,0.7688 1.6624,1.7608 V 24.992 c 0,1.2408 -0.7936,1.9344 -1.8608,1.9344 -1.0664,0 -1.86,-0.6936 -1.86,-1.9344 z"
     id="path4"
     style="stroke-width:1" /><path
     fill="#ffffff"
     d="m 18.975199,20.9464 c 0,-3.7456 3.7952,-9.004 6.3,-11.336 0.1984,-0.1984 0.496,-0.3968 0.7936,-0.5952 0.2728,-0.1736 0.5464,-0.1736 0.7448,-0.1736 0.6936,0 1.7608,0.9176 1.7608,1.8112 0,0.3472 -0.2232,0.6448 -0.5208,1.0168 -0.992,1.2152 -2.604,2.8024 -3.4232,3.9688 l 0.0496,0.0496 c 0.4464,-0.1984 1.0168,-0.2976 1.5632,-0.2976 2.9768,0 5.1832,2.6296 5.1832,5.556 0,3.224 -2.5552,6.152 -6.2264,6.152 -3.8184,-8e-4 -6.2248,-2.8528 -6.2248,-6.152 z m 3.8696,0 c 0,1.3888 0.868,2.58 2.356,2.58 1.4144,0 2.3568,-1.1416 2.3568,-2.58 0,-1.3144 -0.7936,-2.58 -2.3568,-2.58 -1.4136,0 -2.356,1.1168 -2.356,2.58 z"
     id="path187"
     style="stroke-width:1" /></svg>
