<?xml version="1.0" encoding="UTF-8" standalone="no"?>
<svg
   viewBox="0 0 36 36"
   version="1.1"
   id="svg6"
   sodipodi:docname="575.svg"
   xml:space="preserve"
   inkscape:version="1.2.2 (b0a8486541, 2022-12-01)"
   xmlns:inkscape="http://www.inkscape.org/namespaces/inkscape"
   xmlns:sodipodi="http://sodipodi.sourceforge.net/DTD/sodipodi-0.dtd"
   xmlns="http://www.w3.org/2000/svg"
   xmlns:svg="http://www.w3.org/2000/svg"><defs
     id="defs10" /><sodipodi:namedview
     id="namedview8"
     pagecolor="#505050"
     bordercolor="#eeeeee"
     borderopacity="1"
     inkscape:showpageshadow="0"
     inkscape:pageopacity="0"
     inkscape:pagecheckerboard="0"
     inkscape:deskcolor="#505050"
     showgrid="false"
     inkscape:zoom="2.5798611"
     inkscape:cx="11.240915"
     inkscape:cy="9.6904441"
     inkscape:window-width="1920"
     inkscape:window-height="1027"
     inkscape:window-x="0"
     inkscape:window-y="24"
     inkscape:window-maximized="1"
     inkscape:current-layer="svg6"
     showguides="false"><sodipodi:guide
       position="0,0"
       orientation="36,0"
       id="guide316"
       inkscape:locked="false" /><sodipodi:guide
       position="6,0"
       orientation="36,0"
       id="guide318"
       inkscape:locked="false" /><sodipodi:guide
       position="12,0"
       orientation="36,0"
       id="guide320"
       inkscape:locked="false" /><sodipodi:guide
       position="18,0"
       orientation="36,0"
       id="guide322"
       inkscape:locked="false" /><sodipodi:guide
       position="24,0"
       orientation="36,0"
       id="guide324"
       inkscape:locked="false" /><sodipodi:guide
       position="30,0"
       orientation="36,0"
       id="guide326"
       inkscape:locked="false" /><sodipodi:guide
       position="36,0"
       orientation="36,0"
       id="guide328"
       inkscape:locked="false" /><sodipodi:guide
       position="0,0"
       orientation="0,36"
       id="guide330"
       inkscape:locked="false" /><sodipodi:guide
       position="0,18"
       orientation="0,36"
       id="guide332"
       inkscape:locked="false" /><sodipodi:guide
       position="0,36"
       orientation="0,36"
       id="guide334"
       inkscape:locked="false" /><inkscape:grid
       type="xygrid"
       id="grid353"
       empspacing="6" /></sodipodi:namedview><path
     fill="#3B88C3"
     d="M36 32c0 2.209-1.791 4-4 4H4c-2.209 0-4-1.791-4-4V4c0-2.209 1.791-4 4-4h28c2.209 0 4 1.791 4 4v28z"
     id="path2" /><path
     fill="#ffffff"
     d="M 4.926,15.659333 C 5.422,15.556 5.96,15.452667 6.476667,15.452667 c 2.501333,0 4.278666,1.984666 4.278666,4.402666 0,3.452 -1.900666,5.726 -5.477333,5.726 -1.467333,0 -4.547333,-0.951333 -4.547333,-2.77 0,-0.764666 0.640666,-1.404666 1.405333,-1.404666 0.826667,0 1.819333,1.322666 3.204,1.322666 1.446667,0 2.192,-1.406 2.192,-2.708 C 7.532,18.781333 6.828667,17.934 5.547333,17.934 4.348,17.934 4.162,18.616 3.108,18.616 c -0.806,0 -1.219333,-0.62 -1.219333,-0.971333 0,-0.268667 0.04133,-0.475334 0.062,-0.702667 l 0.516,-4.362667 c 0.227333,-1.612 0.62,-1.963333 1.612,-1.963333 H 9.06 c 0.952,0 1.509333,0.558 1.509333,1.302 0,1.426667 -1.074,1.550667 -1.446666,1.550667 h -3.886 z"
     id="path187"
     style="stroke-width:1" /><path
     fill="#ffffff"
     d="M 19.571333,13.468667 H 14.28 c -1.116,0 -1.529333,-0.723334 -1.529333,-1.426 0,-0.723334 0.392666,-1.426667 1.529333,-1.426667 h 7.482667 c 1.054666,0 1.488666,0.950667 1.488666,1.488 0,0.413333 -0.227333,0.847333 -0.475333,1.364 l -5.126667,10.418 c -0.578666,1.157333 -0.806,1.57 -1.736,1.57 -1.136666,0 -1.716,-0.868 -1.716,-1.467333 0,-0.248 0.062,-0.433334 0.207334,-0.723334 z"
     id="path4"
     style="stroke-width:1" /><path
     fill="#ffffff"
     d="m 28.926,15.659333 c 0.496,-0.103333 1.034,-0.206666 1.550667,-0.206666 2.501333,0 4.278666,1.984666 4.278666,4.402666 0,3.452 -1.900666,5.726 -5.477333,5.726 -1.467333,0 -4.547333,-0.951333 -4.547333,-2.77 0,-0.764666 0.640666,-1.404666 1.405333,-1.404666 0.826667,0 1.819333,1.322666 3.204,1.322666 1.446667,0 2.192,-1.406 2.192,-2.708 0,-1.24 -0.703333,-2.087333 -1.984667,-2.087333 -1.199333,0 -1.385333,0.682 -2.439333,0.682 -0.806,0 -1.219333,-0.62 -1.219333,-0.971333 0,-0.268667 0.04133,-0.475334 0.062,-0.702667 l 0.516,-4.362667 c 0.227333,-1.612 0.62,-1.963333 1.612,-1.963333 H 33.06 c 0.952,0 1.509333,0.558 1.509333,1.302 0,1.426667 -1.074,1.550667 -1.446666,1.550667 h -3.886 z"
     id="path411"
     style="stroke-width:1" /></svg>
