<?xml version="1.0" encoding="UTF-8" standalone="no"?>
<svg
   viewBox="0 0 36 36"
   version="1.1"
   id="svg6"
   sodipodi:docname="4096.svg"
   xml:space="preserve"
   inkscape:version="1.2.2 (b0a8486541, 2022-12-01)"
   xmlns:inkscape="http://www.inkscape.org/namespaces/inkscape"
   xmlns:sodipodi="http://sodipodi.sourceforge.net/DTD/sodipodi-0.dtd"
   xmlns="http://www.w3.org/2000/svg"
   xmlns:svg="http://www.w3.org/2000/svg"><defs
     id="defs10" /><sodipodi:namedview
     id="namedview8"
     pagecolor="#505050"
     bordercolor="#eeeeee"
     borderopacity="1"
     inkscape:showpageshadow="0"
     inkscape:pageopacity="0"
     inkscape:pagecheckerboard="0"
     inkscape:deskcolor="#505050"
     showgrid="false"
     inkscape:zoom="1"
     inkscape:cx="-14"
     inkscape:cy="14"
     inkscape:window-width="1920"
     inkscape:window-height="1027"
     inkscape:window-x="0"
     inkscape:window-y="24"
     inkscape:window-maximized="1"
     inkscape:current-layer="svg6"
     showguides="false"><sodipodi:guide
       position="0,0"
       orientation="36,0"
       id="guide347"
       inkscape:locked="false" /><sodipodi:guide
       position="4.5,0"
       orientation="36,0"
       id="guide349"
       inkscape:locked="false" /><sodipodi:guide
       position="9,0"
       orientation="36,0"
       id="guide351"
       inkscape:locked="false" /><sodipodi:guide
       position="13.5,0"
       orientation="36,0"
       id="guide353"
       inkscape:locked="false" /><sodipodi:guide
       position="18,0"
       orientation="36,0"
       id="guide355"
       inkscape:locked="false" /><sodipodi:guide
       position="22.5,0"
       orientation="36,0"
       id="guide357"
       inkscape:locked="false" /><sodipodi:guide
       position="27,0"
       orientation="36,0"
       id="guide359"
       inkscape:locked="false" /><sodipodi:guide
       position="31.5,0"
       orientation="36,0"
       id="guide361"
       inkscape:locked="false" /><sodipodi:guide
       position="36,0"
       orientation="36,0"
       id="guide363"
       inkscape:locked="false" /><sodipodi:guide
       position="0,0"
       orientation="0,36"
       id="guide365"
       inkscape:locked="false" /><sodipodi:guide
       position="0,18"
       orientation="0,36"
       id="guide367"
       inkscape:locked="false" /><sodipodi:guide
       position="0,36"
       orientation="0,36"
       id="guide369"
       inkscape:locked="false" /></sodipodi:namedview><path
     fill="#3B88C3"
     d="M36 32c0 2.209-1.791 4-4 4H4c-2.209 0-4-1.791-4-4V4c0-2.209 1.791-4 4-4h28c2.209 0 4 1.791 4 4v28z"
     id="path2" /><path
     fill="#ffffff"
     d="m 0.8845,20.869869 c -0.7595,0 -1.085,-0.511 -1.085,-0.914499 0,-0.341001 0.124,-0.527501 0.217,-0.682 l 3.473,-6.294501 c 0.341,-0.62 0.775,-0.899 1.581,-0.899 0.8995,0 1.783,0.5735 1.783,1.984501 v 4.7595 H 7.117 c 0.6045,0 1.085,0.403499 1.085,1.023499 0,0.620001 -0.4805,1.023001 -1.085,1.023001 H 6.8535 v 1.317999 c 0,0.822 -0.3255,1.209 -1.116,1.209 -0.7905,0 -1.1165,-0.387 -1.1165,-1.209 V 20.87037 H 0.8845 Z m 3.7365,-6.3715 H 4.59 l -2.093001,4.325 H 4.621 Z"
     id="path4"
     style="stroke-width:1" /><path
     fill="#ffffff"
     d="m 9.3925,17.78487 c 0,-2.527001 0.977,-5.705001 4.108,-5.705001 3.132,0 4.1085,3.178 4.1085,5.705001 0,2.526999 -0.9765,5.704999 -4.1085,5.704999 -3.131,0 -4.108,-3.178 -4.108,-5.704999 z m 5.798,0 c 0,-1.178001 -0.1085,-3.5965 -1.6895,-3.5965 -1.581,0 -1.6895,2.418499 -1.6895,3.5965 0,1.100499 0.1085,3.5965 1.6895,3.5965 1.581,0 1.6895,-2.496001 1.6895,-3.5965 z"
     id="path241"
     style="stroke-width:1" /><path
     fill="#ffffff"
     d="m 26.392,15.924369 c 0,2.341 -2.3715,5.6275 -3.9375,7.085001 -0.124,0.124 -0.31,0.247999 -0.496,0.371999 -0.1705,0.1085 -0.341,0.1085 -0.465,0.1085 -0.434,0 -1.101,-0.574 -1.101,-1.131999 0,-0.217001 0.1395,-0.403 0.3255,-0.635501 0.62,-0.76 1.628,-1.752 2.1395,-2.4805 l -0.031,-0.031 c -0.279,0.124 -0.635501,0.185999 -0.9765,0.185999 -1.8605,0 -3.24,-1.6435 -3.24,-3.4725 0,-2.0155 1.5965,-3.8445 3.891,-3.8445 2.3875,0 3.891,1.782501 3.891,3.8445 z m -2.4185,0 c 0,-0.867999 -0.543,-1.6125 -1.473,-1.6125 -0.8835,0 -1.4725,0.713 -1.4725,1.6125 0,0.822 0.496,1.6125 1.4725,1.6125 0.8845,0 1.473,-0.698 1.473,-1.6125 z"
     id="path269"
     style="stroke-width:1" /><path
     fill="#ffffff"
     d="m 27.6095,19.645369 c 0,-2.341 2.372,-5.6275 3.9375,-7.084999 0.124,-0.124 0.31,-0.248 0.496,-0.372001 0.1705,-0.1085 0.3415,-0.1085 0.4655,-0.1085 0.4335,0 1.1005,0.5735 1.1005,1.132001 0,0.216999 -0.1395,0.403 -0.3255,0.635499 -0.62,0.759501 -1.6275,1.751501 -2.1395,2.4805 l 0.031,0.031 c 0.279,-0.124 0.635501,-0.186 0.977001,-0.186 1.860499,0 3.2395,1.6435 3.2395,3.4725 0,2.015 -1.597001,3.845 -3.891501,3.845 -2.3865,-5e-4 -3.8905,-1.783 -3.8905,-3.845 z m 2.4185,0 c 0,0.868 0.5425,1.6125 1.4725,1.6125 0.884,0 1.473,-0.713499 1.473,-1.6125 0,-0.821499 -0.496,-1.6125 -1.473,-1.6125 -0.8835,0 -1.4725,0.698 -1.4725,1.6125 z"
     id="path255"
     style="stroke-width:1" /></svg>
