<?xml version="1.0" encoding="UTF-8" standalone="no"?>
<svg
   viewBox="0 0 36 36"
   version="1.1"
   id="svg6"
   sodipodi:docname="334.svg"
   xml:space="preserve"
   inkscape:version="1.2.2 (b0a8486541, 2022-12-01)"
   xmlns:inkscape="http://www.inkscape.org/namespaces/inkscape"
   xmlns:sodipodi="http://sodipodi.sourceforge.net/DTD/sodipodi-0.dtd"
   xmlns="http://www.w3.org/2000/svg"
   xmlns:svg="http://www.w3.org/2000/svg"><defs
     id="defs10" /><sodipodi:namedview
     id="namedview8"
     pagecolor="#505050"
     bordercolor="#eeeeee"
     borderopacity="1"
     inkscape:showpageshadow="0"
     inkscape:pageopacity="0"
     inkscape:pagecheckerboard="0"
     inkscape:deskcolor="#505050"
     showgrid="false"
     inkscape:zoom="3.6484746"
     inkscape:cx="-6.3040045"
     inkscape:cy="15.074793"
     inkscape:window-width="1920"
     inkscape:window-height="1027"
     inkscape:window-x="0"
     inkscape:window-y="24"
     inkscape:window-maximized="1"
     inkscape:current-layer="svg6"
     showguides="false"><sodipodi:guide
       position="0,0"
       orientation="36,0"
       id="guide316"
       inkscape:locked="false" /><sodipodi:guide
       position="6,0"
       orientation="36,0"
       id="guide318"
       inkscape:locked="false" /><sodipodi:guide
       position="12,0"
       orientation="36,0"
       id="guide320"
       inkscape:locked="false" /><sodipodi:guide
       position="18,0"
       orientation="36,0"
       id="guide322"
       inkscape:locked="false" /><sodipodi:guide
       position="24,0"
       orientation="36,0"
       id="guide324"
       inkscape:locked="false" /><sodipodi:guide
       position="30,0"
       orientation="36,0"
       id="guide326"
       inkscape:locked="false" /><sodipodi:guide
       position="36,0"
       orientation="36,0"
       id="guide328"
       inkscape:locked="false" /><sodipodi:guide
       position="0,0"
       orientation="0,36"
       id="guide330"
       inkscape:locked="false" /><sodipodi:guide
       position="0,18"
       orientation="0,36"
       id="guide332"
       inkscape:locked="false" /><sodipodi:guide
       position="0,36"
       orientation="0,36"
       id="guide334"
       inkscape:locked="false" /><inkscape:grid
       type="xygrid"
       id="grid356"
       empspacing="6" /></sodipodi:namedview><path
     fill="#3B88C3"
     d="M36 32c0 2.209-1.791 4-4 4H4c-2.209 0-4-1.791-4-4V4c0-2.209 1.791-4 4-4h28c2.209 0 4 1.791 4 4v28z"
     id="path2" /><path
     fill="#ffffff"
     d="m 10.072667,14.150667 c 0,1.302666 -0.557334,2.439333 -1.694667,3.162666 1.488,0.682667 2.521333,2.067334 2.521333,3.7 C 10.899333,23.494 8.626,25.582 5.690667,25.582 2.631333,25.582 0.73,23.328667 0.73,21.696 c 0,-0.806 0.848,-1.384667 1.592,-1.384667 1.405333,0 1.074667,2.418667 3.410667,2.418667 1.074666,0 1.943333,-0.826667 1.943333,-1.922667 0,-2.894 -3.514667,-0.764666 -3.514667,-3.204 0,-2.17 2.934667,-0.702666 2.934667,-2.997333 0,-0.786 -0.557333,-1.385333 -1.488,-1.385333 -1.963333,0 -1.694667,2.025333 -3.100667,2.025333 C 1.66,15.246 1.164,14.481333 1.164,13.716667 c 0,-1.612 2.211333,-3.348667 4.506,-3.348667 2.977333,0 4.402667,2.170667 4.402667,3.782667 z"
     id="path4"
     style="stroke-width:1" /><path
     fill="#ffffff"
     d="m 22.072667,14.150667 c 0,1.302666 -0.557334,2.439333 -1.694667,3.162666 1.488,0.682667 2.521333,2.067334 2.521333,3.7 0,2.480667 -2.273333,4.568667 -5.208666,4.568667 -3.059334,0 -4.960667,-2.253333 -4.960667,-3.886 0,-0.806 0.848,-1.384667 1.592,-1.384667 1.405333,0 1.074667,2.418667 3.410667,2.418667 1.074666,0 1.943333,-0.826667 1.943333,-1.922667 0,-2.894 -3.514667,-0.764666 -3.514667,-3.204 0,-2.17 2.934667,-0.702666 2.934667,-2.997333 0,-0.786 -0.557333,-1.385333 -1.488,-1.385333 -1.963333,0 -1.694667,2.025333 -3.100667,2.025333 C 13.66,15.246 13.164,14.481333 13.164,13.716667 c 0,-1.612 2.211333,-3.348667 4.506,-3.348667 2.977333,0 4.402667,2.170667 4.402667,3.782667 z"
     id="path484"
     style="stroke-width:1" /><path
     fill="#ffffff"
     d="m 25.179332,21.957246 c -1.012667,0 -1.446667,-0.681334 -1.446667,-1.219333 0,-0.454667 0.165333,-0.703333 0.289333,-0.909334 l 4.630667,-8.392666 c 0.454667,-0.826667 1.033333,-1.198667 2.108,-1.198667 1.199333,0 2.377333,0.764667 2.377333,2.646 v 6.346 h 0.351333 c 0.806,0 1.446667,0.538 1.446667,1.364667 0,0.826667 -0.640667,1.364 -1.446667,1.364 h -0.351333 v 1.757332 c 0,1.096001 -0.434,1.612001 -1.488,1.612001 -1.053999,0 -1.488667,-0.516 -1.488667,-1.612001 v -1.757332 h -4.981999 z m 4.981999,-8.495333 h -0.04133 l -2.790667,5.766666 h 2.832 z"
     id="path187"
     style="stroke-width:1" /></svg>
