<?xml version="1.0" encoding="UTF-8" standalone="no"?>
<!-- Created with Inkscape (http://www.inkscape.org/) -->

<svg
   version="1.1"
   width="1005.4"
   height="1005.4"
   id="svg2"
   xml:space="preserve"
   inkscape:version="1.1 (c68e22c387, 2021-05-23)"
   sodipodi:docname="Japanese_Road_sign_325-5-A.svg"
   xmlns:inkscape="http://www.inkscape.org/namespaces/inkscape"
   xmlns:sodipodi="http://sodipodi.sourceforge.net/DTD/sodipodi-0.dtd"
   xmlns:xlink="http://www.w3.org/1999/xlink"
   xmlns="http://www.w3.org/2000/svg"
   xmlns:svg="http://www.w3.org/2000/svg"
   xmlns:rdf="http://www.w3.org/1999/02/22-rdf-syntax-ns#"
   xmlns:cc="http://creativecommons.org/ns#"
   xmlns:dc="http://purl.org/dc/elements/1.1/"><sodipodi:namedview
     pagecolor="#ffffff"
     bordercolor="#666666"
     borderopacity="1"
     objecttolerance="10"
     gridtolerance="10"
     guidetolerance="10"
     inkscape:pageopacity="0"
     inkscape:pageshadow="2"
     inkscape:window-width="1366"
     inkscape:window-height="705"
     id="namedview28"
     showgrid="false"
     fit-margin-top="0.2"
     fit-margin-left="0.2"
     fit-margin-right="0.2"
     fit-margin-bottom="0.2"
     inkscape:zoom="0.5"
     inkscape:cx="421"
     inkscape:cy="503"
     inkscape:window-x="-8"
     inkscape:window-y="-8"
     inkscape:window-maximized="1"
     inkscape:current-layer="svg2"
     inkscape:pagecheckerboard="0" /><metadata
     id="metadata8"><rdf:RDF><cc:Work
         rdf:about=""><dc:format>image/svg+xml</dc:format><dc:type
           rdf:resource="http://purl.org/dc/dcmitype/StillImage" /></cc:Work></rdf:RDF></metadata><defs
     id="defs6"><linearGradient
       id="linearGradient15703"
       inkscape:swatch="solid"><stop
         style="stop-color:#ffffff;stop-opacity:1;"
         offset="0"
         id="stop15705" /></linearGradient><linearGradient
       inkscape:collect="always"
       xlink:href="#linearGradient15703"
       id="linearGradient15707"
       x1="-37.125"
       y1="465.375"
       x2="967.87512"
       y2="465.375"
       gradientUnits="userSpaceOnUse"
       gradientTransform="translate(37.325,37.325)" /></defs><path
     inkscape:connector-curvature="0"
     style="fill:url(#linearGradient15707);fill-opacity:1;stroke:#0066b3;stroke-width:5;stroke-miterlimit:4;stroke-opacity:1;stroke-dasharray:none"
     d="m 1002.7001,502.7 c 0,-276.1424 -223.85772,-500 -500.0001,-500 -276.14238,0 -500,223.8576 -500,500 0,276.1423 223.85762,500.0001 500,500.0001 276.14238,0 500.0001,-223.8578 500.0001,-500.0001 z"
     id="path3854" /><path
     id="path14622"
     d="m 968.07508,502.7 c 0,257.0196 -208.35548,465.375 -465.375,465.375 C 245.6805,968.075 37.325,759.7196 37.325,502.7 c 0,-257.0196 208.3555,-465.375 465.37508,-465.375 257.01952,0 465.375,208.3554 465.375,465.375 z"
     style="fill:#0066b3;fill-opacity:1;stroke:none"
     inkscape:connector-curvature="0"
     sodipodi:nodetypes="sssss" /><path
     id="rect28"
     style="fill:#ffffff;fill-opacity:1;fill-rule:evenodd;stroke-width:5.72677"
     d="m 184.81811,333.6773 c -32.34752,0 -58.38829,26.04076 -58.38829,58.38827 V 666.00263 H 879.57019 V 392.06557 c 0,-32.34751 -26.04077,-58.38827 -58.38828,-58.38827 z" /><circle
     style="fill:#0066b3;fill-opacity:1;stroke:#ffffff;stroke-width:37.7308;stroke-linecap:round;stroke-linejoin:round;stroke-miterlimit:4;stroke-dasharray:none;stroke-opacity:1"
     id="path882"
     cx="727.84833"
     cy="664.52563"
     r="41.874882" /><circle
     style="fill:#0066b3;fill-opacity:1;stroke:#ffffff;stroke-width:37.7308;stroke-linecap:round;stroke-linejoin:round;stroke-miterlimit:4;stroke-dasharray:none;stroke-opacity:1"
     id="path882-8"
     cx="280.70279"
     cy="664.93164"
     r="41.874882" /><rect
     style="fill:#0066b3;fill-opacity:1;fill-rule:evenodd;stroke-width:4.68755"
     id="rect912"
     width="105.7073"
     height="93.328499"
     x="303.48355"
     y="380.19241"
     ry="9.8234406" /><rect
     style="fill:#0066b3;fill-opacity:1;fill-rule:evenodd;stroke-width:4.68755"
     id="rect912-9"
     width="105.7073"
     height="93.328499"
     x="447.37076"
     y="380.19241"
     ry="9.8234406" /><rect
     style="fill:#0066b3;fill-opacity:1;fill-rule:evenodd;stroke-width:4.68755"
     id="rect912-9-8"
     width="105.7073"
     height="93.328499"
     x="587.71124"
     y="380.19241"
     ry="9.8234406" /><rect
     style="fill:#0066b3;fill-opacity:1;fill-rule:evenodd;stroke-width:4.68755"
     id="rect912-9-8-9"
     width="105.7073"
     height="93.328499"
     x="731.94623"
     y="380.19241"
     ry="9.8234406" /><path
     id="rect912-5"
     style="fill:#0066b3;fill-opacity:1;fill-rule:evenodd;stroke-width:6.55201"
     d="m 184.35414,380.19236 c -4.70036,0 -8.48444,3.7841 -8.48444,8.48441 v 199.38368 c 0,4.70037 3.78408,8.48446 8.48444,8.48446 h 33.65591 l 46.94593,-115.60016 v -92.26798 c 0,-4.70031 -3.78405,-8.48441 -8.48441,-8.48441 z" /></svg>
