<?xml version="1.0" encoding="UTF-8" standalone="no"?>
<!-- Created with Inkscape (http://www.inkscape.org/) -->

<svg
   xmlns:svg="http://www.w3.org/2000/svg"
   xmlns="http://www.w3.org/2000/svg"
   version="1.1"
   width="1800"
   height="300"
   id="svg5338">
  <defs
     id="defs5340" />
  <g
     transform="translate(0,-772.36217)"
     id="layer1">
    <rect
       width="1800"
       height="300"
       rx="50"
       ry="50"
       x="0"
       y="0"
       transform="translate(0,772.36217)"
       id="rect5348"
       style="color:#000000;fill:#000000;fill-opacity:1;stroke:none;stroke-width:99;marker:none;visibility:visible;display:inline;overflow:visible;enable-background:accumulate" />
    <rect
       width="1770"
       height="270"
       rx="50"
       ry="50"
       x="15"
       y="15"
       transform="translate(0,772.36217)"
       id="rect5860"
       style="color:#000000;fill:#ffffff;fill-opacity:1;fill-rule:nonzero;stroke:none;stroke-width:99;marker:none;visibility:visible;display:inline;overflow:visible;enable-background:accumulate" />
    <g
       id="text2814"
       style="font-size:250px;font-style:normal;font-variant:normal;font-weight:normal;font-stretch:normal;text-align:center;text-anchor:middle;fill:#000000;fill-opacity:1;stroke:none;font-family:'Rounded M+ 1p medium';-inkscape-font-specification:'Rounded M+ 1p medium,'">
      <path
         d="m 347.49133,1007.1107 c 12.17136,-11.66791 22.00564,-23.91816 29.50287,-36.75084 1.83606,-3.00085 4.33722,-4.95905 7.50351,-5.87463 3.1661,-0.91548 6.16572,-0.62302 8.99887,0.87738 3.00079,1.66325 5.00096,4.20384 6.00052,7.62176 0.99934,3.41801 0.66492,6.62744 -1.00326,9.6283 -8.3314,14.83156 -18.99728,28.57973 -31.99769,41.24453 -2.66527,2.5024 -5.83146,3.7536 -9.49859,3.7536 -3.66726,0 -6.836,-1.2512 -9.50623,-3.7536 -2.49741,-2.3295 -3.70412,-5.1194 -3.62014,-8.3695 0.0839,-3.2501 1.29058,-6.0424 3.62014,-8.377 z m 126.00708,-40.49687 c 2.83287,-2.1667 6.04102,-3.12546 9.62448,-2.87628 3.58308,0.24928 6.62339,1.70649 9.12095,4.37164 12.16612,12.83268 23.1677,25.91707 33.00476,39.25321 1.99866,2.8331 2.70565,5.9573 2.12097,9.3727 -0.58516,3.4155 -2.29414,6.1239 -5.12696,8.1253 -2.83327,2.0015 -5.91554,2.7517 -9.24682,2.2507 -3.33172,-0.501 -5.99946,-2.168 -8.00324,-5.0011 -9.83195,-13.331 -20.66568,-26.2476 -32.50122,-38.74965 -2.32968,-2.33456 -3.41178,-5.20957 -3.2463,-8.62503 0.16512,-3.41538 1.58292,-6.12254 4.25338,-8.12149 z M 343.99707,910.61407 c -5e-5,44.33193 -6.41637,80.99877 -19.24896,110.00063 -1.33772,3.1636 -3.7982,4.996 -7.38144,5.497 -3.5833,0.5009 -6.53968,-0.5837 -8.86917,-3.254 -6.0018,-6.663 -7.33695,-14.4958 -4.00543,-23.49851 9.17051,-25.33463 13.75577,-60.75025 13.75579,-106.24695 l 0,-60.24932 c -2e-5,-3.83486 1.4165,-7.1689 4.24958,-10.00214 2.83301,-2.83286 6.16451,-4.24938 9.9945,-4.24957 l 184.24988,0 c 3.00067,1.9e-4 5.54253,1.08356 7.62558,3.25012 2.08259,2.16694 3.124,4.75075 3.12424,7.75146 -2.4e-4,3.00108 -1.04165,5.5849 -3.12424,7.75147 -2.08305,2.16692 -4.62491,3.25029 -7.62558,3.25012 l -66.4978,0 c -1.50061,1.7e-4 -2.33475,0.58255 -2.50244,1.74713 -0.99707,4.16582 -2.16182,8.41539 -3.49427,12.74872 -0.33584,1.33276 0.16261,1.99906 1.49537,1.9989 l 52.74963,0 c 3.83483,1.6e-4 7.12691,1.37599 9.87625,4.1275 2.74891,2.75182 4.12347,6.04263 4.12369,9.87244 l 0,69.99969 c -2.2e-4,3.83512 -1.37478,7.1272 -4.12369,9.87626 -2.74934,2.74918 -6.04142,4.12374 -9.87625,4.12368 l -42.49573,0 c -1.33276,6e-5 -1.99906,0.75029 -1.9989,2.25067 l 0,40.25269 c -1.6e-4,5.99674 -0.0841,10.74604 -0.25177,14.24794 -0.16801,3.5018 -0.70969,6.752 -1.62506,9.7503 -0.91569,2.9984 -1.99906,5.1651 -3.25012,6.5003 -1.25138,1.3351 -3.25155,2.5024 -6.00052,3.5019 -2.74927,0.9994 -5.7489,1.6237 -8.99887,1.873 -3.25026,0.2492 -7.62444,0.3738 -13.12256,0.3738 -7.17175,0 -13.59061,-0.1653 -19.25659,-0.4959 -3.16376,-0.1679 -5.91289,-1.4191 -8.24738,-3.7537 -2.33469,-2.3346 -3.58337,-5.1676 -3.74603,-8.4991 -0.16794,-3.1688 0.8315,-5.8365 2.99835,-8.0032 2.16665,-2.1668 4.83185,-3.1662 7.99561,-2.9984 7.50212,0.5036 13.00291,0.7553 16.50238,0.7553 4.99966,0 7.99928,-0.5836 8.99887,-1.7509 0.99931,-1.1673 1.49904,-5.0011 1.49917,-11.50134 l 0,-40.25269 c -1.3e-4,-1.50038 -0.66643,-2.25061 -1.9989,-2.25067 l -38.49792,0 -10.74982,0 c -3.83512,6e-5 -7.16916,-1.3745 -10.00214,-4.12368 -2.83312,-2.74906 -4.24964,-6.04114 -4.24957,-9.87626 l 0,-69.99969 c -7e-5,-3.82981 1.41645,-7.12062 4.24957,-9.87244 2.83298,-2.75151 6.16702,-4.12734 10.00214,-4.1275 l 37.24671,0 c 1.16971,1.6e-4 2.08778,-0.75007 2.75421,-2.25067 1.66308,-5.33024 2.82783,-9.41196 3.49426,-12.24518 0.33556,-1.33243 -0.16289,-1.99873 -1.49536,-1.9989 l -72.25037,0 c -1.33265,1.7e-4 -1.99895,0.66647 -1.9989,1.9989 z m 142.50183,21.74378 0,-14.99939 c -1.9e-4,-1.50035 -0.75042,-2.25057 -2.25067,-2.25067 l -95.25299,0 c -1.3327,10e-5 -1.999,0.75032 -1.9989,2.25067 l 0,14.99939 c -10e-5,1.50053 0.6662,2.25075 1.9989,2.25067 l 95.25299,0 c 1.50025,8e-5 2.25048,-0.75014 2.25067,-2.25067 z m 0,-38.7497 0,-13.74816 c -1.9e-4,-1.50032 -0.75042,-2.25054 -2.25067,-2.25068 l -95.25299,0 c -1.3327,1.4e-4 -1.999,0.75036 -1.9989,2.25068 l 0,13.74816 c -10e-5,1.50057 0.6662,2.25079 1.9989,2.25068 l 95.25299,0 c 1.50025,1.1e-4 2.25048,-0.75011 2.25067,-2.25068 z"
         id="path2817"
         style="font-family:'Rounded M+ 1m medium';-inkscape-font-specification:'Rounded M+ 1m medium,'" />
      <path
         d="m 732.49347,998.10797 0,-126.74713 c -1.9e-4,-1.5003 -0.66649,-2.25053 -1.9989,-2.25067 l -99.50257,0 c -3.33158,1.4e-4 -6.08071,-1.08323 -8.24737,-3.25012 -2.16683,-2.1666 -3.2502,-4.917 -3.25012,-8.25119 -8e-5,-3.33389 1.08329,-6.08428 3.25012,-8.25119 2.16666,-2.16659 4.91579,-3.24996 8.24737,-3.25013 l 99.50257,0 c 1.33241,1.7e-4 1.99871,-0.66613 1.9989,-1.9989 l 0,-19.50073 c -1.9e-4,-3.667 1.33368,-6.8332 4.00162,-9.4986 2.66754,-2.665 5.83501,-3.9976 9.50241,-3.9978 3.66699,2e-4 6.83318,1.3328 9.49859,3.9978 2.66499,2.6654 3.99759,5.8316 3.99781,9.4986 l 0,19.50073 c -2.2e-4,1.33277 0.66608,1.99907 1.9989,1.9989 l 9.49859,0 c 3.33636,1.7e-4 6.08803,1.08354 8.25501,3.25013 2.16651,2.16691 3.24988,4.9173 3.25012,8.25119 -2.4e-4,3.33419 -1.08361,6.08459 -3.25012,8.25119 -2.16698,2.16689 -4.91865,3.25026 -8.25501,3.25012 l -9.49859,0 c -1.33282,1.4e-4 -1.99912,0.75037 -1.9989,2.25067 l 0,126.74713 c -2.2e-4,9.00273 -0.29141,15.58683 -0.87357,19.75253 -0.58259,4.1656 -2.2903,7.665 -5.12314,10.498 -2.83325,2.8331 -6.41652,4.5001 -10.74981,5.0011 -4.3337,0.501 -11.0857,0.7515 -20.25605,0.7515 -7.66517,0 -17.9979,-0.2493 -30.99823,-0.7477 -3.33165,-0.1679 -6.12273,-1.4191 -8.37326,-3.7537 -2.25081,-2.3346 -3.45879,-5.085 -3.62396,-8.2511 -0.16544,-3.1663 0.83528,-5.8327 3.00217,-7.9995 2.1666,-2.1667 4.8318,-3.1662 7.9956,-2.9983 11.66773,0.4984 20.91709,0.7477 27.74811,0.7477 7.0036,0 11.12983,-0.5824 12.37869,-1.7472 1.24849,-1.1647 1.87283,-4.9158 1.87302,-11.25333 z m -87.50153,-98.24371 c 2.83295,-2.00387 6.00041,-2.67272 9.50241,-2.00653 3.50178,0.66641 6.25217,2.41863 8.25119,5.25665 9.16532,13.16335 19.1649,29.07825 29.99878,47.74475 1.66815,3.00096 2.04326,6.16842 1.12534,9.50241 -0.91822,3.3341 -2.87516,5.91664 -5.87082,7.74765 -2.83828,1.66834 -5.92309,2.04345 -9.25446,1.12534 -3.33163,-0.91803 -5.83153,-2.87497 -7.49969,-5.87082 -8.99772,-16.33701 -18.66415,-31.75346 -28.99933,-46.24939 -1.999,-2.83804 -2.74922,-5.96481 -2.25067,-9.38034 0.49836,-3.41532 2.1641,-6.03856 4.99725,-7.86972 z m -67.74902,24.24621 c -3.16369,5.49834 -6.57911,10.9152 -10.24628,16.25061 -1.83616,2.49743 -4.25341,3.49688 -7.25174,2.99836 -2.99836,-0.49839 -4.99853,-2.16414 -6.00052,-4.99726 l -1.25122,-3.50189 c -3.0009,-8.33121 -1.91753,-16.58112 3.25013,-24.74976 16.1692,-25.33454 28.00238,-54.50169 35.49957,-87.50152 0.8341,-3.49916 2.66769,-6.24828 5.50079,-8.24738 2.83299,-1.9987 6.00046,-2.665 9.50241,-1.9989 3.50183,0.6665 6.25222,2.45814 8.25119,5.37491 1.99883,2.91717 2.66513,6.0414 1.9989,9.37271 -3.00096,14.66896 -6.75208,28.33573 -11.25335,41.00037 -0.49852,1.33274 -0.74775,2.66534 -0.74768,3.9978 l 0,150.74918 c -7e-5,3.6672 -1.25001,6.7927 -3.74985,9.3766 -2.49995,2.5838 -5.5835,3.8757 -9.25064,3.8757 -3.66724,0 -6.79275,-1.2919 -9.37653,-3.8757 -2.58386,-2.5839 -3.87577,-5.7094 -3.87573,-9.3766 l 0,-98.49546 c -4e-5,-0.3356 -0.12465,-0.50345 -0.37384,-0.50354 -0.24926,9e-5 -0.4578,0.084 -0.62561,0.25177 z"
         id="path2819"
         style="font-family:'Rounded M+ 1m medium';-inkscape-font-specification:'Rounded M+ 1m medium,'" />
      <path
         d="m 831.99603,951.48474 c -3.49938,0.58498 -6.66558,-0.0394 -9.49859,-1.87302 -2.83308,-1.83353 -4.54206,-4.41735 -5.12696,-7.75146 -0.58494,-3.33397 0.12205,-6.33359 2.12098,-8.99887 15.83349,-22.99998 29.16711,-46.24926 40.00091,-69.74793 0.66623,-1.33244 0.2517,-1.99874 -1.24359,-1.9989 l -33.25653,0 c -2.83308,1.6e-4 -5.29101,-1.04253 -7.37381,-3.12805 -2.08285,-2.08521 -3.12426,-4.54441 -3.12424,-7.37762 -2e-5,-2.83289 1.04139,-5.33278 3.12424,-7.4997 2.0828,-2.16657 4.54073,-3.24995 7.37381,-3.25012 l 41.99982,0 c 1.50037,1.7e-4 2.50236,-0.66613 3.00598,-1.9989 3.33142,-8.99742 5.16501,-13.99721 5.50079,-14.99939 1.33252,-3.49916 3.49799,-6.12366 6.49643,-7.87354 2.99826,-1.74947 6.24711,-2.29116 9.74655,-1.62506 3.16864,0.6665 5.58588,2.54079 7.25174,5.62287 1.66564,3.08246 1.91614,6.20797 0.7515,9.37652 -0.3358,0.83433 -0.87749,2.33478 -1.62506,4.50135 -0.74779,2.16692 -1.3734,3.83267 -1.87684,4.99725 -0.33071,1.33277 0.17029,1.99907 1.50299,1.9989 l 93.75,0 c 2.83285,1.7e-4 5.29079,1.08355 7.37381,3.25012 2.08264,2.16692 3.12404,4.66681 3.12424,7.4997 -2e-4,2.83321 -1.0416,5.29241 -3.12424,7.37762 -2.08302,2.08552 -4.54096,3.12821 -7.37381,3.12805 l -102.24914,0 c -1.50054,1.6e-4 -2.49999,0.66646 -2.99835,1.9989 -0.83424,2.1669 -1.793,4.54091 -2.87628,7.12204 -1.08347,2.58142 -2.37538,5.53908 -3.87574,8.87299 -1.50053,3.33418 -2.75175,6.08457 -3.75366,8.25119 l 0,0.50354 0.50354,0 c 10.83365,-4.50121 20.66538,-6.75188 29.49524,-6.75201 20.1669,1.3e-4 34.00152,9.66656 41.50391,28.99932 0.66614,1.16486 1.50029,1.66586 2.50244,1.503 13.66662,-3.00079 27.83184,-5.41931 42.49573,-7.25556 3.00069,-0.3305 5.70912,0.421 8.12526,2.25449 2.4158,1.8337 3.7077,4.25094 3.8758,7.25174 0.3355,2.9959 -0.4555,5.74375 -2.3728,8.24356 -1.9177,2.49998 -4.3769,3.91778 -7.37759,4.25339 -14.33328,1.99898 -27.41514,4.24965 -39.24561,6.75201 -1.66845,0.33069 -2.3373,1.24621 -2.00653,2.74658 1.16968,8.16861 1.9199,17.66974 2.25067,28.50342 0.16769,3.66724 -0.99834,6.75078 -3.49808,9.25064 -2.50005,2.49994 -5.5836,3.74988 -9.25064,3.74985 -3.66734,3e-5 -6.79284,-1.24991 -9.37652,-3.74985 -2.58396,-2.49986 -3.95725,-5.5834 -4.11988,-9.25064 -0.33583,-9.99953 -0.66898,-17.25 -0.99945,-21.7514 -1.3e-4,-1.50038 -0.75036,-2.08276 -2.25067,-1.74714 -32.66917,10.66596 -49.00368,22.83229 -49.0036,36.49903 -8e-5,3.99783 0.75014,7.41325 2.25067,10.24627 1.50036,2.83308 4.33341,5.49955 8.49915,7.99942 4.16555,2.49992 10.45725,4.37548 18.87512,5.62666 8.41764,1.2513 18.95891,1.8769 31.62384,1.8769 14.83647,0 31.66944,-1.3352 50.49896,-4.00548 3.0007,-0.33059 5.75109,0.4209 8.25119,2.25448 2.49969,1.8336 3.83357,4.2509 4.00167,7.2517 0.3354,3.1637 -0.4555,6.0374 -2.37279,8.6213 -1.91773,2.5838 -4.46086,4.0435 -7.6294,4.3792 -16.66278,2.1668 -34.24597,3.2501 -52.74963,3.2502 -31.00089,-10e-5 -53.33465,-3.6253 -67.00134,-10.8757 -13.66686,-7.2505 -20.50024,-18.62719 -20.50018,-34.13014 -6e-5,-25.99583 23.58491,-46.24422 70.755,-60.74524 1.50032,-0.3356 1.91739,-1.25367 1.25122,-2.75421 -2.16688,-5.16754 -5.04188,-8.75081 -8.62503,-10.74982 -3.58339,-1.99879 -8.04277,-2.99824 -13.37814,-2.99835 -7.83295,1.1e-4 -17.08231,3.74995 -27.74811,11.24954 -10.66596,7.49979 -21.49969,18.33225 -32.50122,32.49741 -2.1668,2.83311 -4.99984,4.54209 -8.49915,5.12695 z"
         id="path2821"
         style="font-family:'Rounded M+ 1m medium';-inkscape-font-specification:'Rounded M+ 1m medium,'" />
      <path
         d="m 1119.998,1001.8616 c 11.1643,-12.50198 20.4976,-26.3366 27.9999,-41.50387 1.3325,-2.833 3.498,-4.83189 6.4965,-5.99671 2.9982,-1.16469 5.9978,-1.16469 8.9988,0 3.0008,1.33266 5.1269,3.45745 6.3782,6.37436 1.2511,2.91702 1.2079,5.79203 -0.1297,8.62503 -7.833,16.99832 -18.4149,32.99969 -31.7459,48.00419 -2.3347,2.4973 -5.169,3.8299 -8.503,3.9978 -3.3341,0.1678 -6.2498,-0.8316 -8.7471,-2.9984 -2.3346,-2.1667 -3.5846,-4.8752 -3.7498,-8.1253 -0.1654,-3.2501 0.8353,-6.0425 3.0021,-8.3771 z m 109.2453,-40.00088 c 0.5034,-3.00084 2.0878,-5.41809 4.7532,-7.25174 2.665,-1.83354 5.6226,-2.49984 8.8729,-1.9989 3.25,0.50105 5.7931,2.00023 7.6294,4.49752 10.1622,13.66684 19.91,28.66875 29.2435,45.0058 1.6681,2.9958 2.1271,6.1607 1.3771,9.4948 -0.7504,3.334 -2.5421,6.0005 -5.3749,7.9994 -2.6654,1.8361 -5.5404,2.3791 -8.625,1.6289 -3.0851,-0.7502 -5.4591,-2.5419 -7.1221,-5.3749 -9.0029,-16.0014 -18.5879,-31.16862 -28.7552,-45.50174 -1.8312,-2.66515 -2.4975,-5.4982 -1.9989,-8.49914 z m -144.7448,-121.74988 0,182.25096 c -10e-5,3.4994 -1.2093,6.457 -3.6278,8.873 -2.4186,2.416 -5.3775,3.6239 -8.8768,3.624 -3.4994,-10e-5 -6.457,-1.208 -8.873,-3.624 -2.416,-2.416 -3.624,-5.3736 -3.624,-8.873 l 0,-190.75011 c 0,-3.83485 1.4166,-7.16889 4.2496,-10.00213 2.833,-2.83286 6.1671,-4.24938 10.0022,-4.24957 l 55.4962,0 c 2.8329,1.9e-4 5.2502,1.00091 7.2517,3.00216 2.0014,2.00164 3.0021,4.41888 3.0022,7.25174 -10e-5,7.49733 -1.1674,14.2468 -3.5019,20.24841 -1.8362,5.49842 -3.8377,10.66351 -6.0043,15.4953 -0.1629,0.168 -0.1197,0.33585 0.1297,0.50355 0.2491,0.16799 0.539,0.16799 0.8697,0 18.3359,-12.33403 34.8357,-26.41788 49.4995,-42.25159 6.1695,-6.66789 13.5878,-10.00194 22.255,-10.00214 8.6668,2e-4 16.0825,3.33425 22.2473,10.00214 14.8364,15.5031 31.087,29.2538 48.7518,41.25213 3.0007,1.99905 5.1674,4.66553 6.5002,7.99942 1.3324,3.33419 1.4977,6.75088 0.496,10.2501 -0.8293,2.83317 -2.6617,4.83335 -5.497,6.00051 -2.8358,1.16743 -5.5023,0.91693 -7.9994,-0.75149 -0.6666,-0.49833 -2.4162,-1.70631 -5.2491,-3.62396 -2.8332,-1.91739 -5,-3.3746 -6.5002,-4.37165 -0.1681,-0.16771 -0.3766,-0.16898 -0.6256,-0.004 -0.2495,0.16544 -0.3741,0.33201 -0.3739,0.49972 -2e-4,2.50258 -0.875,4.62863 -2.6245,6.37818 -1.7499,1.7498 -3.8759,2.62464 -6.3781,2.62451 l -27.4964,0 c -1.5006,1.3e-4 -2.2508,0.75035 -2.2507,2.25067 l 0,24.49799 c -1e-4,1.3327 0.7501,1.999 2.2507,1.9989 l 49.2478,0 c 3.0006,10e-5 5.5844,1.08347 7.7514,3.25012 2.1665,2.16684 3.2499,4.75066 3.2501,7.75147 -2e-4,3.00097 -1.0836,5.58479 -3.2501,7.75146 -2.167,2.16682 -4.7508,3.2502 -7.7514,3.25012 l -49.2478,0 c -1.5006,8e-5 -2.2508,0.66638 -2.2507,1.9989 l 0,56.74744 c -1e-4,16.6677 -1.5425,26.8758 -4.6272,30.6244 -3.085,3.7485 -11.71,5.6228 -25.8751,5.6228 -5.6662,0 -11.4162,-0.1653 -17.25,-0.4959 -3.3317,-0.1678 -6.1647,-1.4597 -8.4992,-3.8757 -2.3347,-2.416 -3.5846,-5.2071 -3.7498,-8.3733 -0.1654,-3.1662 0.8353,-5.8326 3.0021,-7.9994 2.1667,-2.1667 4.8319,-3.1687 7.9956,-3.006 4.837,0.3357 9.5036,0.5036 14,0.5036 4.3333,0 6.8752,-0.5417 7.6256,-1.6251 0.75,-1.0834 1.1252,-4.8752 1.1253,-11.3754 l 0,-56.74744 c -1e-4,-1.33252 -0.6664,-1.99882 -1.9989,-1.9989 l -53.2532,0 c -1.5005,8e-5 -2.0829,0.7503 -1.7471,2.25067 0.4984,3.99788 0.7476,7.99567 0.7477,11.99341 -10e-5,11.33733 -2.3741,19.88097 -7.1221,25.63095 -4.7481,5.75005 -12.1244,9.03959 -22.129,9.86862 -3.1637,0.16788 -5.9535,-0.74765 -8.3695,-2.74658 -2.416,-1.99887 -3.9571,-4.58269 -4.6234,-7.75146 -0.5036,-2.66517 0.1195,-5.03918 1.8692,-7.12204 1.7496,-2.08278 4.041,-3.37596 6.8741,-3.87955 3.6671,-0.82901 6.209,-2.61937 7.6256,-5.37109 1.4164,-2.75162 2.1247,-7.46149 2.1248,-14.12964 -1e-4,-12.16626 -4.415,-24.24867 -13.2447,-36.24725 -5.6661,-7.66489 -6.3324,-15.49773 -1.9989,-23.49854 8.1634,-15.16709 15.0782,-31.08454 20.7444,-47.75238 0.3356,-1.16458 -0.1629,-1.74696 -1.4954,-1.74713 l -27.0004,0 c -1.3327,1.7e-4 -1.999,0.66647 -1.9989,1.9989 z m 116.745,-8.49915 c -10.8339,12.33436 -21.9169,23.33339 -33.2489,32.99714 -0.3308,0.33584 -0.4554,0.67026 -0.3739,1.00326 0.081,0.3333 0.2898,0.49987 0.6256,0.49973 l 69.2521,0 c 0.3304,1.4e-4 0.5796,-0.16643 0.7476,-0.49973 0.1677,-0.333 0.084,-0.66742 -0.2517,-1.00326 -11.5003,-9.66375 -22.8324,-20.66278 -33.9966,-32.99714 -1.0022,-1.00181 -1.9202,-1.00181 -2.7542,0 z m -75.9964,47.50061 -0.2518,-1.25122 c -0.1679,-0.33555 -0.4604,-0.5034 -0.8774,-0.50354 -0.4171,1.4e-4 -0.7071,0.16799 -0.8697,0.50354 -2.8332,6.50038 -5.918,12.75139 -9.2545,18.75306 -0.6664,1.16487 -0.5824,2.32962 0.2518,3.49426 8.3312,11.33738 13.832,22.17111 16.5024,32.50122 0.1626,0.16793 0.4119,0.25185 0.7476,0.25177 l 0,-1.9989 c 0,-3.83496 1.3745,-7.169 4.1237,-10.00214 2.7491,-2.83295 6.0411,-4.24947 9.8763,-4.24957 l 41.9998,0 c 1.3325,10e-5 1.9988,-0.6662 1.9989,-1.9989 l 0,-24.49799 c -1e-4,-1.50032 -0.6664,-2.25054 -1.9989,-2.25067 l -26.2527,0 c -2.6654,1.3e-4 -4.8728,-0.87471 -6.6224,-2.62451 -1.7497,-1.74955 -2.6246,-3.95952 -2.6245,-6.62995 -10e-5,-0.66616 -0.3332,-0.83146 -0.9994,-0.49591 -2.1669,1.66335 -5.5848,3.9954 -10.2539,6.99616 -2.8332,1.99903 -5.9154,2.33218 -9.2469,0.99945 -3.3315,-1.33247 -5.4144,-3.66452 -6.2484,-6.99616 z"
         id="path2823"
         style="font-family:'Rounded M+ 1m medium';-inkscape-font-specification:'Rounded M+ 1m medium,'" />
      <path
         d="m 1367.2438,958.6106 c -15.8336,-11.00153 -25.6666,-18.58514 -29.499,-22.75086 -3.8326,-4.16557 -5.7488,-9.91558 -5.7488,-17.25006 0,-7.6649 2.0421,-13.66414 6.1264,-17.99774 4.0843,-4.33338 14.2924,-11.83307 30.6244,-22.49909 25.4974,-16.33692 52.5791,-35.58841 81.2454,-57.75451 2.8329,-2.16656 6.0411,-3.08335 9.6245,-2.7504 3.5831,0.33335 6.5421,1.83379 8.8768,4.50134 2.3344,2.66794 3.3352,5.70952 3.0022,9.12476 -0.3333,3.4156 -1.9164,6.20669 -4.7493,8.37326 -29.002,22.50178 -56.2516,41.91857 -81.749,58.25043 -9.9996,6.50035 -16.3333,10.91777 -19.001,13.25226 -2.6678,2.33469 -4.0017,4.83459 -4.0016,7.49969 -10e-5,2.50253 1.2079,4.91978 3.624,7.25174 2.4159,2.33214 8.1252,6.49905 17.128,12.50076 30.6649,20.83339 61.2486,43.99875 91.7511,69.49612 2.665,2.3346 4.0802,5.2109 4.2457,8.6289 0.1651,3.4179 -1.0009,6.3756 -3.4981,8.873 -2.6653,2.6652 -5.8315,4.0397 -9.4986,4.1237 -3.6673,0.084 -6.9174,-1.0415 -9.7503,-3.3761 -29.3326,-24.3326 -58.9169,-46.83168 -88.7528,-67.4972 z"
         id="path2825"
         style="font-family:'Rounded M+ 1m medium';-inkscape-font-specification:'Rounded M+ 1m medium,'" />
    </g>
  </g>
</svg>
