<?xml version="1.0" encoding="UTF-8" standalone="no"?>
<!-- Created with Inkscape (http://www.inkscape.org/) -->

<svg
   xmlns:svg="http://www.w3.org/2000/svg"
   xmlns="http://www.w3.org/2000/svg"
   version="1.1"
   width="1800"
   height="600"
   id="svg5338">
  <defs
     id="defs5340" />
  <g
     transform="translate(0,-772.36217)"
     id="layer1">
    <rect
       width="1800"
       height="600"
       rx="50"
       ry="50"
       x="0"
       y="0"
       transform="translate(0,772.36217)"
       id="rect5348"
       style="color:#000000;fill:#000000;fill-opacity:1;stroke:none;stroke-width:99;marker:none;visibility:visible;display:inline;overflow:visible;enable-background:accumulate" />
    <rect
       width="1770"
       height="570"
       rx="50"
       ry="50"
       x="15"
       y="15"
       transform="translate(0,772.36217)"
       id="rect5860"
       style="color:#000000;fill:#ffffff;fill-opacity:1;fill-rule:nonzero;stroke:none;stroke-width:99;marker:none;visibility:visible;display:inline;overflow:visible;enable-background:accumulate" />
    <g
       transform="scale(0.81481998,1.2272649)"
       id="text2814"
       style="font-size:203.70500183px;font-style:normal;font-weight:normal;text-align:center;text-anchor:middle;fill:#000000;fill-opacity:1;stroke:none;font-family:'Rounded M+ 1m medium';-inkscape-font-specification:'Rounded M+ 1m medium'">
      <path
         d="m 286.50167,679.6538 c -2.58211,-2.5818 -5.70594,-3.87278 -9.3715,-3.87293 -3.66586,1.5e-4 -6.78865,1.29009 -9.36839,3.86982 -2.58002,2.58003 -3.86996,5.70282 -3.86983,9.36839 -1.3e-4,3.66585 1.28981,6.78968 3.86983,9.3715 2.57974,2.58208 5.70253,3.87306 9.36839,3.87293 3.66556,1.3e-4 6.78939,-1.29085 9.3715,-3.87293 2.58179,-2.58182 3.87277,-5.70565 3.87293,-9.3715 -1.6e-4,-3.66557 -1.29114,-6.78733 -3.87293,-9.36528 z m 10.79199,29.53499 c -5.56608,5.56602 -12.28724,8.34898 -20.16349,8.34887 -7.87655,1.1e-4 -14.59875,-2.78388 -20.1666,-8.35198 -5.56811,-5.56786 -8.3521,-12.29006 -8.35198,-20.1666 -1.2e-4,-7.87626 2.78387,-14.59845 8.35198,-20.16659 5.56785,-5.56783 12.29005,-8.35182 20.1666,-8.35198 7.87625,1.6e-4 14.59845,2.78415 20.1666,8.35198 5.56781,5.56814 8.3518,12.29033 8.35197,20.16659 -1.7e-4,7.87654 -2.7852,14.59977 -8.35508,20.16971 z m -29.74014,25.25798 c 1.35922,-2.71448 3.53295,-4.54734 6.5212,-5.49857 2.98795,-0.95104 5.90767,-0.71377 8.75916,0.7118 2.85119,1.42576 4.75346,3.63265 5.70683,6.62066 8.69061,24.44367 16.83847,51.80697 24.4436,82.08998 0.81212,2.98811 0.3697,5.77314 -1.32724,8.35509 -1.69731,2.58195 -4.10623,4.21069 -7.22678,4.88623 l -0.20514,0 c -3.12504,0.67968 -6.0458,0.17095 -8.76228,-1.52617 -2.71681,-1.69713 -4.48128,-4.10812 -5.29342,-7.23299 -7.19896,-28.92366 -14.87228,-55.60728 -23.02001,-80.05095 -1.08596,-2.85539 -0.95127,-5.64042 0.40408,-8.35508 z m -64.7768,-38.29416 c -5.15983,44.81337 -18.12761,87.1151 -38.90337,126.90533 -1.49616,2.85134 -3.77143,4.78677 -6.82581,5.80629 -3.05444,1.01952 -6.0757,0.8496 -9.06378,-0.50976 -2.71874,-1.35936 -4.55263,-3.4989 -5.50168,-6.41862 -0.94908,-2.91971 -0.746,-5.73686 0.60923,-8.45144 19.42057,-37.34504 31.77913,-76.9322 37.0757,-118.76161 0.4061,-2.98797 1.79758,-5.5005 4.17444,-7.53761 2.37675,-2.03682 5.12758,-2.91958 8.25251,-2.64826 3.1248,0.2716 5.67153,1.52838 7.64018,3.77035 1.96851,2.24226 2.81604,4.85736 2.54258,7.84533 z"
         id="path2833" />
      <path
         d="m 514.44513,746.67478 c 2.03885,2.03498 3.05837,4.54544 3.05856,7.5314 -1.9e-4,2.9861 -1.01867,5.49759 -3.05545,7.53449 -2.03715,2.03703 -4.54968,3.05552 -7.53761,3.05545 l -145.85348,0 c -2.98813,7e-5 -5.50066,-1.01842 -7.53761,-3.05545 -2.03698,-2.0369 -3.05546,-4.54839 -3.05545,-7.53449 -10e-6,-2.98596 1.01847,-5.49746 3.05545,-7.5345 2.03695,-2.03689 4.54948,-3.05537 7.53761,-3.05545 l 145.85348,0 c 2.98793,8e-5 5.49942,1.0196 7.5345,3.05855 z"
         id="path2835" />
      <path
         d="m 627.50613,787.81613 -63.3532,2.24419 c -2.58198,0.13266 -4.85725,-0.71694 -6.82581,-2.5488 -1.9686,-1.83178 -3.02128,-4.10705 -3.15802,-6.82581 -0.13679,-2.57776 0.71178,-4.85199 2.54569,-6.8227 1.83387,-1.9706 4.1081,-3.02224 6.8227,-3.15491 l 62.33368,-2.03904 c 1.08988,6e-5 1.63487,-0.61124 1.63496,-1.8339 l -3.66779,-44.20612 c -8e-5,-1.21834 -0.61138,-1.82757 -1.83389,-1.82768 l -49.7078,1.82768 c -2.57784,0.13687 -4.85104,-0.71066 -6.81959,-2.54258 -1.96861,-1.83171 -3.02129,-4.10698 -3.15802,-6.82581 -0.13679,-2.57769 0.71177,-4.85192 2.54569,-6.8227 1.83386,-1.97053 4.10809,-3.02217 6.8227,-3.15492 l 48.68828,-1.63496 c 1.08574,1.3e-4 1.62866,-0.61117 1.62874,-1.83389 l -1.83389,-20.36553 c -0.27361,-3.12472 0.6423,-5.87555 2.74773,-8.25251 2.10526,-2.37665 4.65199,-3.63343 7.64018,-3.77036 3.12477,-0.26922 5.87561,0.64876 8.25252,2.75395 2.3767,2.1055 3.63141,4.65223 3.76414,7.64018 l 1.83389,21.1799 c -1.1e-4,1.0901 0.61119,1.63509 1.83389,1.63496 l 56.83822,-1.83389 c 2.71441,-0.13664 5.02179,0.71192 6.92217,2.54569 1.90002,1.83401 2.91851,4.0409 3.05545,6.62066 0.13659,2.58 -0.71198,4.85423 -2.54569,6.8227 -1.83407,1.96869 -4.1083,3.02137 -6.8227,3.15802 l -55.8187,2.03283 c -1.08595,10e-5 -1.62886,0.6114 -1.62875,1.83389 l 3.66779,44.20612 c -1.2e-4,1.08589 0.61118,1.62881 1.83389,1.62875 l 59.48027,-1.8339 c 2.58177,-0.13255 4.85704,0.71704 6.8258,2.5488 1.96841,1.83188 3.02108,4.10715 3.15803,6.82581 0.13658,2.57786 -0.71198,4.85106 -2.54569,6.81959 -1.83407,1.96863 -4.10831,3.02131 -6.8227,3.15803 l -58.46697,1.83389 c -1.08594,4e-5 -1.62886,0.61134 -1.62874,1.83389 l 3.25749,40.12805 c 0.27341,3.12486 -0.60831,5.8757 -2.64516,8.25251 -2.03708,2.3768 -4.54961,3.63358 -7.53761,3.77036 -3.12497,0.26937 -5.87581,-0.64861 -8.25251,-2.75395 -2.37691,-2.10535 -3.63162,-4.65001 -3.76414,-7.63396 l -3.46264,-40.94864 c -9e-5,-1.22255 -0.61139,-1.83385 -1.83389,-1.83389 z"
         id="path2837" />
      <path
         d="m 836.19682,711.6319 c 0.75003,2.85146 0.37807,5.63545 -1.11588,8.35198 -1.49415,2.71676 -3.66788,4.44807 -6.5212,5.19396 -2.8535,0.74609 -5.63749,0.3731 -8.35198,-1.11899 -13.17093,-7.60484 -27.49807,-15.34655 -42.98145,-23.22515 -2.71461,-1.35509 -4.51328,-3.39102 -5.396,-6.10779 -0.88278,-2.71652 -0.64655,-5.43212 0.70869,-8.14684 1.49609,-2.71857 3.70401,-4.5535 6.62377,-5.50478 2.91968,-0.95099 5.73683,-0.74688 8.45145,0.61233 15.75276,8.01124 30.21666,15.81926 43.39175,23.42409 2.71448,1.49624 4.44476,3.66997 5.19085,6.52119 z m -53.67398,96.96627 c 34.3569,-4.62097 61.51713,-15.2824 81.48075,-31.98432 19.96338,-16.70182 33.7476,-40.26265 41.35271,-70.68255 0.67952,-2.7186 2.24195,-4.82498 4.68731,-6.31916 2.44501,-1.49392 5.02489,-1.96949 7.73964,-1.42671 2.85116,0.67981 5.05805,2.17386 6.62067,4.48216 1.56224,2.30855 2.072,4.88843 1.52928,7.73965 -15.753,69.80399 -62.47057,109.52791 -140.15288,119.1719 -2.98814,0.40615 -5.6364,-0.30772 -7.94479,-2.14161 -2.30846,-1.83389 -3.66575,-4.24489 -4.07186,-7.233 -0.40618,-2.85133 0.2393,-5.39702 1.93646,-7.63707 1.69709,-2.24003 3.97133,-3.56312 6.82271,-3.96929 z"
         id="path2839" />
      <path
         d="m 1141.4497,686.16878 c -0.6799,2.30856 -2.1055,3.93834 -4.277,4.88934 -2.1718,0.95127 -4.4119,1.05281 -6.7201,0.30461 -2.3086,-0.74792 -4.0058,-2.20778 -5.0914,-4.37958 -1.7657,-3.39411 -4.5507,-8.48756 -8.3551,-15.28036 -1.086,-2.03474 -1.3233,-4.20639 -0.7118,-6.51498 0.6111,-2.30826 2.0026,-3.93907 4.1745,-4.89245 2.1714,-1.08566 4.4125,-1.32293 6.7232,-0.7118 2.3103,0.61147 4.0748,2.00501 5.2934,4.18065 3.1247,5.70284 5.9097,10.93098 8.3551,15.68444 1.0856,2.17181 1.2887,4.41185 0.6092,6.72013 z m -129.3484,26.68779 c -7.0621,18.06134 -17.72356,34.62852 -31.98435,49.70158 -1.90231,2.03911 -4.27911,3.12597 -7.13042,3.2606 -2.85137,0.13476 -5.36286,-0.74903 -7.5345,-2.65137 -2.03906,-1.76544 -3.12592,-4.00548 -3.2606,-6.72013 -0.13471,-2.7145 0.6807,-5.02292 2.44623,-6.92527 18.33059,-20.23695 30.00947,-43.46001 35.03666,-69.66925 0.54288,-2.85119 1.93438,-5.1938 4.17448,-7.02785 2.2399,-1.83373 4.854,-2.6823 7.8422,-2.54569 2.8512,0.27369 5.1939,1.46209 7.0278,3.56521 1.8338,2.10343 2.5477,4.51443 2.1416,7.233 -0.4103,2.1718 -1.0216,5.2946 -1.8339,9.36839 -0.2736,1.08596 0.1326,1.62888 1.2185,1.62874 l 75.575,0 c 1.0857,1.4e-4 1.3571,-0.54278 0.8144,-1.62874 -0.9492,-1.76537 -2.4081,-4.44783 -4.3765,-8.04737 -1.9687,-3.59925 -3.4296,-6.2817 -4.3827,-8.04737 -1.086,-2.03474 -1.289,-4.10486 -0.6092,-6.21036 0.6795,-2.10519 2.0368,-3.70078 4.0718,-4.78677 2.1757,-1.08567 4.4178,-1.28874 6.7264,-0.60923 2.3083,0.67985 4.0054,2.03713 5.0914,4.07187 3.3941,6.11312 6.3822,11.74949 8.9643,16.9091 0.8121,1.62889 0.9126,3.32601 0.3015,5.09138 -0.6115,1.76565 -1.7315,3.05663 -3.3601,3.87293 -0.5431,0.13276 -0.8145,0.60729 -0.8144,1.4236 -1e-4,44.68075 -9.9819,78.19017 -29.9452,100.52837 -19.9637,22.33827 -51.8775,36.02095 -95.74163,41.0481 -2.71461,0.26938 -5.15876,-0.44449 -7.33246,-2.14161 -2.17376,-1.69713 -3.4637,-3.90402 -3.86983,-6.62066 -0.40617,-2.71665 0.17093,-5.09345 1.73132,-7.13042 1.56033,-2.03696 3.63149,-3.19014 6.21348,-3.45953 35.44272,-4.34745 61.38042,-14.46597 77.81302,-30.35558 16.4323,-15.88953 25.8028,-40.19842 28.1113,-72.92674 -10e-5,-1.08571 -0.543,-1.62863 -1.6287,-1.62874 l -69.259,0 c -1.0859,1.1e-4 -1.8318,0.47672 -2.2379,1.42981 z"
         id="path2841" />
      <path
         d="m 1213.158,750.5415 0,7.32935 c 0,3.12494 -1.1553,5.84158 -3.4657,8.14994 -2.3106,2.30849 -5.0262,3.4627 -8.1469,3.46264 l -7.3355,0 c -3.1208,6e-5 -5.8364,-1.15415 -8.1469,-3.46264 -2.3105,-2.30836 -3.4657,-5.025 -3.4657,-8.14994 l 0,-7.32935 c 0,-3.12479 1.1552,-5.84143 3.4657,-8.14994 2.3105,-2.30834 5.0261,-3.46255 8.1469,-3.46264 l 7.3355,0 c 3.1207,9e-5 5.8363,1.1543 8.1469,3.46264 2.3104,2.30851 3.4657,5.02515 3.4657,8.14994 z"
         id="path2843" />
      <path
         d="m 1302.5836,816.54296 c 13.7137,-3.80453 23.9317,-9.71339 30.654,-17.72658 6.7221,-8.01314 10.9659,-19.55629 12.7315,-34.62948 0.2735,-1.22253 -0.2694,-1.83383 -1.6287,-1.83389 l -70.6825,0 c -2.582,6e-5 -4.8231,-0.95004 -6.7233,-2.85031 -1.9002,-1.90013 -2.8503,-4.20855 -2.8503,-6.92527 0,-2.71657 0.9159,-4.99184 2.7477,-6.82581 1.8318,-1.83381 4.1071,-2.75075 6.8259,-2.75084 l 71.702,0 c 1.2225,9e-5 1.8338,-0.61121 1.8339,-1.83389 l 0,-34.42122 c -10e-5,-1.08985 -0.6114,-1.63484 -1.8339,-1.63496 -15.6161,1.35948 -32.3201,2.10754 -50.1119,2.24419 -2.7146,1.2e-4 -5.023,-0.95102 -6.9252,-2.85342 -1.9023,-1.90215 -2.8535,-4.21057 -2.8534,-6.92527 -10e-5,-2.71444 0.9511,-4.98867 2.8534,-6.8227 1.9022,-1.83375 4.1422,-2.7507 6.7201,-2.75084 23.3577,-0.13662 43.3886,-1.32503 60.0926,-3.56521 16.7038,-2.2399 33.0006,-5.8051 48.8903,-10.69563 2.7186,-0.81215 5.2995,-0.60804 7.7428,0.61233 2.4429,1.22068 4.0727,3.12191 4.8893,5.70372 0.8121,2.71472 0.608,5.26041 -0.6123,7.63707 -1.2207,2.37694 -3.1219,3.97357 -5.7037,4.78988 -13.7181,4.34345 -26.9594,7.53462 -39.724,9.57354 -1.0859,0.26951 -1.6289,0.94919 -1.6287,2.03904 l 0,37.06948 c -2e-4,1.22268 0.5428,1.83398 1.6287,1.83389 l 57.0372,0 c 2.7185,9e-5 4.9938,0.91703 6.8258,2.75084 1.8316,1.83397 2.7475,4.10924 2.7477,6.82581 -2e-4,2.71672 -0.9503,5.02514 -2.8503,6.92527 -1.9004,1.90027 -4.1415,2.85037 -6.7232,2.85031 l -57.8516,0 c -0.9492,6e-5 -1.5605,0.54298 -1.8339,1.62874 -2.1717,20.50648 -7.977,36.39605 -17.4157,47.66876 -9.439,11.27275 -23.4604,19.28591 -42.0645,24.03953 -2.7147,0.67967 -5.2945,0.30564 -7.7397,-1.12209 -2.4452,-1.42775 -4.076,-3.49891 -4.8924,-6.21348 -0.8124,-2.58195 -0.5399,-5.02714 0.8175,-7.33557 1.3572,-2.30841 3.3268,-3.80039 5.9088,-4.47594 z"
         id="path2845" />
      <path
         d="m 1519.934,678.01884 c -0.8124,5.70697 -1.8298,11.20656 -3.0524,16.49881 -0.2736,1.09011 0.1326,1.63509 1.2185,1.63496 l 113.2599,0 c 2.7185,1.3e-4 4.9938,0.91604 6.8258,2.74773 1.8316,1.83195 2.7476,4.10618 2.7477,6.8227 -1e-4,2.71677 -0.9502,5.02623 -2.8503,6.92838 -1.9003,1.90239 -4.1414,2.85353 -6.7232,2.85342 l -37.6849,0 c -1.086,1.1e-4 -1.6289,0.54302 -1.6288,1.62874 -0.2695,33.67738 -6.2778,59.71655 -18.0249,78.11759 -11.7474,18.4011 -30.2511,30.79281 -55.511,37.17516 -2.7188,0.67968 -5.3339,0.34088 -7.8454,-1.01641 -2.5115,-1.35729 -4.1755,-3.39322 -4.9919,-6.10779 -0.8123,-2.44518 -0.5398,-4.82199 0.8175,-7.13042 1.3572,-2.30841 3.3269,-3.80246 5.9089,-4.48216 20.2328,-5.57004 34.8314,-15.79009 43.7958,-30.66019 8.9642,-14.87 13.581,-36.76686 13.8505,-65.69063 -1e-4,-1.22249 -0.543,-1.83378 -1.6287,-1.83389 l -56.2228,0 c -1.0859,1.1e-4 -1.9002,0.6114 -2.4431,1.83389 -5.4333,14.12003 -12.9036,27.22457 -22.4108,39.31367 -1.8981,2.30849 -4.2397,3.69997 -7.0247,4.17444 -2.7851,0.4746 -5.4002,-0.10251 -7.8453,-1.73132 -2.1717,-1.49191 -3.4948,-3.59622 -3.9693,-6.31294 -0.4746,-2.71657 0.1025,-5.16279 1.7313,-7.33868 14.8037,-19.95927 24.3772,-42.84042 28.7206,-68.64351 0.5429,-2.85119 1.9354,-5.22799 4.1775,-7.13042 2.2421,-1.90212 4.7888,-2.78487 7.6402,-2.64827 2.8513,0.26955 5.1939,1.45691 7.0279,3.5621 1.8338,2.10551 2.5456,4.58385 2.1354,7.43504 z"
         id="path2847" />
      <path
         d="m 1725.2677,815.3183 c 27.7051,-4.7536 47.2956,-14.02252 58.7715,-27.80678 11.4757,-13.78418 17.9596,-36.29441 19.4517,-67.53074 0.1367,-2.71447 1.2235,-5.02185 3.2606,-6.92217 2.0369,-1.90009 4.4126,-2.78388 7.1273,-2.65137 2.8554,0.13688 5.2332,1.22374 7.1336,3.2606 1.9,2.03707 2.7817,4.48123 2.6451,7.33246 -1.7656,36.25932 -9.8793,62.91083 -24.341,79.95458 -14.462,17.04381 -37.9223,28.07927 -70.381,33.10642 -2.5779,0.40614 -4.9195,-0.13781 -7.0248,-1.63186 -2.1054,-1.49405 -3.4979,-3.59836 -4.1775,-6.31294 -0.543,-2.58195 -0.067,-4.9256 1.4267,-7.03095 1.494,-2.10534 3.5299,-3.36109 6.1078,-3.76725 z m -9.9776,-44.00098 c -2.7188,0.54297 -5.2666,0.0674 -7.6433,-1.42671 -2.3769,-1.49399 -3.9031,-3.5983 -4.5785,-6.31294 -3.3985,-13.58108 -6.455,-25.25996 -9.1695,-35.03666 -0.6797,-2.58185 -0.3399,-4.99285 1.0195,-7.23299 1.3593,-2.23994 3.3963,-3.6998 6.1109,-4.37959 2.7145,-0.5428 5.2602,-0.10142 7.6371,1.32414 2.3767,1.42577 3.9734,3.49589 4.7899,6.21036 3.8003,13.31187 6.9231,24.92444 9.3684,34.83774 0.6796,2.57787 0.2724,5.05518 -1.2216,7.43192 -1.4941,2.37687 -3.5984,3.90511 -6.3129,4.58473 z m 42.7763,-52.15092 c 2.445,8.69503 5.5678,20.78213 9.3684,36.26133 0.6795,2.71465 0.3065,5.26034 -1.119,7.63708 -1.4258,2.37687 -3.4959,3.83672 -6.2104,4.37958 -2.7188,0.67974 -5.2997,0.27255 -7.7428,-1.22156 -2.4432,-1.49399 -4.0046,-3.5983 -4.6841,-6.31294 -3.5312,-13.98723 -6.7223,-26.20902 -9.5736,-36.66541 -0.6797,-2.58185 -0.3068,-5.02703 1.119,-7.33557 1.4256,-2.30831 3.4967,-3.80236 6.2135,-4.48215 2.7165,-0.67957 5.3306,-0.23819 7.8422,1.32413 2.5114,1.56255 4.107,3.70105 4.7868,6.41551 z"
         id="path2849" />
      <path
         d="m 1931.2169,752.57432 0,73.94626 c 0,3.12487 -1.0869,5.77313 -3.2606,7.94479 -2.1738,2.17165 -4.822,3.25748 -7.9448,3.25749 -3.1228,-10e-6 -5.7711,-1.08584 -7.9447,-3.25749 -2.1738,-2.17166 -3.2607,-4.81992 -3.2606,-7.94479 l 0,-144.62881 c -10e-5,-3.12472 1.0868,-5.77298 3.2606,-7.94479 2.1736,-2.17151 4.8219,-3.25734 7.9447,-3.25749 3.1228,1.5e-4 5.771,1.08598 7.9448,3.25749 2.1737,2.17181 3.2606,4.82007 3.2606,7.94479 l 0,45.42457 c 0,1.2227 0.4745,1.90238 1.4236,2.03904 33.9508,8.28473 67.6301,18.40117 101.0382,30.34936 2.7144,0.95328 4.7171,2.78717 6.0083,5.50168 1.2908,2.71463 1.4617,5.49759 0.5129,8.34887 -0.9534,2.71877 -2.7542,4.72258 -5.4023,6.01144 -2.6484,1.28895 -5.3298,1.45887 -8.0442,0.50976 -31.2364,-11.27268 -62.5389,-20.84621 -93.9077,-28.72062 -1.0859,-0.27345 -1.6288,0.1327 -1.6288,1.21845 z"
         id="path2851" />
    </g>
    <g
       id="text2814-4"
       style="font-size:250px;font-style:normal;font-weight:normal;text-align:center;text-anchor:middle;fill:#000000;fill-opacity:1;stroke:none;font-family:Arphic Round-Gothic Medium JIS;-inkscape-font-specification:Arphic Round-Gothic Medium JIS">
      <path
         d="m 208.49457,1253.8639 c -10.4981,4.9998 -22.74835,9.8318 -36.7508,14.4958 -3.16367,1.0021 -6.24595,0.8355 -9.24682,-0.4997 -3.00091,-1.3351 -5.08373,-3.5845 -6.24848,-6.7482 -1.16985,-2.833 -1.08847,-5.666 0.24414,-8.4991 1.33259,-2.833 3.49934,-4.7505 6.50025,-5.7526 28.83398,-9.3332 52.41896,-20.3323 70.755,-32.9971 0.33052,-0.1678 0.45386,-0.4183 0.37003,-0.7515 -0.084,-0.3331 -0.29128,-0.4997 -0.6218,-0.4997 l -64.00299,0 c -2.83307,0 -5.33296,-1.0414 -7.49969,-3.1243 -2.16676,-2.0827 -3.25014,-4.5407 -3.25012,-7.3738 -2e-5,-2.8329 1.08336,-5.3328 3.25012,-7.4997 2.16673,-2.1666 4.66662,-3.25 7.49969,-3.2501 l 84.50318,0 c 1.50033,10e-5 2.25056,-0.7501 2.25067,-2.2507 l 0,-13.7558 c -1.1e-4,-1.4952 -0.75034,-2.2429 -2.25067,-2.243 l -62.5,0 c -2.8331,10e-5 -5.25034,-1.0006 -7.25174,-3.0022 -2.00148,-2.0013 -3.00221,-4.4185 -3.00217,-7.2517 -4e-5,-2.8329 1.00069,-5.2489 3.00217,-7.248 2.0014,-1.9987 4.41864,-2.9982 7.25174,-2.9983 l 62.5,0 c 1.50033,10e-5 2.25056,-0.6687 2.25067,-2.0065 l 0,-14 c -1.1e-4,-1.3324 -0.75034,-1.9987 -2.25067,-1.9989 l -74.24927,0 c -3.00093,2e-4 -5.58475,-1.0832 -7.75147,-3.2501 -2.16677,-2.1666 -3.25014,-4.7491 -3.25012,-7.7476 -2e-5,-2.9982 1.08335,-5.5808 3.25012,-7.7477 2.16672,-2.1666 4.75054,-3.2499 7.75147,-3.2501 l 74.24927,0 c 1.50033,2e-4 2.25056,-0.6661 2.25067,-1.9989 l 0,-8.0033 c -1.1e-4,-3.667 1.37445,-6.8751 4.12369,-9.6244 2.749,-2.749 5.95716,-4.1235 9.62448,-4.1237 3.66706,2e-4 6.87522,1.3747 9.62448,4.1237 2.74899,2.7493 4.12355,5.9574 4.12369,9.6244 l 0,8.0033 c -1.4e-4,1.3328 0.75008,1.9991 2.25067,1.9989 l 74.24927,0 c 3.00067,2e-4 5.58449,1.0835 7.75146,3.2501 2.16652,2.1669 3.2499,4.7495 3.25012,7.7477 -2.2e-4,2.9985 -1.0836,5.581 -3.25012,7.7476 -2.16697,2.1669 -4.75079,3.2503 -7.75146,3.2501 l -74.24927,0 c -1.50059,2e-4 -2.25081,0.6665 -2.25067,1.9989 l 0,14 c -1.4e-4,1.3378 0.75008,2.0066 2.25067,2.0065 l 62.5,0 c 2.83284,10e-5 5.25008,0.9996 7.25174,2.9983 2.00123,1.9991 3.00195,4.4151 3.00216,7.248 -2.1e-4,2.8332 -1.00093,5.2504 -3.00216,7.2517 -2.00166,2.0016 -4.4189,3.0023 -7.25174,3.0022 l -62.5,0 c -1.50059,10e-5 -2.25081,0.7478 -2.25067,2.243 l 0,13.7558 c -1.4e-4,1.5006 0.75008,2.2508 2.25067,2.2507 l 84.50317,0 c 2.83282,10e-5 5.33272,1.0835 7.4997,3.2501 2.16651,2.1669 3.24988,4.6668 3.25012,7.4997 -2.4e-4,2.8331 -1.08361,5.2911 -3.25012,7.3738 -2.16698,2.0829 -4.66688,3.1243 -7.4997,3.1243 l -12.25281,0 c -0.33082,0 -0.58004,0.1666 -0.74768,0.4997 -0.16806,0.3332 -0.0841,0.5837 0.25177,0.7515 l 4.24958,3.4942 c 2.99558,2.5026 4.61937,5.7539 4.87136,9.7542 0.25155,4.0004 -0.95771,7.4171 -3.62777,10.2501 -8.82996,9.1655 -18.82955,18.3309 -29.99878,27.4963 -1.33279,1.0021 -1.33279,2.0041 0,3.006 12.16614,9.4961 26.58314,17.746 43.25104,24.7498 3.00066,1.1647 5.00083,3.2883 6.00051,6.3705 0.99922,3.0823 0.66734,5.9586 -0.99563,8.6289 -2.00422,3.0009 -4.58931,5.1256 -7.75528,6.3743 -3.16643,1.2487 -6.4992,1.2067 -9.99832,-0.1258 -22.33398,-9.1655 -41.91734,-22.124 -58.75016,-38.8756 -16.83313,-16.7516 -29.5831,-35.8772 -38.24996,-57.3769 -0.16797,-0.4984 -0.50112,-0.7896 -0.99946,-0.8736 -0.49857,-0.084 -0.91564,0.042 -1.25122,0.3777 -7.66511,7.1666 -15.99894,13.7482 -25.00152,19.7449 -1.3327,0.8342 -1.999,1.9176 -1.9989,3.2501 l 0,45.5017 c -1e-4,1.6683 0.75013,2.3346 2.25067,1.9989 9.50103,-1.1647 25.0014,-3.6646 46.50116,-7.4997 3.00075,-0.4984 5.75114,0.1272 8.25119,1.8768 2.49974,1.7497 3.99892,4.125 4.49753,7.1259 0.4983,3.0009 -0.12731,5.7933 -1.87684,8.3771 -1.74982,2.5838 -4.1251,4.1249 -7.12585,4.6234 -35.83283,6.6681 -71.5816,11.5 -107.2464,14.4958 -3.16878,0.3357 -6.00309,-0.4972 -8.50296,-2.4986 -2.49992,-2.0015 -3.83125,-4.584 -3.99399,-7.7476 -0.33572,-3.0009 0.49589,-5.7513 2.49482,-8.2512 1.99887,-2.4999 4.49876,-3.8338 7.49969,-4.0017 6.33236,-0.4984 15.83349,-1.4139 28.50342,-2.7465 1.16469,-0.1679 1.74706,-0.9181 1.74713,-2.2507 l 0,-34.0042 c -7e-5,-1.4953 -0.66637,-1.9099 -1.9989,-1.2436 z m 107.49817,-5.2567 c 13.16815,-10.3301 25.08525,-21.7462 35.75134,-34.2483 0.83394,-1.1647 0.58471,-1.7471 -0.74768,-1.7471 l -58.25043,0 c -1.50059,0 -1.91767,0.5824 -1.25122,1.7471 5.83379,12.6699 13.00033,24.0047 21.49963,34.0042 0.83398,0.997 1.83343,1.0783 2.99836,0.2441 z"
         id="path2820"
         style="font-family:'Rounded M+ 1m medium';-inkscape-font-specification:'Rounded M+ 1m medium'" />
      <path
         d="m 429.99878,1114.864 c -4e-5,-3.3364 1.12403,-6.1301 3.37219,-8.3809 2.24809,-2.2505 4.95652,-3.3758 8.12531,-3.376 l 156.99768,0 c 3.16853,2e-4 5.87697,1.1255 8.1253,3.376 2.24792,2.2508 3.37198,5.0445 3.3722,8.3809 -2.2e-4,3.1638 -1.08232,5.8709 -3.24631,8.1214 -2.16442,2.2509 -4.91481,3.3762 -8.25119,3.3761 l -156.99768,0 c -3.33663,10e-5 -6.08703,-1.1252 -8.25119,-3.3761 -2.16424,-2.2505 -3.24635,-4.9576 -3.24631,-8.1214 z m 67.49725,176.4984 c 6.00168,0 9.58495,-0.6256 10.74982,-1.8769 1.16464,-1.2512 1.74702,-5.043 1.74713,-11.3754 l 0,-88.9969 c -1.1e-4,-1.3325 -0.66641,-1.9988 -1.9989,-1.9989 l -86.50208,0 c -3.16367,10e-5 -5.87084,-1.1252 -8.12149,-3.376 -2.25068,-2.2505 -3.37602,-5.0442 -3.376,-8.3809 -2e-5,-3.1635 1.08335,-5.8707 3.25012,-8.1215 2.16673,-2.2505 4.91585,-3.3758 8.24737,-3.376 l 197.00623,0 c 3.33128,2e-4 6.0804,1.1255 8.24738,3.376 2.16651,2.2508 3.24988,4.958 3.25012,8.1215 -2.4e-4,3.3367 -1.12557,6.1304 -3.37601,8.3809 -2.2509,2.2508 -4.95806,3.3761 -8.12149,3.376 l -79.00238,0 c -1.33274,10e-5 -1.99904,0.6664 -1.9989,1.9989 l 0,89.7446 c -1.4e-4,16.4998 -1.8757,26.6673 -5.62668,30.5023 -3.75125,3.835 -13.70887,5.7526 -29.87289,5.7526 -5.3356,0 -14.17043,-0.2518 -26.50452,-0.7553 -3.33158,-0.1628 -6.20532,-1.4115 -8.62122,-3.7461 -2.41604,-2.3346 -3.70795,-5.1676 -3.87573,-8.4991 -0.16791,-3.1688 0.91546,-5.9192 3.25012,-8.2512 2.33452,-2.3321 5.16757,-3.4167 8.49915,-3.2539 10.83365,0.5035 18.41726,0.7553 22.75085,0.7553 z m -30.99823,-66.0019 c -7.67015,21.6675 -17.58835,41.7506 -29.75464,60.2493 -1.99894,3.0009 -4.74806,4.9184 -8.24737,5.7526 -3.49938,0.8341 -6.83342,0.417 -10.00214,-1.2513 -3.00091,-1.5004 -4.95912,-3.8757 -5.87463,-7.1258 -0.91555,-3.2501 -0.45778,-6.2917 1.37329,-9.1248 11.8357,-19.0022 21.25291,-38.0019 28.25165,-56.9992 1.33255,-3.3314 3.54126,-5.7893 6.62613,-7.3738 3.08476,-1.5843 6.29292,-1.7928 9.62448,-0.6256 3.33143,1.1674 5.78937,3.3761 7.37381,6.6261 1.5843,3.2502 1.7941,6.541 0.62942,9.8725 z m 110.74829,-15.7471 c 3.16347,-1.6682 6.49624,-2.0446 9.99833,-1.1291 3.50169,0.9156 6.16816,2.9577 7.99942,6.1264 12.66966,20.8334 23.50339,41.0843 32.50122,60.7528 1.50021,3.3315 1.62482,6.6224 0.37384,9.8725 -1.25146,3.2501 -3.54282,5.6254 -6.87409,7.1258 -3.33172,1.3326 -6.62253,1.3733 -9.87243,0.1221 -3.25034,-1.2512 -5.62562,-3.5426 -7.12586,-6.8741 -9.66918,-20.6655 -20.25369,-40.4993 -31.75354,-59.5016 -1.66338,-2.833 -2.03722,-5.9153 -1.12152,-9.2469 0.91535,-3.3314 2.87356,-5.7474 5.87463,-7.2479 z"
         id="path2822"
         style="font-family:'Rounded M+ 1m medium';-inkscape-font-specification:'Rounded M+ 1m medium'" />
      <path
         d="m 872.99194,1187.1143 -10.24627,0 c -1.50067,10e-5 -2.25089,0.6664 -2.25067,1.9989 l 0,18.9972 c -2.2e-4,1.3327 0.75,1.999 2.25067,1.9989 l 10.24627,0 c 3.16851,10e-5 5.87822,1.0835 8.12912,3.2501 2.25044,2.1669 3.37577,4.8333 3.37601,7.9995 -2.4e-4,3.1662 -1.12557,5.8327 -3.37601,7.9994 -2.2509,2.1668 -4.96061,3.2502 -8.12912,3.2501 l -10.24627,0 c -1.50067,10e-5 -2.25089,0.6664 -2.25067,1.9989 l 0,46.0052 c -2.2e-4,6.3325 -0.0841,11.2903 -0.25177,14.8736 -0.16807,3.5832 -0.75171,6.958 -1.75095,10.1242 -0.99966,3.1661 -2.16569,5.4155 -3.49808,6.7482 -1.33281,1.3325 -3.49955,2.5405 -6.50024,3.6239 -3.0011,1.0834 -6.20926,1.709 -9.62448,1.8769 -3.41562,0.1678 -8.0403,0.2517 -13.87406,0.2517 -7.33456,0 -14.0001,-0.1678 -19.99664,-0.5035 -3.33675,-0.1628 -6.13037,-1.3695 -8.38089,-3.6202 -2.25082,-2.2507 -3.45754,-5.0417 -3.62015,-8.3732 -0.16799,-3.0009 0.87342,-5.5428 3.12424,-7.6256 2.25052,-2.0828 4.87375,-3.0429 7.86972,-2.8801 5.16748,0.3357 10.66827,0.5035 16.50238,0.5035 6.50006,0 10.33383,-0.6256 11.50131,-1.8768 1.16711,-1.2512 1.75076,-5.3762 1.75095,-12.3749 l 0,-46.7529 c -1.9e-4,-1.3325 -0.75041,-1.9988 -2.25067,-1.9989 l -76.49994,0 c -3.16885,10e-5 -5.83659,-1.0833 -8.00324,-3.2501 -2.16685,-2.1667 -3.25022,-4.8332 -3.25012,-7.9994 -1e-4,-3.1662 1.08327,-5.8326 3.25012,-7.9995 2.16665,-2.1666 4.83439,-3.25 8.00324,-3.2501 l 76.49994,0 c 1.50026,10e-5 2.25048,-0.6662 2.25067,-1.9989 l 0,-18.9972 c -1.9e-4,-1.3325 -0.75041,-1.9988 -2.25067,-1.9989 l -76.49994,0 c -3.16885,10e-5 -5.83659,-1.1252 -8.00324,-3.376 -2.16685,-2.2505 -3.25022,-4.959 -3.25012,-8.1253 -1e-4,-3.1661 1.08327,-5.7918 3.25012,-7.8773 2.16665,-2.0853 4.83439,-3.128 8.00324,-3.1281 l 43.50281,0 c 1.33244,10e-5 1.99874,-0.7475 1.9989,-2.243 l 0,-23.2544 c -1.6e-4,-1.3325 -0.66646,-1.9988 -1.9989,-1.9989 l -33.25654,0 c -2.99592,10e-5 -5.53651,-1.0832 -7.62176,-3.2502 -2.08548,-2.1665 -3.12816,-4.7504 -3.12805,-7.7514 -1.1e-4,-3.0007 1.04257,-5.5846 3.12805,-7.7515 2.08525,-2.1666 4.62584,-3.2499 7.62176,-3.2501 l 33.25654,0 c 1.33244,2e-4 1.99874,-0.6661 1.9989,-1.9989 l 0,-9.4986 c -1.6e-4,-3.667 1.33244,-6.8332 3.9978,-9.4986 2.66504,-2.665 5.83123,-3.9976 9.4986,-3.9978 3.66702,2e-4 6.83449,1.3328 9.50241,3.9978 2.66756,2.6654 4.00143,5.8316 4.00161,9.4986 l 0,9.4986 c -1.8e-4,1.3328 0.66612,1.9991 1.99891,1.9989 l 35.2478,0 c 3.00067,2e-4 5.54253,1.0835 7.62558,3.2501 2.08259,2.1669 3.124,4.7508 3.12423,7.7515 -2.3e-4,3.001 -1.04164,5.5849 -3.12423,7.7514 -2.08305,2.167 -4.62491,3.2503 -7.62558,3.2502 l -35.2478,0 c -1.33279,10e-5 -1.99909,0.6664 -1.99891,1.9989 l 0,23.2544 c -1.8e-4,1.4955 0.66612,2.2431 1.99891,2.243 l 43.49517,0 c 3.16851,10e-5 5.87822,1.0428 8.12912,3.1281 2.25044,2.0855 3.37577,4.7112 3.37601,7.8773 -2.4e-4,3.1663 -1.12557,5.8748 -3.37601,8.1253 -2.2509,2.2508 -4.96061,3.3761 -8.12912,3.376 z m -185.99701,112.4954 0,0.5036 c -4e-5,3.4993 -1.20802,6.457 -3.62396,8.873 -2.41601,2.4159 -5.37494,3.6239 -8.8768,3.6239 -3.50192,0 -6.46085,-1.208 -8.8768,-3.6239 -2.41599,-2.416 -3.62398,-5.3737 -3.62396,-8.873 l 0,-180.7556 c -2e-5,-3.8298 1.37581,-7.1613 4.1275,-9.9945 2.75165,-2.8329 6.04245,-4.2494 9.87244,-4.2496 l 46.00525,0 c 3.82987,2e-4 7.16137,1.4167 9.9945,4.2496 2.83296,2.8332 4.24948,6.1647 4.24958,9.9945 l 0,164.0014 c -10e-5,3.8351 -1.41662,7.1691 -4.24958,10.0022 -2.83313,2.833 -6.16463,4.2495 -9.9945,4.2495 l -33.25653,0 c -1.1648,0 -1.74718,0.6663 -1.74714,1.9989 z m 0,-169.2504 0,54.5043 c -4e-5,1.5006 0.66626,2.2508 1.99891,2.2507 l 20.75195,0 c 1.50038,10e-5 2.2506,-0.7501 2.25067,-2.2507 l 0,-54.5043 c -7e-5,-1.5003 -0.75029,-2.2505 -2.25067,-2.2507 l -20.75195,0 c -1.33265,2e-4 -1.99895,0.7504 -1.99891,2.2507 z m 0,81.253 0,61.5006 c -4e-5,1.3326 0.66626,1.9989 1.99891,1.9989 l 20.75195,0 c 1.50038,0 2.2506,-0.6663 2.25067,-1.9989 l 0,-61.5006 c -7e-5,-1.3325 -0.75029,-1.9988 -2.25067,-1.9989 l -20.75195,0 c -1.33265,10e-5 -1.99895,0.6664 -1.99891,1.9989 z m 91.00342,32.5012 c 6.16441,5.6662 13.1631,12.7488 20.9961,21.2479 2.33443,2.4974 3.45977,5.4131 3.376,8.7471 -0.0841,3.3341 -1.37472,6.1684 -3.87191,8.503 -2.33475,2.1667 -5.16907,3.2081 -8.50297,3.1242 -3.33418,-0.084 -6.1685,-1.2932 -8.50296,-3.6278 -7.66512,-8.3313 -14.57989,-15.33 -20.74432,-20.9961 -2.33471,-2.3345 -3.58593,-5.0849 -3.75366,-8.2512 -0.16796,-3.1661 0.91541,-5.9165 3.25012,-8.2512 2.50232,-2.3345 5.46126,-3.5845 8.8768,-3.7498 3.4153,-0.1653 6.37423,0.9194 8.8768,3.2539 z"
         id="path2824"
         style="font-family:'Rounded M+ 1m medium';-inkscape-font-specification:'Rounded M+ 1m medium'" />
      <path
         d="m 1077.9938,1121.3642 0,132.4997 c -2e-4,3.4994 -1.2082,6.457 -3.624,8.873 -2.4161,2.416 -5.3738,3.624 -8.873,3.6239 -3.4995,10e-5 -6.4584,-1.2079 -8.8768,-3.6239 -2.4187,-2.416 -3.6279,-5.3736 -3.6278,-8.873 l 0,-132.4997 c -10e-5,-3.5043 1.2091,-6.4645 3.6278,-8.8806 2.4184,-2.4158 5.3773,-3.6238 8.8768,-3.624 3.4992,2e-4 6.4569,1.2082 8.873,3.624 2.4158,2.4161 3.6238,5.3763 3.624,8.8806 z m 25.0015,158.7448 0,-168.4952 c -2e-4,-3.5042 1.2917,-6.5064 3.8757,-9.0065 2.5836,-2.4997 5.6252,-3.7496 9.1248,-3.7498 3.4991,2e-4 6.4987,1.2501 8.9989,3.7498 2.4996,2.5001 3.7496,5.5023 3.7498,9.0065 l 0,169.7464 c -2e-4,16.332 -1.7499,26.4562 -5.249,30.3726 -3.4996,3.9165 -12.5836,5.8747 -27.2522,5.8747 -6.8311,0 -13.5805,-0.1653 -20.2484,-0.4959 -3.4996,-0.1679 -6.4992,-1.5018 -8.9989,-4.0016 -2.5001,-2.5 -3.8339,-5.4996 -4.0016,-8.9989 -0.168,-3.1688 0.9573,-5.9192 3.376,-8.2512 2.4183,-2.3321 5.2933,-3.4142 8.625,-3.2463 5.6659,0.3306 11.4999,0.4959 17.5019,0.4959 4.9995,0 7.9992,-0.5836 8.9988,-1.7509 0.9993,-1.1673 1.499,-4.9172 1.4992,-11.2496 z m -185.24933,-19.9966 c -3.00091,-1.3326 -5.08501,-3.5833 -6.25229,-6.752 -1.16731,-3.1687 -1.08339,-6.2523 0.25177,-9.2507 1.33513,-2.9983 3.5006,-5.1638 6.49643,-6.4964 12.83769,-5.6661 24.58949,-12.2502 35.25543,-19.7525 1.1647,-0.8341 1.24608,-1.7496 0.24415,-2.7466 -11.50009,-12.3341 -22.58305,-23.4196 -33.24891,-33.2565 -2.32953,-2.1667 -3.5782,-4.8331 -3.74603,-7.9995 -0.16787,-3.166 0.74766,-5.9978 2.74658,-8.4953 1.99888,-2.3344 4.49877,-3.6683 7.4997,-4.0016 3.00086,-0.333 5.6686,0.5838 8.00323,2.7504 0.33057,0.3307 0.99687,0.9131 1.9989,1.7471 1.00195,0.8343 1.66825,1.5006 1.99891,1.9989 1.00194,1.0021 1.92001,0.9208 2.75421,-0.2441 6.99864,-9.1704 12.83004,-17.5042 17.4942,-25.0015 0.33563,-0.3356 0.37886,-0.712 0.1297,-1.1292 -0.24929,-0.4169 -0.62568,-0.6254 -1.12915,-0.6256 l -39.49738,0 c -3.16876,2e-4 -5.8365,-1.0832 -8.00323,-3.2501 -2.16676,-2.1666 -3.25014,-4.8331 -3.25012,-7.9994 -2e-5,-3.1661 1.08336,-5.8325 3.25012,-7.9995 2.16673,-2.1665 4.83447,-3.2499 8.00323,-3.2501 l 41.74805,0 c 1.33253,2e-4 1.99883,-0.75 1.9989,-2.2507 l 0,-9.9945 c -7e-5,-3.667 1.3338,-6.8344 4.00162,-9.5024 2.66767,-2.6675 5.83514,-4.0014 9.50241,-4.0016 3.66711,2e-4 6.83331,1.3341 9.4986,4.0016 2.6651,2.668 3.9977,5.8354 3.9978,9.5024 l 0,9.9945 c -10e-5,1.5007 0.6662,2.2509 1.9989,2.2507 l 40.2527,0 c 3.1686,2e-4 5.8363,1.0836 8.0032,3.2501 2.1666,2.167 3.25,4.8334 3.2501,7.9995 -10e-5,3.1663 -1.0835,5.8328 -3.2501,7.9994 -2.1669,2.1669 -4.8346,3.2503 -8.0032,3.2501 l -41.74806,0 c -1.50054,2e-4 -2.58392,0.5851 -3.25012,1.7548 -8.66708,15.1673 -18.08429,28.918 -28.25165,41.2521 -0.83421,0.997 -0.75029,1.9965 0.25177,2.9983 3.16359,3.1638 7.41316,7.5787 12.74872,13.2447 1.00191,1.0021 2.00136,1.086 2.99835,0.2517 12.00349,-11.4999 22.33622,-24.5004 30.99819,-39.0014 1.8361,-2.9957 4.3792,-5.0353 7.6294,-6.1188 3.25,-1.0832 6.3755,-0.792 9.3766,0.8736 3.0007,1.6659 5.0009,4.1238 6.0005,7.3738 0.9993,3.2502 0.6649,6.3757 -1.0033,9.3765 -11.8308,19.8315 -26.3711,37.2468 -43.62105,52.2461 -17.25013,14.9995 -36.29181,26.7512 -57.12509,35.2554 -3.00093,1.1648 -6.00182,1.0809 -9.00269,-0.2517 z m 125.99943,-39.7492 c -9.1656,13.9975 -19.7501,26.8301 -31.7535,38.4979 -0.997,1.0021 -0.9131,1.8362 0.2518,2.5025 10.6657,7.3293 20.5839,16.2455 29.7546,26.7486 2.3294,2.6653 3.4115,5.8734 3.2463,9.6245 -0.1655,3.7511 -1.5807,6.8754 -4.2458,9.3727 -2.5025,2.3346 -5.4615,3.3353 -8.8768,3.0022 -3.4155,-0.3332 -6.2905,-1.8323 -8.625,-4.4975 -8.4993,-10.1675 -18.4175,-19.5847 -29.75463,-28.2517 -1.16485,-0.8341 -2.3296,-0.8341 -3.49426,0 -19.8365,14.8316 -41.08689,26.1638 -63.75122,33.9966 -3.16877,1.1698 -6.21163,1.0045 -9.12857,-0.4959 -2.91699,-1.5005 -4.95786,-3.919 -6.12259,-7.2556 -1.00201,-3.1636 -0.79475,-6.2459 0.62179,-9.2468 1.41651,-3.0009 3.70914,-5.0837 6.8779,-6.2485 21.49959,-8.0006 41.12492,-18.959 58.87604,-32.875 17.75096,-13.916 32.70964,-29.958 44.87614,-48.1262 1.8309,-2.833 4.4554,-4.6666 7.8735,-5.5008 3.4178,-0.8341 6.5433,-0.417 9.3765,1.2512 2.9957,1.8311 4.8687,4.4976 5.6191,7.9994 0.75,3.502 0.2096,6.6695 -1.6213,9.5024 z"
         id="path2826"
         style="font-family:'Rounded M+ 1m medium';-inkscape-font-specification:'Rounded M+ 1m medium'" />
      <path
         d="m 1242.4988,1288.8599 c 12.329,0 20.7861,-2.2913 25.3715,-6.8741 4.5852,-4.5827 6.9592,-13.125 7.1221,-25.6271 -2e-4,-1.5004 -0.6665,-2.4999 -1.9989,-2.9983 -9.664,-4.1656 -18.9973,-6.2485 -27.9999,-6.2485 -10.9966,0 -18.954,1.5831 -23.8724,4.7493 -4.9185,3.1662 -7.3777,7.9994 -7.3776,14.4996 -10e-5,7.1666 2.4998,12.7081 7.4997,16.6245 4.9997,3.9164 12.0849,5.8746 21.2555,5.8746 z m 32.4936,-117.2485 0,-23.0026 c -2e-4,-1.5003 -0.6665,-2.2506 -1.9989,-2.2507 l -87.9975,0 c -3.1687,10e-5 -5.8365,-1.0832 -8.0032,-3.2501 -2.1668,-2.1666 -3.2502,-4.8331 -3.2501,-7.9994 -10e-5,-3.1661 1.0833,-5.8326 3.2501,-7.9995 2.1667,-2.1665 4.8345,-3.2499 8.0032,-3.2501 l 87.9975,0 c 1.3324,2e-4 1.9987,-0.75 1.9989,-2.2507 l 0,-11.4975 c -2e-4,-3.4991 1.2091,-6.4568 3.6277,-8.8729 2.4184,-2.4158 5.3774,-3.6238 8.8768,-3.624 3.4993,2e-4 6.4569,1.2082 8.873,3.624 2.4159,2.4161 3.6238,5.3738 3.624,8.8729 l 0,11.4975 c -2e-4,1.5007 0.6661,2.2509 1.9989,2.2507 l 53.0014,0 c 3.1685,2e-4 5.8363,1.0836 8.0032,3.2501 2.1666,2.1669 3.2499,4.8334 3.2502,7.9995 -3e-4,3.1663 -1.0836,5.8328 -3.2502,7.9994 -2.1669,2.1669 -4.8347,3.2502 -8.0032,3.2501 l -53.0014,0 c -1.3328,10e-5 -1.9991,0.7504 -1.9989,2.2507 l 0,23.0026 c -2e-4,1.5006 0.6661,2.2508 1.9989,2.2507 l 44.2505,0 c 3.1685,10e-5 5.8363,1.0835 8.0032,3.2501 2.1666,2.1668 3.2499,4.8333 3.2501,7.9994 -2e-4,3.1663 -1.0835,5.8328 -3.2501,7.9994 -2.1669,2.1669 -4.8347,3.2502 -8.0032,3.2501 l -44.2505,0 c -1.3328,10e-5 -1.9991,0.7504 -1.9989,2.2507 l 0,41.0004 c -2e-4,1.5005 0.5848,2.5839 1.7548,3.2501 16.1639,9.3333 32.913,21.3318 50.2471,35.9955 2.4972,2.1668 3.8298,4.8752 3.9979,8.1253 0.1676,3.2501 -0.8319,6.1251 -2.9984,8.625 -2.167,2.4999 -4.9173,3.8338 -8.2512,4.0016 -3.3342,0.1679 -6.2499,-0.8316 -8.7471,-2.9983 -12.6701,-10.8337 -24.254,-19.9178 -34.7519,-27.2522 -1.1649,-0.8341 -1.9151,-0.5824 -2.2507,0.7553 -1.999,14.6637 -7.4566,25.2037 -16.3726,31.62 -8.9164,6.4163 -22.2907,9.6245 -40.123,9.6245 -17.0035,0 -30.421,-3.9991 -40.2527,-11.9972 -9.8318,-7.9982 -14.7477,-18.9985 -14.7476,-33.001 -10e-5,-12.1663 4.3741,-22.1658 13.1225,-29.9987 8.7483,-7.8328 22.7076,-11.7492 41.8778,-11.7493 9.9995,10e-5 20.0804,1.6658 30.2429,4.9972 1.5003,0.3358 2.2505,-0.081 2.2507,-1.2512 l 0,-29.747 c -2e-4,-1.5003 -0.6665,-2.2506 -1.9989,-2.2507 l -79.2466,0 c -3.1687,10e-5 -5.8365,-1.0832 -8.0032,-3.2501 -2.1668,-2.1666 -3.2501,-4.8331 -3.2501,-7.9994 0,-3.1661 1.0833,-5.8326 3.2501,-7.9994 2.1667,-2.1666 4.8345,-3.25 8.0032,-3.2501 l 79.2466,0 c 1.3324,10e-5 1.9987,-0.7501 1.9989,-2.2507 z"
         id="path2828"
         style="font-family:'Rounded M+ 1m medium';-inkscape-font-specification:'Rounded M+ 1m medium'" />
      <path
         d="m 1567.244,1177.1122 c 2.8328,-1.5003 5.7918,-1.7928 8.8768,-0.8774 3.0846,0.9157 5.3772,2.7899 6.8779,5.6229 2.4971,4.5014 6.2457,11.4187 11.2457,20.7519 1.5002,2.8332 1.7927,5.6662 0.8774,8.4992 -0.9158,2.8331 -2.79,4.9159 -5.6229,6.2484 -2.6705,1.3378 -5.5468,1.5476 -8.6288,0.6295 -3.0825,-0.918 -5.3739,-2.7097 -6.8741,-5.3749 -1.3328,-2.3346 -3.2491,-5.7512 -5.7488,-10.2501 -2.5,-4.4987 -4.3349,-7.9154 -5.5046,-10.2501 -1.5006,-2.6651 -1.7918,-5.4982 -0.8736,-8.4992 0.918,-3.0008 2.7096,-5.1675 5.375,-6.5002 z m 65.628,25.4974 c -1.0836,3.001 -3.0418,5.1678 -5.8746,6.5003 -2.8333,1.3327 -5.7922,1.4573 -8.8768,0.3738 -3.0851,-1.0833 -5.3777,-3.0415 -6.8779,-5.8746 -1.165,-2.3345 -3.0812,-5.7512 -5.7488,-10.2501 -2.6679,-4.4987 -4.5842,-7.8315 -5.7487,-9.9983 -1.5007,-2.833 -1.7919,-5.708 -0.8736,-8.6251 0.9179,-2.9168 2.7934,-5.1255 5.6267,-6.6261 2.8328,-1.5003 5.7905,-1.8335 8.873,-0.9995 3.082,0.8343 5.4573,2.6679 7.1258,5.5008 3.8298,6.831 7.7462,13.9136 11.7493,21.2479 1.5002,2.8332 1.7087,5.7501 0.6256,8.7509 z m -105.3772,-58.7463 c 0.1677,10e-5 0.2516,-0.084 0.2518,-0.2518 -2e-4,-0.1677 -0.168,-0.2516 -0.5036,-0.2518 -33.1676,1.3328 -67.3345,2.1669 -102.5009,2.5025 -3.1637,10e-5 -5.9128,-1.1672 -8.2473,-3.5019 -2.3347,-2.3344 -3.502,-5.1675 -3.5019,-8.4992 -10e-5,-3.3313 1.1253,-6.1224 3.376,-8.3732 2.2506,-2.2505 4.9603,-3.3758 8.1291,-3.376 60.6638,-0.3355 120.7452,-1.836 180.2444,-4.5014 3.3364,-0.1676 6.2127,0.8738 8.6289,3.1243 2.4157,2.2508 3.7076,4.9605 3.8757,8.1291 0.1676,3.3317 -0.8318,6.2474 -2.9983,8.7471 -2.167,2.5 -4.9187,3.9992 -8.255,4.4975 -37.9997,5 -66.4153,15.0415 -85.2471,30.1247 -18.832,15.0834 -28.2479,33.3749 -28.2478,54.8744 -10e-5,19.0023 6.0411,33.8364 18.1236,44.5023 12.0823,10.6659 28.1231,15.9988 48.1224,15.9988 5.4981,0 11.8305,-0.4171 18.9972,-1.2512 3.3364,-0.3306 6.3373,0.5455 9.0027,2.6283 2.665,2.0828 4.1654,4.7086 4.5013,7.8774 0.3304,3.3315 -0.5037,6.3718 -2.5024,9.1209 -1.9991,2.7491 -4.6643,4.2915 -7.9956,4.6272 -7.5024,1.002 -15.2539,1.503 -23.2544,1.503 -28.4985,0 -51.1221,-7.3751 -67.8711,-22.1252 -16.7491,-14.7502 -25.1237,-34.8765 -25.1236,-60.3791 -10e-5,-18.4986 5.3748,-35.0404 16.1247,-49.6254 10.7497,-14.5847 26.3735,-26.6251 46.8712,-36.1213 z"
         id="path2830"
         style="font-family:'Rounded M+ 1m medium';-inkscape-font-specification:'Rounded M+ 1m medium'" />
    </g>
  </g>
</svg>
