<?xml version="1.0" encoding="UTF-8" standalone="no"?>
<!-- Created with Inkscape (http://www.inkscape.org/) -->

<svg
   xmlns:osb="http://www.openswatchbook.org/uri/2009/osb"
   xmlns:dc="http://purl.org/dc/elements/1.1/"
   xmlns:cc="http://creativecommons.org/ns#"
   xmlns:rdf="http://www.w3.org/1999/02/22-rdf-syntax-ns#"
   xmlns:svg="http://www.w3.org/2000/svg"
   xmlns="http://www.w3.org/2000/svg"
   xmlns:xlink="http://www.w3.org/1999/xlink"
   xmlns:sodipodi="http://sodipodi.sourceforge.net/DTD/sodipodi-0.dtd"
   xmlns:inkscape="http://www.inkscape.org/namespaces/inkscape"
   version="1.1"
   width="1800.4003"
   height="300.40027"
   id="svg2"
   xml:space="preserve"
   inkscape:version="0.48.4 r9939"
   sodipodi:docname="Ajax.svg"><sodipodi:namedview
     pagecolor="#ffffff"
     bordercolor="#666666"
     borderopacity="1"
     objecttolerance="10"
     gridtolerance="10"
     guidetolerance="10"
     inkscape:pageopacity="0"
     inkscape:pageshadow="2"
     inkscape:window-width="1280"
     inkscape:window-height="1001"
     id="namedview28"
     showgrid="false"
     fit-margin-top="0.2"
     fit-margin-left="0.2"
     fit-margin-right="0.2"
     fit-margin-bottom="0.2"
     inkscape:zoom="0.40989584"
     inkscape:cx="1151.7373"
     inkscape:cy="99.251995"
     inkscape:window-x="-8"
     inkscape:window-y="-8"
     inkscape:window-maximized="1"
     inkscape:current-layer="svg2"
     showguides="true"
     inkscape:guide-bbox="true" /><metadata
     id="metadata8"><rdf:RDF><cc:Work
         rdf:about=""><dc:format>image/svg+xml</dc:format><dc:type
           rdf:resource="http://purl.org/dc/dcmitype/StillImage" /><dc:title /></cc:Work></rdf:RDF></metadata><defs
     id="defs6"><linearGradient
       id="linearGradient15703"
       osb:paint="solid"><stop
         style="stop-color:#ffffff;stop-opacity:1;"
         offset="0"
         id="stop15705" /></linearGradient><linearGradient
       inkscape:collect="always"
       xlink:href="#linearGradient15703"
       id="linearGradient15707"
       x1="-37.125"
       y1="465.375"
       x2="967.87512"
       y2="465.375"
       gradientUnits="userSpaceOnUse"
       gradientTransform="translate(961.6578,56.04101)" /></defs><g
     id="g2991"
     transform="matrix(34.167339,0,0,34.167339,15.36955,-266.38949)" /><path
     style="font-size:medium;font-style:normal;font-variant:normal;font-weight:normal;font-stretch:normal;text-indent:0;text-align:start;text-decoration:none;line-height:normal;letter-spacing:normal;word-spacing:normal;text-transform:none;direction:ltr;block-progression:tb;writing-mode:lr-tb;text-anchor:start;baseline-shift:baseline;color:#000000;fill:#000000;fill-opacity:1;fill-rule:nonzero;stroke:none;stroke-width:30;marker:none;visibility:visible;display:inline;overflow:visible;enable-background:accumulate;font-family:Sans;-inkscape-font-specification:Sans"
     d="m 1743.544,300.20026 c 31.1185,0 56.6563,-25.5377 56.6563,-56.6563 l 0,-186.68776 C 1800.2003,25.7364 1774.6619,0.2 1743.544,0.2 L 56.8563,0.2 C 25.7386,0.2 0.2,25.7364 0.2,56.8562 l 0,186.68776 c 0,31.1186 25.5377,56.6563 56.6563,56.6563 z"
     id="path14428"
     inkscape:connector-curvature="0"
     sodipodi:nodetypes="sssssssss" /><path
     inkscape:connector-curvature="0"
     d="m 56.8668,285.20026 c -23.012,0 -41.6668,-18.6548 -41.6668,-41.6668 l 0,-186.66706 c 0,-23.014 18.6548,-41.6668 41.6668,-41.6668 l 1686.6669,0 c 23.0119,0 41.6666,18.6528 41.6666,41.6668 l 0,186.66706 c 0,23.012 -18.6547,41.6668 -41.6666,41.6668 z"
     style="fill:#ffffff;fill-opacity:1;fill-rule:nonzero;stroke:none"
     id="path14430"
     sodipodi:nodetypes="sssssssss" /><path
     inkscape:connector-curvature="0"
     d="m 395.84963,111.46242 0,-24.497989 c -1.1e-4,-1.50029 -0.66641,-2.25051 -1.9989,-2.25067 l -83.9996,0 c -3.33661,1.6e-4 -6.08828,-1.12518 -8.25501,-3.37601 -2.16676,-2.25051 -3.25013,-4.95767 -3.25012,-8.12149 -1e-5,-3.33641 1.12532,-6.12877 3.37601,-8.37707 2.25065,-2.24795 4.96035,-3.37201 8.12912,-3.37219 l 83.9996,0 c 1.33249,1.8e-4 1.99879,-0.66867 1.9989,-2.00654 l 0,-9.75036 c -1.1e-4,-3.82976 1.33249,-7.07861 3.99781,-9.74655 2.66508,-2.66754 5.9152,-4.00142 9.75036,-4.00162 3.83492,2e-4 7.08504,1.33408 9.75037,4.00162 2.66506,2.66794 3.99766,5.91679 3.9978,9.74655 l 0,9.75036 c -1.4e-4,1.33787 0.66871,2.00672 2.00653,2.00654 l 86.49442,0 c 3.16851,1.8e-4 5.87821,1.12424 8.12912,3.37219 2.25043,2.2483 3.37577,5.04066 3.376,8.37707 -2.3e-4,3.16382 -1.08361,5.87098 -3.25012,8.12149 -2.16698,2.25083 -4.91864,3.37617 -8.255,3.37601 l -86.49442,0 c -1.33782,1.6e-4 -2.00667,0.75038 -2.00653,2.25067 l 0,24.497989 c -1.4e-4,1.33273 0.66871,1.99903 2.00653,1.9989 l 69.99968,0 c 3.82973,1.3e-4 7.16123,1.41665 9.99449,4.24957 2.83283,2.83317 4.24935,6.16721 4.24958,10.00214 l 0,78.75061 c -2.3e-4,16.49985 -1.70794,26.70802 -5.12314,30.62442 -3.41564,3.9164 -12.12458,5.8746 -26.12685,5.8746 -3.998,0 -10.99669,-0.2492 -20.99609,-0.7477 -3.16891,-0.1678 -5.9193,-1.4178 -8.25119,-3.7498 -2.33221,-2.3321 -3.58216,-5.1664 -3.74985,-8.503 -0.168,-3.16363 0.78949,-5.78814 2.87247,-7.87352 2.08266,-2.08535 4.70844,-3.04411 7.87735,-2.87628 5.66592,0.33571 11.24808,0.50356 16.74651,0.50354 5.16745,2e-5 8.21031,-0.58363 9.12857,-1.75095 0.91788,-1.16727 1.37691,-5.00104 1.37711,-11.50131 l 0,-67.74902 c -2e-4,-1.50035 -0.6665,-2.25057 -1.9989,-2.25068 l -55.99974,0 c -1.33782,1.1e-4 -2.00667,0.75033 -2.00653,2.25068 l 0,113.50254 c -1.4e-4,3.8299 -1.33274,7.0787 -3.9978,9.7465 -2.66533,2.6677 -5.91545,4.0016 -9.75037,4.0016 -3.83516,0 -7.08528,-1.3339 -9.75036,-4.0016 -2.66532,-2.6678 -3.99792,-5.9166 -3.99781,-9.7465 l 0,-113.50254 c -1.1e-4,-1.50035 -0.66641,-2.25057 -1.9989,-2.25068 l -53.50492,0 c -1.33266,1.1e-4 -1.99896,0.75033 -1.9989,2.25068 l 0,90.99574 c -6e-5,3.6672 -1.25,6.7928 -3.74985,9.3766 -2.49995,2.5838 -5.58349,3.8757 -9.25064,3.8757 -3.66723,0 -6.79147,-1.2919 -9.3727,-3.8757 -2.58131,-2.5838 -3.87195,-5.7094 -3.87192,-9.3766 l 0,-101.99733 c -3e-5,-3.83493 1.4165,-7.16897 4.24957,-10.00214 2.83301,-2.83292 6.16451,-4.24944 9.9945,-4.24957 l 67.50486,0 c 1.33249,1.3e-4 1.99879,-0.66617 1.9989,-1.9989 z"
     id="path2817"
     style="font-size:250px;font-style:normal;font-variant:normal;font-weight:normal;font-stretch:normal;text-align:center;text-anchor:middle;fill:#000000;fill-opacity:1;stroke:none;font-family:'Rounded M+ 1p medium';-inkscape-font-specification:'Rounded M+ 1p medium,'" /><path
     inkscape:connector-curvature="0"
     d="m 657.56831,178.21199 0,66.25367 c -4e-5,3.6672 -1.33392,6.8334 -4.00161,9.4986 -2.66779,2.6652 -5.83399,3.9978 -9.49859,3.9978 -3.66468,0 -6.83088,-1.3326 -9.4986,-3.9978 -2.66776,-2.6652 -4.00164,-5.8314 -4.00161,-9.4986 l 0,-168.754579 c -3e-5,-3.82979 1.4165,-7.16129 4.24957,-9.99451 2.83302,-2.83287 6.16706,-4.24939 10.00212,-4.24957 l 73.74571,0 c 1.33249,1.8e-4 1.99879,-0.66867 1.9989,-2.00654 l 0,-11.24572 c -1.1e-4,-3.83485 1.33376,-7.04428 4.00162,-9.6283 2.66763,-2.58362 5.8351,-3.87552 9.50241,-3.87573 3.66707,2.1e-4 6.83327,1.29211 9.4986,3.87573 2.66506,2.58402 3.99766,5.79345 3.9978,9.6283 l 0,11.24572 c -1.4e-4,1.33787 0.66871,2.00672 2.00653,2.00654 l 75.74461,0 c 3.83481,1.8e-4 7.16886,1.4167 10.00213,4.24957 2.83282,2.83322 4.24934,6.16472 4.24957,9.99451 l 0,145.256039 c -2.3e-4,16.49984 -1.91648,26.66604 -5.74875,30.49854 -3.83272,3.8324 -13.83356,5.7487 -30.00258,5.7487 -4.50154,0 -14.00012,-0.2492 -28.49578,-0.7477 -3.33675,-0.1678 -6.17107,-1.4191 -8.50296,-3.7536 -2.33221,-2.3346 -3.58216,-5.085 -3.74985,-8.2512 -0.168,-3.1662 0.83145,-5.8747 2.99835,-8.1253 2.16659,-2.2507 4.83433,-3.2921 8.00324,-3.1243 13.00031,0.4985 21.25021,0.7477 24.74974,0.7477 6.83066,0 10.82973,-0.5404 11.99723,-1.6212 1.16709,-1.0809 1.75074,-4.8714 1.75094,-11.37164 l 0,-39.00147 c -2e-4,-0.50348 -0.20874,-0.87986 -0.62561,-1.12915 -0.41727,-0.24916 -0.79111,-0.20593 -1.12152,0.1297 l -5.50079,3.49426 c -3.33678,2.16681 -7.00398,2.95899 -11.00159,2.37656 -3.99798,-0.58232 -7.24809,-2.45788 -9.75036,-5.62668 -16.00154,-19.3328 -32.6692,-35.16378 -50.00304,-47.49298 -1.33272,-1.00188 -2.33217,-0.83658 -2.99835,0.49591 -10.83385,19.00237 -27.49896,35.50219 -49.99541,49.49951 -3.49941,2.16681 -7.24925,2.87507 -11.24953,2.12479 -4.00041,-0.75017 -7.2518,-2.79103 -9.75419,-6.12259 l -1.74713,-1.9989 c -0.16789,-0.33563 -0.41839,-0.41955 -0.75149,-0.25177 -0.3332,0.16791 -0.49977,0.41714 -0.49973,0.74768 z m 154.99874,-4.74548 0,-86.502079 c -2e-4,-1.50029 -0.6665,-2.25051 -1.9989,-2.25067 l -61.50053,0 c -1.33274,1.6e-4 -2.16688,0.75038 -2.50244,2.25067 -0.66644,5.83409 -1.99904,12.7514 -3.9978,20.751959 -0.33074,1.50057 0.0863,2.66533 1.25122,3.49426 25.16666,17.17133 47.58179,38.00465 67.24546,62.5 0.33549,0.33576 0.66991,0.46164 1.00327,0.37765 0.33294,-0.0838 0.49952,-0.29112 0.49972,-0.62179 z m -94.74943,-88.752749 -58.25041,0 c -1.33265,1.6e-4 -1.99894,0.75038 -1.9989,2.25067 l 0,78.247069 c -4e-5,0.50362 0.20849,0.88 0.62561,1.12915 0.41703,0.2493 0.79087,0.28999 1.12152,0.12207 18.66652,-9.50105 32.87497,-20.62597 42.62542,-33.37478 9.75027,-12.7486 15.70881,-28.12309 17.87566,-46.123509 0.33559,-1.50029 -0.33071,-2.25051 -1.9989,-2.25067 z"
     id="path2819"
     style="font-size:250px;font-style:normal;font-variant:normal;font-weight:normal;font-stretch:normal;text-align:center;text-anchor:middle;fill:#000000;fill-opacity:1;stroke:none;font-family:'Rounded M+ 1p medium';-inkscape-font-specification:'Rounded M+ 1p medium,'" /><path
     inkscape:connector-curvature="0"
     d="m 983.5341,113.46132 c -9.83178,6.16976 -16.49731,10.1701 -19.99663,12.00104 -3.00092,1.66841 -6.16839,2.00283 -9.50241,1.00326 -3.33406,-0.99933 -5.75131,-2.9995 -7.25174,-6.00052 -1.66322,-3.16861 -1.95314,-6.37804 -0.86975,-9.62829 1.08336,-3.24999 3.12549,-5.79058 6.1264,-7.62177 28.99673,-16.499679 55.66143,-35.166249 79.99423,-55.999749 7.1664,-6.16944 15.4162,-9.25426 24.7497,-9.25446 l 5.0048,0 c 9.3332,2e-4 17.5831,3.08502 24.7498,9.25446 23.834,20.49781 50.4987,39.16438 79.9942,55.999749 3.0007,1.83119 5.0428,4.37178 6.1264,7.62177 1.0831,3.25025 0.7919,6.4584 -0.8736,9.62448 -1.666,3.16632 -4.1659,5.20845 -7.4997,6.1264 -3.3342,0.91819 -6.5017,0.45915 -9.5024,-1.3771 -11.3324,-6.50012 -17.7487,-10.2487 -19.2489,-11.24573 -1.165,-0.83402 -1.7474,-0.58479 -1.7472,0.74768 l 0,1.50299 c -2e-4,3.83008 -1.4167,7.16285 -4.2495,9.99832 -2.8333,2.83571 -6.1673,4.2535 -10.0022,4.25339 l -44.2505,0 c -1.5006,1.1e-4 -2.2508,0.66641 -2.2506,1.9989 l 0,32.50122 c -2e-4,1.49544 0.75,2.24312 2.2506,2.24304 l 57.9987,0 c 3.0007,8e-5 5.5845,1.08345 7.7515,3.25013 2.1665,2.16681 3.2499,4.75063 3.2501,7.75146 -2e-4,3.00096 -1.0836,5.54281 -3.2501,7.62558 -2.167,2.08288 -4.7508,3.12429 -7.7515,3.12424 l -57.9987,0 c -1.5006,5e-5 -2.2508,0.75027 -2.2506,2.25067 l 0,40.74858 c -2e-4,1.3326 0.75,1.9989 2.2506,1.9989 l 80.2536,0 c 3.1635,0 5.8287,1.1254 7.9956,3.376 2.1666,2.2507 3.2499,4.9591 3.2502,8.1253 -3e-4,3.1662 -1.0836,5.792 -3.2502,7.8774 -2.1669,2.0853 -4.8321,3.128 -7.9956,3.128 l -192.50477,0 c -3.16368,0 -5.82888,-1.0427 -7.9956,-3.128 -2.16677,-2.0854 -3.25014,-4.7112 -3.25013,-7.8774 -10e-6,-3.1662 1.08336,-5.8746 3.25013,-8.1253 2.16672,-2.2506 4.83192,-3.376 7.9956,-3.376 l 80.25367,0 c 1.5002,0 2.2504,-0.6663 2.2505,-1.9989 l 0,-40.74858 c -10e-5,-1.5004 -0.7503,-2.25062 -2.2505,-2.25067 l -57.99874,0 c -3.00094,5e-5 -5.58476,-1.04136 -7.75146,-3.12424 -2.16679,-2.08277 -3.25016,-4.62462 -3.25012,-7.62558 -4e-5,-3.00083 1.08333,-5.58465 3.25012,-7.75146 2.1667,-2.16668 4.75052,-3.25005 7.75146,-3.25013 l 57.99874,0 c 1.5002,8e-5 2.2504,-0.7476 2.2505,-2.24304 l 0,-32.50122 c -10e-5,-1.33249 -0.7503,-1.99879 -2.2505,-1.9989 l -43.50289,0 c -3.83001,1.1e-4 -7.16278,-1.41768 -9.99832,-4.25339 -2.83564,-2.83547 -4.25344,-6.16824 -4.25338,-9.99832 l 0,-1.75476 c -6e-5,-0.49833 -0.24928,-0.87217 -0.74769,-1.12152 -0.4985,-0.2491 -0.91557,-0.20841 -1.25122,0.12207 z m 74.2492,-56.747439 c -19.3329,18.1683 -40.8325,35.08519 -64.49883,50.750739 -0.16791,0.16798 -0.25183,0.37651 -0.25177,0.62561 -6e-5,0.24936 0.16779,0.37397 0.50354,0.37384 l 131.50016,0 c 0.3355,1.3e-4 0.5034,-0.12448 0.5036,-0.37384 -2e-4,-0.2491 -0.084,-0.45763 -0.2518,-0.62561 -23.6666,-15.665549 -45.1662,-32.582439 -64.4989,-50.750739 -1.0021,-1.00181 -2.0041,-1.00181 -3.006,0 z"
     id="path2821"
     style="font-size:250px;font-style:normal;font-variant:normal;font-weight:normal;font-stretch:normal;text-align:center;text-anchor:middle;fill:#000000;fill-opacity:1;stroke:none;font-family:'Rounded M+ 1p medium';-inkscape-font-specification:'Rounded M+ 1p medium,'" /><path
     inkscape:connector-curvature="0"
     d="m 1367.2544,182.9651 -10.7498,0 c -3.835,6e-5 -7.1691,-1.41646 -10.002,-4.24957 -2.8332,-2.83298 -4.2497,-6.16702 -4.2496,-10.00214 l 0,-50.49896 c -10e-5,-3.83491 1.4164,-7.16896 4.2496,-10.00213 2.8329,-2.83292 6.167,-4.24944 10.002,-4.24958 l 46.5012,0 c 3.8349,1.4e-4 7.1689,1.41666 10.0021,4.24958 2.8329,2.83317 4.2494,6.16722 4.2496,10.00213 l 0,50.49896 c -2e-4,3.83512 -1.4167,7.16916 -4.2496,10.00214 -2.8332,2.83311 -6.1672,4.24963 -10.0021,4.24957 z m 0,-56.75506 0,34.50012 c -10e-5,1.50053 0.7501,2.25075 2.2507,2.25067 l 22.0032,0 c 1.3324,8e-5 1.9987,-0.75014 1.9989,-2.25067 l 0,-34.50012 c -2e-4,-1.49525 -0.6665,-2.24293 -1.9989,-2.24304 l -22.0032,0 c -1.5006,1.1e-4 -2.2508,0.74779 -2.2507,2.24304 z m -90.9958,89.75219 11.2458,-3.74603 c 1.5004,-0.66627 2.2506,-1.58434 2.2506,-2.75421 l 0,-87.50153 c 0,-1.49524 -0.7502,-2.24292 -2.2506,-2.24304 l -10.2463,0 c -3.1688,1.2e-4 -5.8365,-1.08325 -8.0032,-3.25012 -2.1668,-2.16662 -3.2502,-4.83436 -3.2502,-8.00323 0,-3.16861 1.0834,-5.83635 3.2502,-8.00324 2.1667,-2.166599 4.8344,-3.249979 8.0032,-3.250119 l 10.2463,0 c 1.5004,1.4e-4 2.2506,-0.66616 2.2506,-1.9989 l 0,-39.24561 c 0,-3.667 1.2919,-6.75055 3.8758,-9.25064 2.5838,-2.4997 5.7094,-3.74965 9.3766,-3.74985 3.6671,2e-4 6.7507,1.25015 9.2506,3.74985 2.4999,2.50009 3.7498,5.58364 3.7499,9.25064 l 0,39.24561 c -10e-5,1.33274 0.6662,1.99904 1.9989,1.9989 l 7.9956,0 c 3.1687,1.4e-4 5.8364,1.08352 8.0032,3.250119 2.1667,2.16689 3.2501,4.83463 3.2502,8.00324 -10e-5,3.16887 -1.0835,5.83661 -3.2502,8.00323 -2.1668,2.16687 -4.8345,3.25024 -8.0032,3.25012 l -7.9956,0 c -1.3327,1.2e-4 -1.999,0.7478 -1.9989,2.24304 l 0,77.50702 c -10e-5,1.33265 0.5823,1.74845 1.7471,1.24741 1.1647,-0.50096 2.8305,-1.20922 4.9973,-2.12479 2.1667,-0.91548 3.751,-1.62501 4.7531,-2.1286 3.1687,-1.5004 6.3361,-1.41648 9.5024,0.25177 3.1661,1.66834 4.9145,4.25216 5.2452,7.75147 l 0.7553,5.24902 c 0.3305,1.33263 0.9968,1.91501 1.9989,1.74713 26.3314,-6.50021 48.4134,-13.74812 66.246,-21.74377 2.6701,-1.16979 5.2552,-1.08841 7.7552,0.24414 2.4998,1.33265 3.9989,3.33409 4.4976,6.00433 0.4982,3.33155 0.039,6.5397 -1.3771,9.62448 -1.4167,3.08485 -3.6254,5.29356 -6.6262,6.62613 -17.4969,8.16348 -39.0804,15.57926 -64.7505,22.24736 -3.6673,1.002 -7.084,0.4196 -10.2501,-1.7472 -3.1663,-2.1667 -5.0826,-5.1676 -5.7488,-9.00266 l -0.7477,-4.75311 c -0.3357,-1.33258 -1.086,-1.74711 -2.2506,-1.24359 -16.0015,7.66501 -33.4169,14.49836 -52.2462,20.50016 -2.8382,0.8291 -5.5072,0.4947 -8.0071,-1.0032 -2.4999,-1.4979 -3.9991,-3.7473 -4.4975,-6.7482 -0.4985,-3.16877 0.1271,-6.1277 1.8768,-8.87685 1.7497,-2.7491 4.2089,-4.62466 7.3776,-5.62668 z m 159.7443,-21.7514 c -5.6663,-28.6661 -9.1656,-63.99779 -10.498,-105.995179 -2e-4,-1.50029 -0.6665,-2.25051 -1.9989,-2.25067 l -80.0018,0 c -3.1637,1.6e-4 -5.8289,-1.08322 -7.9956,-3.25012 -2.1668,-2.16659 -3.2502,-4.83306 -3.2501,-7.99942 -10e-5,-3.16603 1.0833,-5.8325 3.2501,-7.99942 2.1667,-2.16657 4.8319,-3.24995 7.9956,-3.25012 l 79.2541,0 c 1.4952,1.7e-4 2.2429,-0.75005 2.243,-2.25067 -10e-5,-1.33242 -0.041,-3.37456 -0.1221,-6.12641 -0.082,-2.75148 -0.1222,-4.87753 -0.122,-6.37817 -2e-4,-3.49916 1.2498,-6.49878 3.7498,-8.99887 2.4998,-2.4997 5.4994,-3.74965 8.9989,-3.74985 3.4992,2e-4 6.5407,1.29211 9.1248,3.87573 2.5836,2.58402 3.8755,5.6256 3.8757,9.12476 l 0,12.50458 c -2e-4,1.33277 0.75,1.99907 2.2507,1.9989 l 9.9945,0 c 1.1696,1.7e-4 1.5867,-0.66613 1.2512,-1.9989 -0.3308,-1.00182 -0.9959,-2.75276 -1.9951,-5.25284 -0.9997,-2.49971 -1.7512,-4.41596 -2.2545,-5.74875 -1.1649,-3.0007 -1.1637,-5.95963 0,-8.8768 1.1671,-2.91677 3.2487,-4.95763 6.2447,-6.12259 3.0007,-1.33239 6.0016,-1.37436 9.0027,-0.12589 3.0006,1.24889 5.0835,3.37367 6.2484,6.37436 1.836,4.50154 4.4198,11.41885 7.7515,20.75196 0.1676,0.66647 0.75,0.99962 1.7471,0.99945 2.3344,1.7e-4 4.2939,0.83305 5.8785,2.49862 1.5841,1.66593 2.3763,3.6661 2.3765,6.00052 l 0,2.74658 c -2e-4,3.16891 -1.0836,5.83665 -3.2501,8.00324 -2.167,2.1669 -4.8347,3.25028 -8.0032,3.25012 l -34.2484,0 c -1.5006,1.6e-4 -2.2508,0.66646 -2.2506,1.9989 0.8339,23.666509 2.5836,46.582649 5.249,68.748479 0.1676,0.33577 0.5847,0.25185 1.2512,-0.25177 3.8348,-9.49596 8.0005,-21.74367 12.497,-36.74317 0.8339,-3.16861 2.7095,-5.50321 5.6266,-7.00378 2.9168,-1.50032 5.8757,-1.66817 8.8768,-0.50354 3.1685,1.16997 5.5438,3.21337 7.1259,6.13022 1.5816,2.91709 1.874,5.9574 0.8774,9.12094 -8.0009,27.66936 -17.4182,50.66941 -28.2517,69.00024 -0.8343,1.33265 -1.0836,2.66779 -0.7477,4.00543 1.4952,6.83089 3.0351,12.66356 4.6196,17.49802 1.5842,4.83451 2.96,8.29317 4.1275,10.37601 1.1671,2.0828 2.1678,3.1242 3.0022,3.1242 2.665,0 4.8317,-10.50057 6.5003,-31.50177 0.3303,-2.66515 1.579,-4.70601 3.746,-6.12258 2.1665,-1.41648 4.5011,-1.62629 7.0038,-0.62943 6.6627,2.83309 9.745,7.75151 9.2468,14.75525 -3.169,35.32923 -10.8365,52.99373 -23.0026,52.99373 -14.1655,0 -25.5816,-11.4161 -34.2484,-34.24831 -0.168,-0.33059 -0.4592,-0.53786 -0.8735,-0.62179 -0.4148,-0.0839 -0.7899,0.0394 -1.1254,0.37002 -8.9978,10.00468 -19.0813,19.08878 -30.2505,27.25218 -2.8332,2.1668 -6.0414,3.0009 -9.6245,2.5025 -3.5834,-0.4985 -6.6263,-2.0829 -9.1286,-4.7532 -2.1618,-2.3295 -3.0353,-5.1193 -2.6207,-8.3694 0.4144,-3.2501 1.9568,-5.7932 4.6272,-7.6294 15.8334,-11.00156 28.9153,-23.50104 39.2457,-37.49847 1.0018,-1.16471 1.3349,-2.41593 0.9994,-3.75366 z"
     id="path2823"
     style="font-size:250px;font-style:normal;font-variant:normal;font-weight:normal;font-stretch:normal;text-align:center;text-anchor:middle;fill:#000000;fill-opacity:1;stroke:none;font-family:'Rounded M+ 1p medium';-inkscape-font-specification:'Rounded M+ 1p medium,'" /></svg>