<?xml version="1.0" encoding="UTF-8" standalone="no"?>
<svg xmlns="http://www.w3.org/2000/svg" width="470" height="470" version="1.0">
  <ellipse cx="236.24364" cy="235.22493" fill="#0066b3" fill-rule="evenodd" stroke="#0066b3" stroke-linecap="round" stroke-width="1.25" color="#000" overflow="visible" rx="225.02652" ry="224.29105" style="marker:none"/>
  <ellipse cx="236.24368" cy="235.2251" fill="#fff" fill-rule="evenodd" stroke="#fff" stroke-linecap="round" stroke-width="1.25" color="#000" overflow="visible" rx="222.77628" ry="222.04817" style="marker:none"/>
  <ellipse cx="236.24379" cy="235.22484" fill="#0066b3" fill-rule="evenodd" stroke="#0066b3" stroke-linecap="round" stroke-width="1.25" color="#000" overflow="visible" rx="207.64207" ry="206.96332" style="marker:none"/>
  <path fill="#fff" fill-rule="evenodd" stroke="#fff" d="M190.45719 77.467593h86.90104c19.08136 5.920917 31.47712 20.148702 39.49942 34.205047 23.21444 40.67538 29.84013 93.6538 29.84013 122.88627 0 64.09329-20.70219 158.06598-76.78278 157.87481h-81.83615c-22.64037-14.31151-67.44173-51.49359-67.44173-152.21212 0-32.80012 2.12337-133.37566 69.82007-162.754007z"/>
  <path fill="#0066b3" stroke="#0066b3" stroke-linecap="round" stroke-linejoin="round" d="M275.34626 80.803324h-81.44044l-7.75624 2.493075C123.62547 129.25481 124.65374 201.36638 124.65374 240.0831c0 50.59264 16.47555 114.04149 60.1108 145.98338 2.85801 1.93024 4.75143 1.93131 6.92521 2.49308h78.11634c8.77543 0 18.35885-3.06709 26.31579-9.14128 26.01717-19.86105 47.66845-68.94507 46.5374-144.32134-.90061-60.01926-18.0751-125.2274-54.56447-148.525838z"/>
  <path fill="#fff" stroke="#fff" stroke-linecap="round" stroke-linejoin="round" d="M188.91967 87.728532h51.80055c-47.63934 52.169898-51.21064 96.569368-52.90859 144.321338-2.38646 67.11541 18.85064 119.05941 64.26593 151.80055l-60.38781-.55402c-45.70637-28.34719-61.49584-89.85736-61.49584-149.8615 0-38.56082 5.70013-116.5536 58.72576-145.706368z"/>
  <path fill="#fff" stroke="#fffff9" stroke-linecap="round" stroke-linejoin="round" d="M270.63712 382.46538c-20.91082 0-75.06925-43.08508-75.06925-151.52355 0-47.92758 22.93074-143.213298 73.13019-143.213298 41.74928 0 68.14405 75.389818 68.14405 148.199448 0 59.11821-16.61009 146.5374-66.20499 146.5374z"/>
  <path fill="#0066b3" stroke="#0066b3" stroke-linejoin="round" d="M251.80055 182.18837c6.90731-.33101 14.48037 34.7535 14.95845 57.89473.58299 16.20563-5.63771 58.62263-14.40443 58.72576-8.67256-.0211-11.82433-26.57687-11.63435-58.17174 1.22025-27.577 4.47001-58.61017 11.08033-58.44875z"/>
  <path fill="none" stroke="#0066b3" stroke-linecap="round" stroke-width="5" d="M268.348 103.32302v24.28843m-45.14618 13.18097 19.87261 19.15631m-34.83036 25.59404 21.71254 12.97524m-27.03068 31.73166h21.93794m-16.8452 52.1026 18.89493-11.70494m-1.26623 65.37454 15.27821-14.88646m30.83342 52.35993.50649-28.07149m40.05344-14.79141-14.98151-14.98151m28.55423-32.44387-16.66326-8.41276m19.0572-39.84365-14.10296.39175m10.71572-45.9059-13.43421 8.15951m-1.59075-58.23209-14.63729 9.97976"/>
  <path fill="none" stroke="#0066b3" stroke-linecap="round" stroke-linejoin="round" stroke-width="5" d="M261.43502 84.629738c-.0386 3.887245 1.58647 16.562212 7.744 16.457532 6.97247-.11853 8.86078-11.15539 8.79637-16.687014m-60.85552 42.427704c3.53097 3.1789 8.14263 8.59404 5.52793 13.80219-1.33154 2.65226-6.67176 2.60056-12.00571 2.21606m-11.77623 29.26235c4.34083 2.14426 9.97519 9.65869 8.24641 13.84971-.98603 2.39041-6.04616 4.02436-11.56235 4.85918m-1.63421 31.59724s7.09412 3.94753 7.41539 7.79153c.38047 4.5524-9.76996 9.3979-9.76996 9.3979m4.47151 39.94277s8.54852-.31789 10.27645 3.26842c2.13251 4.42605-2.39498 10.26994-6.49747 10.75918m15.0725 44.66549c-1.59839-1.46519 7.42681-5.0374 10.07072-1.78087 5.28501 6.5096-1.77747 15.2921-6.94489 9.90439m44.76666 37.84552c-2.4525-7.55526 2.52037-10.80153 7.98909-10.80465 4.35086-.002 6.12979 7.74833 5.8287 11.79999m43.16368-41.34751c-3.88437-3.64714-9.17353-6.47881-5.29438-13.77843 1.52425-2.86825 2.57741-1.9913 10.15764-2.00626m9.1012-33.29866c-5.81547-2.475-9.18879-5.97813-8.08415-11.89098.71188-3.81052 7.53091-4.61995 11.68117-4.97799m2.83322-34.72715c-7.22739-.29974-12.43675-3.89428-12.5122-7.81122-.0546-2.83528 6.03058-8.39047 12.32617-8.59471m-3.27249-36.11218c-4.99171-.60189-11.76143 1.63549-12.07292-1.47602-.68226-6.81517 3.79288-9.73195 8.82419-11.91066m-11.42794-39.86741c-4.5704 3.3948-9.56132 5.61436-11.63365 1.47194-3.30149-6.59942 1.0948-11.51191 4.97392-14.3759m-72.69858 33.44892c-4.83647 8.74634-7.272 19.73165-7.06373 27.42382.17344 6.40595 7.43393 3.95948 8.58727-.69252 1.86022-7.50319 3.99156-11.72273 5.81717-21.32964 1.09105-5.74145-5.76077-8.25885-7.34071-5.40166z"/>
  <path fill="none" stroke="#0066b3" stroke-linecap="round" stroke-linejoin="round" stroke-width="5" d="M230.33241 212.38227c-2.51876-9.80188 1.75958-19.13409 6.2327-26.03878 1.19495-1.84452 6.5722-1.14313 5.81716 3.46261-1.6149 9.85088-.40059 15.70593-4.15513 24.09972-1.43409 3.20612-6.39906 4.29693-7.89473-1.52355z"/>
  <path fill="none" stroke="#0066b3" stroke-linecap="round" stroke-linejoin="round" stroke-width="5" d="M231.02493 216.81441c4.87844-6.55614 5.96038-1.38594 6.23268 2.63157.5801 8.55876 1.64054 16.89928-1.24653 24.65374-2.02749 5.44569-5.40258 3.93879-6.78671.41551-3.05565-7.77813-2.983-21.27219 1.80056-27.70082z"/>
  <path fill="none" stroke="#0066b3" stroke-linecap="round" stroke-linejoin="round" stroke-width="5" d="M228.80886 247.83933c2.35677-5.29792 6.35965-4.28936 7.47922.96954 1.34435 6.31475 2.7434 15.5266.69252 22.99168-1.04856 3.81672-7.81898 3.8181-8.31025.96953-1.19543-6.93153-1.89551-16.69932.13851-24.93075z"/>
  <path fill="none" stroke="#0066b3" stroke-linecap="round" stroke-linejoin="round" stroke-width="5" d="M230.0554 277.06371c-.97715-6.59577 6.81446-6.38389 7.89474-2.90859 2.53619 8.15899 5.3555 15.37396 5.26316 23.96122-.0913 8.48649-9.0011 7.00581-9.8338 1.38505z"/>
  <path fill="none" stroke="#0066b3" stroke-linecap="round" stroke-linejoin="round" stroke-width="5" d="M237.95014 306.28809c-1.06528-6.18389 2.83013-6.92113 5.95568-2.49308 5.35758 7.59024 9.79901 13.22609 11.49584 19.8061.52331 2.02927.58161 13.00081-4.57063 7.75623-6.5062-6.62282-11.28572-15.80938-12.88089-25.06925z"/>
  <path fill="none" stroke="#0066b3" stroke-linecap="round" stroke-linejoin="round" stroke-width="5" d="M255.81717 322.77008c-2.95107-.11475-.97998 5.59967-1.24653 7.47923-.50068 3.5305.7675 6.91758 5.12465 6.23269 2.42621-.38137 2.32481-1.53075 2.49307-4.84765.20353-4.01223-3.9478-8.77004-6.37119-8.86427z"/>
  <path fill="none" stroke="#0066b3" stroke-linecap="round" stroke-linejoin="round" stroke-width="5" d="M263.4349 331.49584c2.25226-4.42319 7.96326-4.02903 11.49585-1.52354 3.53258 2.50549 4.7271 2.34563 3.0471 7.89474-1.72865 5.70975-4.39366 8.12011-8.03325 6.6482-4.80402-1.94282-11.77305-2.68275-6.5097-13.0194z"/>
  <path fill="none" stroke="#0066b3" stroke-linecap="round" stroke-linejoin="round" stroke-width="5" d="m278.80886 323.60111 2.49308-3.18559c1.80731-2.30934 9.42337-2.88649 10.66482.55401.8335 2.30994-5.08539 10.48155-8.17174 11.91136-5.70436 2.64264-7.94394-5.50041-4.98616-9.27978z"/>
  <path fill="none" stroke="#0066b3" stroke-linecap="round" stroke-linejoin="round" stroke-width="5" d="M294.04432 295.34626c-4.22106 4.54587-6.9372 9.27726-9.9723 19.52908-1.65265 5.58224 8.65684 8.72904 10.24931 4.01663l6.7867-20.08311c1.35063-3.99675-4.06129-6.69606-7.06371-3.4626z"/>
  <path fill="none" stroke="#0066b3" stroke-linecap="round" stroke-linejoin="round" stroke-width="5" d="M301.93906 266.5374c-6.77382 6.70201-8.97758 18.79328-7.75623 26.45429.731 4.58526 6.89533 3.28598 8.31024.277 2.10549-4.47757 4.79207-13.73415 4.84765-22.85318.0257-4.21788-3.24502-6.01189-5.40166-3.87811z"/>
  <path fill="none" stroke="#0066b3" stroke-linecap="round" stroke-linejoin="round" stroke-width="5" d="M303.73961 238.28255c-4.51022 7.33747-6.78565 16.20472-4.98615 24.51524 1.04595 4.83043 8.4987 8.13912 10.11081.83102 1.3769-6.24185 1.8131-15.43693.83102-25.20775-2.13246-2.78639-4.14676-3.08135-5.95568-.13851z"/>
  <path fill="none" stroke="#0066b3" stroke-linecap="round" stroke-linejoin="round" stroke-width="5" d="M302.77008 210.58171c-3.1619 10.43512-2.92758 18.12316-.27701 25.62327 1.45014 4.10332 7.19001 6.20798 8.58726-.1385 1.9572-8.88986.65864-17.59076-.96952-26.5928-.68932-3.81121-5.9541-3.46819-7.34073 1.10803z"/>
  <path fill="none" stroke="#0066b3" stroke-linecap="round" stroke-linejoin="round" stroke-width="5" d="M299.16897 184.54295c.31983 12.46572-.59846 19.88992 3.60112 25.20774 1.9631 2.48583 6.38117 2.19884 7.20221-2.35457 1.59682-8.85577.0709-10.44689-3.87811-25.76177-1.04064-4.03578-7.01301-.51289-6.92522 2.9086z"/>
  <path fill="none" stroke="#0066b3" stroke-linecap="round" stroke-linejoin="round" stroke-width="5" d="M291.68975 158.22715c.53702 7.73187 2.33429 11.85572 5.40166 19.39058 2.30238 5.6557 9.65766 8.8797 9.27978 1.52355-.42855-8.34266-4.95883-18.15885-9.27978-26.4543-1.30304-2.50161-5.73634.72159-5.40166 5.54017z"/>
  <path fill="none" stroke="#0066b3" stroke-linecap="round" stroke-linejoin="round" stroke-width="5" d="M280.33241 136.6205c-3.63633-1.36944-6.82907 5.26729-4.01662 7.61773 6.06588 5.06941 8.43835 7.9143 12.45722 10.09279 3.73103 2.02246 8.96655-3.40123 4.99718-7.7591-3.54529-3.89229-9.68586-8.53844-13.43778-9.95142z"/>
  <path fill="none" stroke="#0066b3" stroke-linecap="round" stroke-linejoin="round" stroke-width="5" d="M263.71192 129.41828c-2.66562.94321-5.81728 4.58786-6.5097 8.17174-.74429 3.8524 1.57047 8.30954 6.23268 7.89475 3.95768-.35211 11.86945-3.60698 11.49585-10.11081-.28494-4.96032-7.70617-7.19861-11.21883-5.95568z"/>
  <path fill="none" stroke="#0066b3" stroke-width="5" d="M242.10526 152.82549c2.58919-4.93287 6.72723-11.57025 12.32687-14.12744 5.77014-2.63505 8.07465 3.44128 6.6482 5.81718-3.32847 5.54393-6.67544 10.00984-10.11079 13.2964-5.06941 4.84985-10.47402-1.91929-8.86428-4.98614z"/>
  <path fill="#0066b3" stroke="#0066b3" d="M182.82548 95.207756c11.05674 15.113044 12.16246 16.466624 20.22161 26.731304 8.04416 10.24558 13.04839-1.89687 9.69529-7.89474-5.35648-9.43877-9.2018-16.662121-16.20498-27.008309-4.75138-7.019473-20.19978-.696257-13.71192 8.171745zm25.48477 257.340724c-6.53372 7.01754-12.94311 14.12346-19.39059 21.05263-7.5573 8.12191 4.76037 15.71325 13.64267 7.34072l18.90581-24.8615c6.08781-8.00558-6.04188-11.1748-13.15789-3.53185z"/>
  <path fill="#0066b3" stroke="#0066b3" d="M212.65513 340.11179c-9.16499-1.55519-22.73018-3.82644-30.86843-4.87634-10.05997-1.29782-12.1054 14.31273-2.56232 15.30472 18.12562 1.88413 23.24996 1.64673 34.34903 2.56232 5.5415.45714 4.44835-12.08005-.91828-12.9907z"/>
  <path fill="#0066b3" stroke="#0066b3" stroke-linecap="round" stroke-linejoin="round" d="M155.19391 334.61219c9.53106 1.45527 15.83813 1.28901 23.47645 3.3241 4.30558 1.14714 1.66588 12.16634-3.0471 12.18837-8.46008.0395-17.50655-.0965-21.12188-.55403-13.22893-1.67423-6.15172-16.00347.69253-14.95844z"/>
  <path fill="#0066b3" stroke="#0066b3" d="M187.11911 293.68421c-3.29041 1.24192-22.97734 15.58477-24.65374 18.42105-2.67813 4.53112 5.52077 12.58985 10.11081 9.27978 6.99956-5.04768 14.59491-10.2774 23.4072-17.59003 3.76991-3.12836-4.34927-11.81494-8.86427-10.1108z"/>
  <path fill="#0066b3" stroke="#0066b3" stroke-linecap="round" stroke-linejoin="round" d="M143.4903 324.29363c7.59585-4.13487 14.67396-8.60309 18.14405-10.52632 4.06812-2.25467 10.09343 5.47837 7.20221 8.58726-7.7693 8.35422-9.61881 11.84963-18.14404 17.17451-8.48149 5.29756-13.35704-11.88502-7.20222-15.23545zm22.02217-48.47646c13.58593 2.0123 17.53552 3.07779 29.77839 4.70914 8.31561 1.10805 3.1669 19.09322-2.63158 17.59003-16.83221-4.36355-19.57009-6.02427-31.99446-10.1108-4.15089-1.36528-1.16587-13.07907 4.84765-12.18837z"/>
  <path fill="#0066b3" stroke="#0066b3" d="M130.74792 266.12188c12.4774 3.21506 21.63429 5.53361 33.241 8.86427 4.97262 1.42694-.6076 15.04791-6.6482 13.15789-11.86787-3.7133-15.97007-5.54289-28.94737-11.21883-3.91399-1.71188-1.74701-11.86018 2.35457-10.80333zm23.54571-26.17728c-5.60251 2.98924-2.55141 19.79495 6.09418 15.23546 10.44172-5.50673 18.13307-10.95518 28.53186-16.75901 3.52764-1.96887-.41493-11.47785-4.84764-10.1108-10.40376 2.92818-20.50306 6.68546-29.7784 11.63435z"/>
  <path fill="#0066b3" stroke="#0066b3" d="M130.0554 253.51801c7.93071-4.5597 19.76324-9.44458 22.29917-10.38782 3.93076-1.46205 10.7695 7.44285 6.6482 10.52632-11.45745 8.57223-13.64701 9.61614-25.48477 16.6205-5.19129 3.07167-14.29136-10.5331-3.4626-16.759z"/>
  <path fill="#0066b3" fill-rule="evenodd" stroke="#0066b3" d="M162.60388 206.01108c9.99073 6.87952 17.1159 12.12593 23.2687 16.6205 9.4159 6.87824-3.68722 11.01814-8.86427 8.72576-6.80443-3.01299-14.72797-6.85848-22.43767-11.91136-8.76208-5.7426 1.48609-17.9432 8.03324-13.4349z"/>
  <path fill="#0066b3" fill-rule="evenodd" stroke="#0066b3" d="M160.52632 207.81163c3.74847 2.66455-5.09069 11.78871-9.41828 9.5568-9.96417-5.13893-13.03151-6.70273-23.26871-14.12743-6.24887-4.53211-2.09957-13.35845 2.49308-11.21884 12.22137 5.69366 18.5832 7.53614 30.19391 15.78947zm29.08587-37.67312c5.98418-1.51611 12.04135 15.0138 3.4626 16.48199-12.47664 2.13528-16.21378 2.98468-27.28531 4.29363-4.97899.58865-11.31201-11.13489-3.32411-13.43491 11.60737-3.34219 14.97861-4.25785 27.14682-7.34071z"/>
  <path fill="#0066b3" fill-rule="evenodd" stroke="#0066b3" d="M155.67867 177.34072c12.5229-4.10869 13.20284 14.52889 6.09418 15.92797-12.04398 2.37042-19.37638 5.48859-32.40997 4.70915-8.47573-.50686-3.35413-11.13393 4.29363-13.71191 9.10744-3.07003 12.00667-3.63919 22.02216-6.92521zm9.27977-18.28255c-6.62133-5.66861 3.70016-17.48396 10.24931-12.04986 9.02739 7.49041 11.15717 10.94743 21.46815 20.08311 5.27778 4.67618-6.44542 9.62464-10.80332 7.61772-8.1766-3.76553-12.32059-8.29392-20.91414-15.65097zm43.76733-36.28809c-11.51117 0-13.30623.13851-27.70084.13851-4.68893 0-7.71783 13.98892.1385 13.98892 10.50819 0 16.9044.1385 27.70083.1385 6.70725 0 8.4775-14.26593-.13849-14.26593z"/>
  <path fill="#0066b3" fill-rule="evenodd" stroke="#0066b3" d="M153.3241 121.93906c9.43283 0 11.75743-.55402 24.93075-.55402 6.70607 0 5.85141 16.48199.277 16.48199-10.14052 0-14.21976.0876-22.43767.00001-11.06593-5.85187-11.41208-15.92798-2.77008-15.92798z"/>
  <path fill="#fff" fill-rule="evenodd" stroke="#fff" d="M190.85873 98.393352c6.03997 6.666848 8.99157 11.517158 14.68144 17.174518.63156.62795 2.88978.171 1.93905-1.52355-3.90692-6.96354-8.29708-13.66911-13.5734-20.221605-1.82469-2.266026-6.11551 1.18375-3.04709 4.570637z"/>
  <path fill="#fff" fill-rule="evenodd" stroke="#fff" stroke-opacity=".85576922" d="M153.60111 128.31025c5.9715-.55758 8.90618-.32626 14.68144-.27701 4.25339.0363 4.47962 4.01662.41551 4.01662-4.66708 0-9.23007.1385-14.54293.1385-3.20908 0-6.59152-3.31436-.55402-3.87811z"/>
  <path fill="#fff" fill-rule="evenodd" stroke="#fff" d="M189.8892 127.89473c5.62948 0 7.24326-.0901 14.54293-.277 1.83126-.0469 2.51903 3.55851-.27701 3.60111-7.85579.11968-6.99707-.20279-14.68143-.13851-5.41066.0453-5.60129-3.1856.41551-3.1856zm-12.74239 27.28533c-2.09411-1.7282-6.71466 1.53631-3.04709 4.43213 3.90748 3.08525 6.67657 5.36727 9.9723 8.58726 1.70206 1.66294 6.03681-.52509 2.77009-4.29363-2.87565-3.3174-5.45893-5.22963-9.6953-8.72576z"/>
  <path fill="#0066b3" fill-rule="evenodd" stroke="#0066b3" d="M150.83102 129.00277c7.86239 4.92729 10.3672 8.9806 20.77563 17.72853 4.11902 3.4619-5.05077 13.29245-8.72577 10.94183-6.47128-4.13919-10.74053-7.49511-18.69806-13.01939-5.63881-5.19944.0242-19.80218 6.6482-15.65097z"/>
  <path fill="#fff" fill-rule="evenodd" stroke="#fff" d="M151.31375 135.367c6.46788 4.81584 6.70638 5.18501 14.06021 11.08729 2.80795 2.25369-.66281 4.97794-1.93906 4.15513-6.25624-4.03344-6.04843-2.95006-13.98892-8.31026-5.4017-3.6464-.0234-8.34025 1.86777-6.93216zm16.9688 46.40585c6.32993-1.69877 11.17138-3.70875 18.83656-5.54016 4.77317-1.14043 4.62013 4.71137.55402 5.26315-6.2407.84687-11.27085 2.2214-18.97507 3.3241-2.98159.42675-2.43009-2.50643-.41551-3.04709zm-34.48754 8.31025c7.30145-2.34247 12.27082-3.73247 18.28255-5.12465 3.35552-.77706 6.83386 1.84983 1.66205 3.46261-7.00336 2.18392-9.78568 2.49898-19.11357 4.57063-1.79364.39835-1.80596-2.59581-.83103-2.90859z"/>
  <path fill="#fff" stroke="#fff" d="M164.68144 213.21329c5.82014 3.439 9.30607 6.37693 14.12742 9.41829 4.03765 2.54699 1.06676 4.98955-2.07756 3.32409-5.91586-3.13346-8.85901-4.6955-14.12742-7.89473-3.07135-1.86507-.26156-6.22978 2.07756-4.84765zm-28.36671-13.84056c6.39712 3.48008 6.92214 3.88079 14.10078 8.4389 1.79081 1.13708 1.00995 4.6187-2.77008 2.9086-5.8691-2.65521-7.20558-3.46103-13.43201-6.76006-1.97152-1.0446-2.98781-7.35597 2.10131-4.58744z"/>
  <path fill="#fff" stroke="#fff" stroke-linecap="round" stroke-linejoin="round" d="M160.66482 244.09973c6.65637-3.13667 9.06817-4.42133 19.39059-8.44876.97741-.38135 2.49672 1.24296.69251 2.35457-6.5517 4.03661-9.57297 5.54321-18.69806 10.38781-3.33996 1.77322-4.47129-2.8393-1.38504-4.29362z"/>
  <path fill="#fff" stroke="#fff" d="M132.62553 258.23411c4.24453-2.78785 13.06836-6.16876 17.23596-8.45572 2.09721-1.15084 4.07523 1.90247 1.24654 3.60111-11.44663 6.87374-8.68312 5.8036-17.02616 10.33045-1.77161.96126-3.14104-4.36931-1.45634-5.47584zm34.13348 22.98473c7.55656.7787 12.06502 2.14535 21.74515 4.43213 3.09718.73166 3.27908 6.71281-1.38504 5.26316l-20.49862-6.37119c-2.7026-.84-1.59107-3.50233.13851-3.3241zm-31.99447-9.5568c7.9154 2.53855 14.25562 4.18655 22.29917 6.5097 2.44165.7052 1.28073 5.37884-1.93906 4.43215-8.50307-2.50011-13.58156-3.6263-21.05263-7.61774-2.63308-1.40673-.0896-3.57496.69252-3.32411zm33.44876 40.58173c1.01187-2.76017 16.41607-12.49566 20.29085-14.61219 1.85652-1.01408 4.58756 1.79037 2.83934 3.3241-1.5327 1.34465-13.16857 11.0359-19.73684 14.75069-2.26536 1.28122-4.01158-1.7762-3.39335-3.4626z"/>
  <path fill="#fff" stroke="#fff" stroke-linecap="round" stroke-linejoin="round" d="M147.57414 328.13322c5.14885-3.73505 8.34774-6.54073 14.68347-8.82575 1.32852-.47914 2.58427.28827 1.66206 1.38505-4.96487 5.90474-8.79146 8.66651-14.03153 12.98579-.98211-2.17622-1.80926-3.77441-2.314-5.54509zm62.33382 17.24521c-8.8573-1.46369-16.8577-2.8051-25.05388-3.5255-4.64038-.001-3.45875 5.5279-1.05907 5.57089 8.55027.15318 17.39911.48422 25.34626.48969.60725.00041.76669-2.53508.76669-2.53508zm-55.51495-4.96239c6.68999-.13131 12.92238.29711 19.79625 1.9657 1.39663.33903 1.91551 2.49304.34974 2.57277-7.03671.35832-10.70029.49874-18.35096-.24339-1.0045-1.50656-1.53681-2.01876-1.79503-4.29508z"/>
  <path fill="#fff" stroke="#fff" d="M192.52078 376.92521c8.06698-9.09645 12.62302-13.24353 19.11355-19.11358 1.27897-1.1567 3.79495-.25842 1.93908 2.21607l-2.49308 3.3241c-4.68046 6.08042-9.57958 11.31106-13.71191 15.92797-2.12349 2.3725-6.80859-.14336-4.84764-2.35456z"/>
</svg>