<?xml version="1.0" encoding="UTF-8"?><svg id="svg2" xmlns="http://www.w3.org/2000/svg" width="1090.4000244140625" height="625.4000244140625" viewBox="0 0 1090.4000244140625 625.4000244140625"><defs><style>.cls-1{fill:#0066b3;}.cls-2{fill:#fff;}</style></defs><path id="path3967" class="cls-1" d="M1003.543701171875,625.20001220703125c47.53173828125,0,86.65625-39.12451171875,86.65625-86.65625V86.85626220703125c0-47.532920837402344-39.125732421875-86.656262204051018-86.65625-86.656262204051018H86.856300354003906C39.325801849365234,.200000002980232,.200000002980232,39.323360443115234,.200000002980232,86.856246948242188v451.687515258789062c0,47.53167724609375,39.124501034617424,86.65625,86.656300351023674,86.65625H1003.543701171875Z"/><path id="path4012" class="cls-2" d="M1003.543701171875,595.20001220703125c31.1185302734375,0,56.65625-25.5377197265625,56.65625-56.65625V86.85626220703125c0-31.119823455810547-25.53857421875-56.656261444091797-56.65625-56.656261444091797H86.8563232421875c-31.117721557617188,0-56.656322479248047,25.536449432373047-56.656322479248047,56.656246185302734v451.687515258789062c0,31.1185302734375,25.537700653076172,56.65625,56.656299591064453,56.65625H1003.543701171875Z"/><path id="path4014" class="cls-1" d="M86.866798400878906,580.20001220703125c-23.011997222900391,0-41.666797637939453-18.65478515625-41.666797637939453-41.666748046875V86.86639404296875c0-23.013919830322266,18.654800415039062-41.666740417480469,41.666805267333984-41.666740417480469H1003.5333251953125c23.0118408203125,0,41.666748046875,18.652820587158203,41.666748046875,41.666740417480469v451.6668701171875c0,23.011962890625-18.65478515625,41.666748046875-41.66668701171875,41.666748046875H86.866798400878906Z"/><path id="path4055" class="cls-2" d="M131.763198852539062,312.74981689453125c-.0050048828125-1.1942138671875,.753097534179688-2.38470458984375,2.3125-3.3125L431.60577392578125,134.407211303710938c25.7401123046875-11.843597412109375,49.535797119140625-23.768402099609375,65.40625-7.9375,15.87042236328125,15.870498657226562,1.927001953125,41.653396606445312-5.96875,51.5625-7.935211181640625,9.869705200195312-53.53125,73.218795776367188-53.53125,73.218795776367188H952.13702392578125c3.5531005859375,0,6.5,3.001205444335938,6.5,6.59368896484375v109.709991455078125c0,3.59259033203125-2.9468994140625,6.59381103515625-6.5,6.59381103515625H437.51202392578125s45.596038818359375,63.349090576171875,53.53125,73.21868896484375c7.895751953125,9.909210205078125,21.83917236328125,35.692108154296875,5.96875,51.5625-15.870452880859375,15.83099365234375-39.6661376953125,3.90618896484375-65.40625-7.9375L134.075698852539062,316.06231689453125c-1.559402465820312-.927703857421875-2.31744384765625-2.118194580078125-2.3125-3.3125Z"/></svg>