<?xml version="1.0" encoding="UTF-8" standalone="no"?>
<!-- Created with Inkscape (http://www.inkscape.org/) -->

<svg
   xmlns:osb="http://www.openswatchbook.org/uri/2009/osb"
   xmlns:dc="http://purl.org/dc/elements/1.1/"
   xmlns:cc="http://creativecommons.org/ns#"
   xmlns:rdf="http://www.w3.org/1999/02/22-rdf-syntax-ns#"
   xmlns:svg="http://www.w3.org/2000/svg"
   xmlns="http://www.w3.org/2000/svg"
   xmlns:xlink="http://www.w3.org/1999/xlink"
   xmlns:sodipodi="http://sodipodi.sourceforge.net/DTD/sodipodi-0.dtd"
   xmlns:inkscape="http://www.inkscape.org/namespaces/inkscape"
   version="1.1"
   width="1800.4003"
   height="300.40027"
   id="svg2"
   xml:space="preserve"
   inkscape:version="0.48.4 r9939"
   sodipodi:docname="Ajax.svg"><sodipodi:namedview
     pagecolor="#ffffff"
     bordercolor="#666666"
     borderopacity="1"
     objecttolerance="10"
     gridtolerance="10"
     guidetolerance="10"
     inkscape:pageopacity="0"
     inkscape:pageshadow="2"
     inkscape:window-width="1280"
     inkscape:window-height="1001"
     id="namedview28"
     showgrid="false"
     fit-margin-top="0.2"
     fit-margin-left="0.2"
     fit-margin-right="0.2"
     fit-margin-bottom="0.2"
     inkscape:zoom="0.40989584"
     inkscape:cx="923.1912"
     inkscape:cy="-102.26494"
     inkscape:window-x="-8"
     inkscape:window-y="-8"
     inkscape:window-maximized="1"
     inkscape:current-layer="svg2" /><metadata
     id="metadata8"><rdf:RDF><cc:Work
         rdf:about=""><dc:format>image/svg+xml</dc:format><dc:type
           rdf:resource="http://purl.org/dc/dcmitype/StillImage" /><dc:title /></cc:Work></rdf:RDF></metadata><defs
     id="defs6"><linearGradient
       id="linearGradient15703"
       osb:paint="solid"><stop
         style="stop-color:#ffffff;stop-opacity:1;"
         offset="0"
         id="stop15705" /></linearGradient><linearGradient
       inkscape:collect="always"
       xlink:href="#linearGradient15703"
       id="linearGradient15707"
       x1="-37.125"
       y1="465.375"
       x2="967.87512"
       y2="465.375"
       gradientUnits="userSpaceOnUse"
       gradientTransform="translate(961.6578,56.04101)" /></defs><g
     id="g2991"
     transform="matrix(34.167339,0,0,34.167339,14.96955,-265.98947)" /><path
     style="font-size:medium;font-style:normal;font-variant:normal;font-weight:normal;font-stretch:normal;text-indent:0;text-align:start;text-decoration:none;line-height:normal;letter-spacing:normal;word-spacing:normal;text-transform:none;direction:ltr;block-progression:tb;writing-mode:lr-tb;text-anchor:start;baseline-shift:baseline;color:#000000;fill:#000000;fill-opacity:1;fill-rule:nonzero;stroke:none;stroke-width:30;marker:none;visibility:visible;display:inline;overflow:visible;enable-background:accumulate;font-family:Sans;-inkscape-font-specification:Sans"
     d="m 1743.544,300.20026 c 31.1185,0 56.6563,-25.5377 56.6563,-56.6563 l 0,-186.68776 C 1800.2003,25.7364 1774.6619,0.2 1743.544,0.2 L 56.8563,0.2 C 25.7386,0.2 0.2,25.7364 0.2,56.8562 l 0,186.68776 c 0,31.1186 25.5377,56.6563 56.6563,56.6563 z"
     id="path14428"
     inkscape:connector-curvature="0"
     sodipodi:nodetypes="sssssssss" /><path
     inkscape:connector-curvature="0"
     d="m 56.8668,285.20026 c -23.012,0 -41.6668,-18.6548 -41.6668,-41.6668 l 0,-186.66706 c 0,-23.014 18.6548,-41.6668 41.6668,-41.6668 l 1686.6669,0 c 23.0119,0 41.6666,18.6528 41.6666,41.6668 l 0,186.66706 c 0,23.012 -18.6547,41.6668 -41.6666,41.6668 z"
     style="fill:#ffffff;fill-opacity:1;fill-rule:nonzero;stroke:none"
     id="path14430"
     sodipodi:nodetypes="sssssssss" /><g
     transform="translate(-2.12693,-770.668)"
     id="text2814"
     style="font-size:250px;font-style:normal;font-variant:normal;font-weight:normal;font-stretch:normal;text-align:center;text-anchor:middle;fill:#000000;fill-opacity:1;stroke:none;font-family:'Rounded M+ 1p medium';-inkscape-font-specification:'Rounded M+ 1p medium,'"><path
       inkscape:connector-curvature="0"
       d="m 238.24921,853.3631 c -2.24819,-2.16659 -3.37225,-4.91698 -3.3722,-8.25119 -5e-5,-3.33388 1.12528,-6.08427 3.37601,-8.25119 2.25061,-2.16657 4.95777,-3.24994 8.12149,-3.25012 l 122.00165,0 c 3.16855,1.8e-4 5.87826,1.08355 8.12912,3.25012 2.25047,2.16692 3.37581,4.91731 3.37601,8.25119 -2e-4,3.33421 -1.12554,6.0846 -3.37601,8.25119 -2.25086,2.1669 -4.96057,3.25028 -8.12912,3.25012 l -122.00165,0 c -3.16372,1.6e-4 -5.87215,-1.08322 -8.1253,-3.25012 z m 69.12994,170.2499 c -29.33258,0 -52.49921,-4.9171 -69.49997,-14.7514 -17.00087,-9.83427 -25.50128,-22.83348 -25.50125,-38.99765 -3e-5,-15.00441 9.6664,-32.75545 28.99933,-53.25317 2.33453,-2.50234 5.2515,-3.83621 8.75091,-4.00162 3.49928,-0.1652 6.58155,0.83552 9.24683,3.00217 2.50236,1.999 3.83623,4.6235 4.00162,7.87353 0.16522,3.25021 -0.8355,6.04257 -3.00217,8.37708 -14.16531,15.1673 -21.24792,27.00048 -21.24786,35.49957 -6e-5,9.83178 6.00045,17.70658 18.00155,23.62442 12.00095,5.91789 28.75127,8.87682 50.25101,8.8768 22.50148,2e-5 46.16784,-2.75165 70.99915,-8.255 3.16854,-0.66628 6.12747,-0.16528 8.8768,1.50299 2.74891,1.66831 4.54055,4.16821 5.3749,7.49968 0.83394,3.3315 0.33421,6.4151 -1.49917,9.2507 -1.83381,2.8355 -4.33497,4.5865 -7.50351,5.2528 -26.49961,5.6661 -51.91564,8.4991 -76.24817,8.4991 z"
       id="path2820"
       style="fill:#000000;font-family:'Rounded M+ 1p medium';-inkscape-font-specification:'Rounded M+ 1p medium,'" /><path
       inkscape:connector-curvature="0"
       d="m 544.63043,855.362 c -21.83542,3.8352 -39.12742,13.08583 -51.87607,27.75192 -12.74876,14.66636 -19.12312,32.74928 -19.12307,54.24881 -5e-5,14.16531 2.95761,26.45625 8.87298,36.87287 5.91527,10.41669 11.70597,15.62502 17.37213,15.625 2.66513,2e-5 5.41553,-1.12532 8.25119,-3.37601 2.83552,-2.25064 6.00298,-6.45952 9.50241,-12.62665 3.49926,-6.16705 6.874,-13.99988 10.12421,-23.49853 3.25002,-9.49853 6.5421,-22.2892 9.87625,-38.37204 3.33394,-16.08265 6.24964,-34.37538 8.7471,-54.87824 -1.1e-4,-0.4983 -0.16669,-0.95606 -0.49972,-1.37329 -0.33327,-0.41692 -0.74907,-0.54153 -1.24741,-0.37384 z m -44.75403,159.5001 c -12.83269,0 -24.58195,-7.4997 -35.2478,-22.49906 -10.66592,-14.99936 -15.99886,-33.33277 -15.99884,-55.00031 -2e-5,-31.83481 10.83244,-57.70988 32.49741,-77.62527 21.66486,-19.91509 49.99913,-29.87271 85.0029,-29.8729 28.16756,1.9e-4 51.4588,8.83247 69.87381,26.49689 18.41459,17.66473 27.62199,40.08241 27.62222,67.25311 -2.3e-4,25.99596 -6.04144,47.32772 -18.12363,63.99536 -12.08262,16.66768 -28.6244,27.25218 -49.62539,31.75358 -3.33167,0.6663 -6.41394,0 -9.24683,-2.0028 -2.8332,-2.0014 -4.6668,-4.7518 -5.50079,-8.2511 -0.66645,-3.1637 -0.0828,-6.0794 1.75094,-8.7471 1.83345,-2.66777 4.33207,-4.41872 7.49588,-5.25288 15.50276,-4.16563 27.41986,-12.33161 35.75134,-24.49799 8.3311,-12.16628 12.49675,-27.83196 12.49695,-46.99707 -2e-4,-18.83432 -5.95748,-34.66911 -17.87185,-47.50442 -11.91475,-12.83504 -27.20532,-20.16815 -45.87174,-21.99936 -1.33783,-0.33553 -2.17197,0.33077 -2.50244,1.9989 -3.83518,31.49935 -8.37721,58.04072 -13.6261,79.62418 -5.24914,21.58361 -11.12377,37.91686 -17.6239,48.99978 -6.50035,11.08299 -13.00059,18.87516 -19.50073,23.37646 -6.50033,4.5014 -13.75079,6.752 -21.75141,6.752 z"
       id="path2822"
       style="fill:#000000;font-family:'Rounded M+ 1p medium';-inkscape-font-specification:'Rounded M+ 1p medium,'" /><path
       inkscape:connector-curvature="0"
       d="m 795.12634,929.86304 c -5.83405,50.6643 -32.41738,84.41416 -79.75006,101.24966 -3.33153,1.1648 -6.70626,0.9969 -10.1242,-0.5035 -3.41799,-1.5005 -5.8772,-3.9164 -7.37763,-7.2479 -1.33262,-3.0009 -1.33134,-6.0425 0.004,-9.1248 1.33512,-3.0823 3.58452,-5.2083 6.74819,-6.3782 18.4987,-6.8308 33.29081,-16.955 44.37638,-30.37258 11.08543,-13.41751 17.79293,-29.29173 20.12253,-47.62268 0.16775,-0.50346 10e-4,-0.9218 -0.49973,-1.25504 -0.50108,-0.33306 -1.00081,-0.49964 -1.49918,-0.49972 l -59.99755,0 c -3.16877,8e-5 -5.8772,-1.12398 -8.12531,-3.3722 -2.24814,-2.24803 -3.37221,-5.04039 -3.37219,-8.37707 -2e-5,-3.16356 1.08336,-5.87072 3.25012,-8.12149 2.16673,-2.25057 4.91585,-3.3759 8.24738,-3.37601 l 86.99798,0 c 1.33249,1.1e-4 1.99879,-0.75011 1.9989,-2.25067 l 0,-38.00201 c -1.1e-4,-1.5003 -0.66641,-2.25052 -1.9989,-2.25068 l -45.24994,0 c -1.50051,1.6e-4 -2.49996,0.58508 -2.99835,1.75477 -4.33356,9.16558 -8.66705,17.41549 -13.00049,24.74975 -1.8311,3.16378 -4.62219,5.2466 -8.37326,6.24848 -3.75116,1.00211 -7.21108,0.58503 -10.37979,-1.25123 -3.16368,-1.66817 -5.12062,-4.16806 -5.87082,-7.49969 -0.75025,-3.33137 -0.20983,-6.49757 1.62125,-9.4986 9.83679,-16.16907 18.00532,-34.16934 24.50561,-54.00085 1.1647,-3.33131 3.24753,-5.8719 6.24848,-7.62177 3.00083,-1.74947 6.16703,-2.20851 9.49859,-1.3771 3.33143,0.8318 5.91398,2.79001 7.74765,5.87463 1.83352,3.08501 2.25187,6.29317 1.25504,9.62448 -0.50362,1.83124 -1.42169,4.58036 -2.75421,8.24738 -0.33068,1.50062 0.17031,2.25084 1.50299,2.25067 l 36.24725,0 c 1.33249,1.7e-4 1.99879,-0.75005 1.9989,-2.25067 l 0,-13.99994 c -1.1e-4,-3.667 1.33376,-6.87516 4.00162,-9.62448 2.66762,-2.74892 5.91774,-4.12349 9.75037,-4.12369 3.83236,2e-4 7.08248,1.37477 9.75036,4.12369 2.66761,2.74932 4.00148,5.95748 4.00162,9.62448 l 0,13.99994 c -1.4e-4,1.50062 0.66616,2.25084 1.9989,2.25067 l 64.24713,0 c 3.16853,1.7e-4 5.83628,1.08355 8.00324,3.25012 2.16653,2.16692 3.2499,4.83339 3.25012,7.99942 -2.2e-4,3.16636 -1.08359,5.83283 -3.25012,7.99942 -2.16696,2.1669 -4.83471,3.25028 -8.00324,3.25012 l -64.24713,0 c -1.33274,1.6e-4 -1.99904,0.75038 -1.9989,2.25068 l 0,38.00201 c -1.4e-4,1.50056 0.66616,2.25078 1.9989,2.25067 l 79.49829,0 c 3.33128,1.1e-4 6.0804,1.12544 8.24738,3.37601 2.16651,2.25077 3.24989,4.95793 3.25012,8.12149 -2.3e-4,3.33668 -1.1243,6.12904 -3.37219,8.37707 -2.24836,2.24822 -4.95679,3.37228 -8.12531,3.3722 l -54.49676,0 c -1.33277,8e-5 -1.99907,0.66638 -1.9989,1.9989 l 0,66.00189 c -1.7e-4,6.00183 1.04124,9.58633 3.12423,10.75363 2.08266,1.1673 8.70624,1.751 19.87076,1.7509 5.6659,10e-5 9.58232,-0.1258 11.74927,-0.3776 2.16654,-0.2518 4.29133,-1.5017 6.37436,-3.7499 2.08261,-2.2481 3.37452,-5.37231 3.87573,-9.37267 0.50078,-4.00032 1.08443,-10.25006 1.75095,-18.74923 0.33548,-3.33655 1.75327,-6.08822 4.25338,-8.25501 2.49968,-2.1667 5.41538,-3.16615 8.74711,-2.99835 3.33127,0.16789 6.12235,1.58442 8.37326,4.24957 2.25043,2.66525 3.21046,5.66614 2.88009,9.00269 -0.66654,8.99762 -1.33411,16.16289 -2.00271,21.49582 -0.66908,5.33298 -1.83638,10.16618 -3.5019,14.49968 -1.66598,4.3335 -3.37369,7.5009 -5.12313,9.5024 -1.74991,2.0014 -4.66687,3.6684 -8.75092,5.0011 -4.08448,1.3325 -8.16748,2.1235 -12.24899,2.3727 -4.08193,0.2492 -9.87391,0.3738 -17.37595,0.3738 -9.33347,0 -16.58266,-0.2085 -21.74759,-0.6256 -5.16526,-0.4171 -9.78994,-1.1253 -13.87405,-2.1248 -4.08442,-0.9994 -6.95943,-2.7071 -8.62503,-5.1231 -1.6659,-2.416 -2.87388,-5.291 -3.62396,-8.625 -0.75037,-3.3341 -1.12548,-7.8341 -1.12534,-13.5002 l 0,-71.50272 c -1.4e-4,-1.33252 -0.66898,-1.99882 -2.00653,-1.9989 l -22.24732,0 c -1.33271,8e-5 -2.08293,0.585 -2.25067,1.75476 z"
       id="path2824"
       style="fill:#000000;font-family:'Rounded M+ 1p medium';-inkscape-font-specification:'Rounded M+ 1p medium,'" /><path
       inkscape:connector-curvature="0"
       d="m 1006.3766,863.86115 -37.49843,33.99658 c -2.16678,2.0041 -4.7506,2.67167 -7.75146,2.00271 -3.00092,-0.66873 -5.16767,-2.33575 -6.50025,-5.00107 -1.50046,-3.33138 -1.87558,-6.78876 -1.12533,-10.37216 0.7502,-3.58314 2.45791,-6.62599 5.12314,-9.12857 l 38.25378,-34.99603 c 6.66805,-6.16946 14.66875,-9.25427 24.00205,-9.25446 3.8299,1.9e-4 7.0787,1.33406 9.7466,4.00162 2.6676,2.66792 4.0015,5.91931 4.0016,9.75418 l 0,154.99878 c -10e-5,3.82997 -1.334,7.07877 -4.0016,9.74657 -2.6679,2.6677 -5.876,4.0016 -9.6245,4.0016 -3.7487,0 -6.9988,-1.3339 -9.7504,-4.0016 -2.7517,-2.6678 -4.1275,-5.9166 -4.1275,-9.74657 l 0,-136.00158 c 0,-0.1677 -0.081,-0.25162 -0.2441,-0.25178 z"
       id="path2826"
       style="fill:#000000;font-family:'Rounded M+ 1p medium';-inkscape-font-specification:'Rounded M+ 1p medium,'" /><path
       inkscape:connector-curvature="0"
       d="m 1197.7142,866.9892 c -6.5817,-10.92005 -16.622,-16.38015 -30.1208,-16.38031 -13.499,1.6e-4 -23.5406,5.45899 -30.1247,16.37649 -6.5842,10.9178 -9.8763,29.37583 -9.8762,55.37415 -10e-5,25.9985 3.292,44.45653 9.8762,55.37414 6.5841,10.91769 16.6257,16.37652 30.1247,16.3765 13.4988,2e-5 23.5404,-5.45881 30.1246,-16.3765 6.5841,-10.91761 9.8762,-29.37564 9.8763,-55.37414 -10e-5,-25.99832 -3.2935,-44.45508 -9.8801,-55.37033 z m 20.5002,126.87683 c -11.2458,14.83157 -28.1195,22.24727 -50.621,22.24727 -22.5017,0 -39.3766,-7.417 -50.6249,-22.25109 -11.2483,-14.83405 -16.8724,-38.66825 -16.8724,-71.50268 0,-32.83425 5.6241,-56.66718 16.8724,-71.49887 11.2483,-14.83137 28.1232,-22.24713 50.6249,-22.24732 22.5015,1.9e-4 39.3764,7.41595 50.6248,22.24732 11.2482,14.83169 16.8723,38.66462 16.8724,71.49887 -10e-5,32.83443 -5.6255,56.6699 -16.8762,71.5065 z"
       id="path2828"
       style="fill:#000000;font-family:'Rounded M+ 1p medium';-inkscape-font-specification:'Rounded M+ 1p medium,'" /><path
       inkscape:connector-curvature="0"
       d="m 1355.4291,866.9892 c -6.5817,-10.92005 -16.622,-16.38015 -30.1209,-16.38031 -13.499,1.6e-4 -23.5405,5.45899 -30.1246,16.37649 -6.5842,10.9178 -9.8763,29.37583 -9.8763,55.37415 0,25.9985 3.2921,44.45653 9.8763,55.37414 6.5841,10.91769 16.6256,16.37652 30.1246,16.3765 13.4989,2e-5 23.5404,-5.45881 30.1247,-16.3765 6.584,-10.91761 9.8761,-29.37564 9.8762,-55.37414 -10e-5,-25.99832 -3.2934,-44.45508 -9.88,-55.37033 z m 20.5002,126.87683 c -11.2459,14.83157 -28.1195,22.24727 -50.6211,22.24727 -22.5017,0 -39.3766,-7.417 -50.6248,-22.25109 -11.2483,-14.83405 -16.8724,-38.66825 -16.8724,-71.50268 0,-32.83425 5.6241,-56.66718 16.8724,-71.49887 11.2482,-14.83137 28.1231,-22.24713 50.6248,-22.24732 22.5016,1.9e-4 39.3765,7.41595 50.6249,22.24732 11.2481,14.83169 16.8722,38.66462 16.8724,71.49887 -2e-4,32.83443 -5.6256,56.6699 -16.8762,71.5065 z"
       id="path2830"
       style="fill:#000000;font-family:'Rounded M+ 1p medium';-inkscape-font-specification:'Rounded M+ 1p medium,'" /><path
       inkscape:connector-curvature="0"
       d="m 1447.2717,938.61395 0,62.50005 c 0,3.4993 -1.208,6.457 -3.6239,8.8729 -2.416,2.416 -5.3737,3.624 -8.873,3.624 -3.4994,0 -6.4583,-1.208 -8.8768,-3.624 -2.4186,-2.4159 -3.6278,-5.3736 -3.6278,-8.8729 l 0,-105.49931 c 0,-3.33647 1.1673,-6.17079 3.5019,-8.50297 2.3346,-2.33192 5.085,-3.49794 8.2512,-3.49807 3.1662,1.3e-4 5.9572,1.16615 8.3732,3.49807 2.416,2.33218 3.7079,5.1665 3.8758,8.50297 l 0.2517,5.24902 c 0,0.16287 0.084,0.24425 0.2518,0.24414 0.3306,1.1e-4 0.4959,-0.0813 0.4959,-0.24414 9.5011,-13.16821 20.3348,-19.75237 32.5012,-19.7525 15.6656,1.3e-4 27.1657,7.41589 34.5002,22.24731 -1e-4,0.16796 0.1664,0.25188 0.4997,0.25177 0.333,1.1e-4 0.4996,-0.0838 0.4997,-0.25177 9.501,-14.83142 21.8352,-22.24718 37.0026,-22.24731 13.6666,1.3e-4 23.7501,3.91655 30.2505,11.74926 6.5001,7.83296 9.7502,20.58421 9.7504,38.25379 l 0,70.24384 c -2e-4,3.3366 -1.2094,6.2129 -3.6278,8.6288 -2.4187,2.416 -5.2937,3.624 -8.625,3.624 -3.3317,0 -6.2067,-1.208 -8.625,-3.624 -2.4187,-2.4159 -3.628,-5.2922 -3.6278,-8.6288 l 0,-62.74415 c -2e-4,-14.66869 -1.5833,-24.58689 -4.7493,-29.75464 -3.1664,-5.16753 -8.8337,-7.75135 -17.0021,-7.75146 -6.831,1.1e-4 -12.9129,3.70927 -18.2457,11.12747 -5.3331,7.41841 -7.9996,16.21128 -7.9994,26.37863 l 0,62.74415 c -2e-4,3.3366 -1.2081,6.2129 -3.624,8.6288 -2.4161,2.416 -5.2911,3.624 -8.625,3.624 -3.3342,0 -6.2092,-1.208 -8.6251,-3.624 -2.416,-2.4159 -3.624,-5.2922 -3.6239,-8.6288 l 0,-62.74415 c -1e-4,-14.66869 -1.5845,-24.58689 -4.7531,-29.75464 -3.1689,-5.16753 -8.835,-7.75135 -16.9983,-7.75146 -6.836,1.1e-4 -12.9205,3.70927 -18.2534,11.12747 -5.3329,7.41841 -7.9994,16.21128 -7.9994,26.37863 z"
       id="path2832"
       style="fill:#000000;font-family:'Rounded M+ 1p medium';-inkscape-font-specification:'Rounded M+ 1p medium,'" /></g></svg>