<?xml version="1.0" encoding="UTF-8" standalone="no"?>
<!-- Created with Inkscape (http://www.inkscape.org/) -->

<svg
   xmlns:osb="http://www.openswatchbook.org/uri/2009/osb"
   xmlns:dc="http://purl.org/dc/elements/1.1/"
   xmlns:cc="http://creativecommons.org/ns#"
   xmlns:rdf="http://www.w3.org/1999/02/22-rdf-syntax-ns#"
   xmlns:svg="http://www.w3.org/2000/svg"
   xmlns="http://www.w3.org/2000/svg"
   xmlns:xlink="http://www.w3.org/1999/xlink"
   xmlns:sodipodi="http://sodipodi.sourceforge.net/DTD/sodipodi-0.dtd"
   xmlns:inkscape="http://www.inkscape.org/namespaces/inkscape"
   version="1.1"
   width="1800.4003"
   height="300.40027"
   id="svg2"
   xml:space="preserve"
   inkscape:version="0.48.4 r9939"
   sodipodi:docname="Ajax.svg"><sodipodi:namedview
     pagecolor="#ffffff"
     bordercolor="#666666"
     borderopacity="1"
     objecttolerance="10"
     gridtolerance="10"
     guidetolerance="10"
     inkscape:pageopacity="0"
     inkscape:pageshadow="2"
     inkscape:window-width="1280"
     inkscape:window-height="1001"
     id="namedview28"
     showgrid="false"
     fit-margin-top="0.2"
     fit-margin-left="0.2"
     fit-margin-right="0.2"
     fit-margin-bottom="0.2"
     inkscape:zoom="0.40989584"
     inkscape:cx="741.39465"
     inkscape:cy="99.45197"
     inkscape:window-x="-8"
     inkscape:window-y="-8"
     inkscape:window-maximized="1"
     inkscape:current-layer="svg2"
     showguides="true"
     inkscape:guide-bbox="true" /><metadata
     id="metadata8"><rdf:RDF><cc:Work
         rdf:about=""><dc:format>image/svg+xml</dc:format><dc:type
           rdf:resource="http://purl.org/dc/dcmitype/StillImage" /><dc:title /></cc:Work></rdf:RDF></metadata><defs
     id="defs6"><linearGradient
       id="linearGradient15703"
       osb:paint="solid"><stop
         style="stop-color:#ffffff;stop-opacity:1;"
         offset="0"
         id="stop15705" /></linearGradient><linearGradient
       inkscape:collect="always"
       xlink:href="#linearGradient15703"
       id="linearGradient15707"
       x1="-37.125"
       y1="465.375"
       x2="967.87512"
       y2="465.375"
       gradientUnits="userSpaceOnUse"
       gradientTransform="translate(961.6578,56.04101)" /></defs><g
     id="g2991"
     transform="matrix(34.167339,0,0,34.167339,15.56955,-266.5895)" /><path
     style="font-size:medium;font-style:normal;font-variant:normal;font-weight:normal;font-stretch:normal;text-indent:0;text-align:start;text-decoration:none;line-height:normal;letter-spacing:normal;word-spacing:normal;text-transform:none;direction:ltr;block-progression:tb;writing-mode:lr-tb;text-anchor:start;baseline-shift:baseline;color:#000000;fill:#000000;fill-opacity:1;fill-rule:nonzero;stroke:none;stroke-width:30;marker:none;visibility:visible;display:inline;overflow:visible;enable-background:accumulate;font-family:Sans;-inkscape-font-specification:Sans"
     d="m 1743.544,300.20026 c 31.1185,0 56.6563,-25.5377 56.6563,-56.6563 l 0,-186.68776 C 1800.2003,25.7364 1774.6619,0.2 1743.544,0.2 L 56.8563,0.2 C 25.7386,0.2 0.2,25.7364 0.2,56.8562 l 0,186.68776 c 0,31.1186 25.5377,56.6563 56.6563,56.6563 z"
     id="path14428"
     inkscape:connector-curvature="0"
     sodipodi:nodetypes="sssssssss" /><path
     inkscape:connector-curvature="0"
     d="m 56.8668,285.20026 c -23.012,0 -41.6668,-18.6548 -41.6668,-41.6668 l 0,-186.66706 c 0,-23.014 18.6548,-41.6668 41.6668,-41.6668 l 1686.6669,0 c 23.0119,0 41.6666,18.6528 41.6666,41.6668 l 0,186.66706 c 0,23.012 -18.6547,41.6668 -41.6666,41.6668 z"
     style="fill:#ffffff;fill-opacity:1;fill-rule:nonzero;stroke:none"
     id="path14430"
     sodipodi:nodetypes="sssssssss" /><path
     inkscape:connector-curvature="0"
     d="m 415.01615,155.7011 c -12.50211,3.16373 -22.00324,7.78714 -28.50343,13.87023 -6.50028,6.08324 -9.7504,12.95986 -9.75036,20.62989 -4e-5,9.99963 3.70911,17.87443 11.12747,23.62442 7.41826,5.75004 17.54372,8.62505 30.37644,8.62503 12.83255,2e-5 22.79018,-2.87499 29.87291,-8.62503 7.0825,-5.74999 10.62381,-13.62479 10.62393,-23.62442 -1.2e-4,-17.00331 -13.24982,-28.50334 -39.74916,-34.50012 -1.33268,-0.33561 -2.66528,-0.33561 -3.9978,0 z m -31.50178,-51.75019 c -4e-5,6.66314 2.75035,12.62042 8.25119,17.87186 5.50074,5.25168 13.58407,9.12614 24.25004,11.62338 1.50037,0.3358 3.00082,0.3358 4.50134,0 10.83365,-2.83294 19.12553,-6.87397 24.87565,-12.12311 5.74991,-5.24889 8.62492,-11.0396 8.62503,-17.37213 -1.1e-4,-8.000539 -3.08365,-14.334212 -9.25064,-19.001002 -6.16719,-4.66649 -15.00076,-6.99981 -26.50071,-6.99997 -11.33226,1.6e-4 -19.95729,2.29152 -25.8751,6.87408 -5.91791,4.58288 -8.87684,10.958503 -8.8768,19.126892 z m 84.37349,125.74765 c -11.91723,9.5012 -28.45901,14.2517 -49.6254,14.2517 -21.16655,0 -37.70706,-4.7505 -49.6216,-14.2517 -11.91459,-9.50108 -17.87187,-22.25233 -17.87186,-38.25375 -1e-5,-9.66384 3.2908,-18.62074 9.87244,-26.87073 6.58159,-8.24983 15.70635,-14.62546 27.37427,-19.12689 0.1678,1e-4 0.25172,-0.0826 0.25177,-0.24796 -5e-5,-0.1652 -0.084,-0.24785 -0.25177,-0.24795 -9.83178,-4.3334 -17.45609,-10.33391 -22.87293,-18.00156 -5.41689,-7.66742 -8.12532,-16.16783 -8.12531,-25.50125 -10e-6,-13.498792 5.41685,-24.373212 16.25062,-32.623292 10.8337,-8.249739 25.83307,-12.374689 44.99818,-12.374879 19.16494,1.9e-4 34.16433,4.12514 44.99818,12.374879 10.83362,8.25008 16.25048,19.1245 16.25062,32.623292 -1.4e-4,18.66671 -10.33288,32.33348 -30.99824,41.00037 -0.16795,1e-4 -0.25188,0.0827 -0.25177,0.24795 -1.1e-4,0.1654 0.0838,0.24806 0.25177,0.24796 24.83101,8.50432 37.24657,24.67099 37.24672,48.50006 -1.5e-4,16.00142 -5.9587,28.75267 -17.87569,38.25375 z"
     id="path2818"
     style="font-size:250px;font-style:normal;font-variant:normal;font-weight:normal;font-stretch:normal;text-align:center;text-anchor:middle;fill:#000000;fill-opacity:1;stroke:none;font-family:'Rounded M+ 1p medium';-inkscape-font-specification:'Rounded M+ 1p medium,'" /><path
     inkscape:connector-curvature="0"
     d="m 1266.5407,70.328168 c 10.2538,9.24699 15.3809,22.12031 15.381,38.620002 -1e-4,16.49995 -5.2925,32.54201 -15.8769,48.12622 -10.5846,15.58438 -31.0441,35.95992 -61.3784,61.12671 -0.168,0.16278 -0.2519,0.32808 -0.2518,0.49591 -10e-5,0.16787 0.084,0.25179 0.2518,0.25177 l 66.0018,0 c 3.1687,2e-5 5.8364,1.08339 8.0033,3.25012 2.1667,2.16676 3.2501,4.83323 3.2502,7.99946 -1e-4,3.1662 -1.0835,5.8326 -3.2502,7.9994 -2.1669,2.1667 -4.8346,3.2501 -8.0033,3.2501 l -92.4987,0 c -3.1688,0 -5.8365,-1.0834 -8.0033,-3.2501 -2.1667,-2.1668 -3.2501,-4.8345 -3.2501,-8.0033 0,-7.32924 2.917,-13.41241 8.7509,-18.24947 30.3344,-24.50047 50.8766,-43.95795 61.6265,-58.3725 10.7497,-14.41436 16.1246,-28.45498 16.1247,-42.12188 -10e-5,-21.336722 -11.3323,-32.005152 -33.9966,-32.005312 -11.8358,1.6e-4 -24.3378,3.50205 -37.5061,10.50567 -2.6652,1.5006 -5.3724,1.74983 -8.1215,0.74768 -2.7491,-1.00184 -4.6247,-2.91936 -5.6267,-5.75256 -1.1647,-3.33134 -1.1647,-6.58019 0,-9.74655 1.1648,-3.16603 3.3315,-5.58327 6.5003,-7.25174 14.8315,-7.664819 30.9981,-11.497309 48.5,-11.497499 18.6665,1.9e-4 33.1242,4.62614 43.3731,13.877869 z"
     id="path2820"
     style="font-size:250px;font-style:normal;font-variant:normal;font-weight:normal;font-stretch:normal;text-align:center;text-anchor:middle;fill:#000000;fill-opacity:1;stroke:none;font-family:'Rounded M+ 1p medium';-inkscape-font-specification:'Rounded M+ 1p medium,'" /><path
     inkscape:connector-curvature="0"
     d="m 1412.2545,94.826161 c -6.5817,-10.920053 -16.622,-16.380153 -30.1208,-16.380313 -13.499,1.6e-4 -23.5406,5.45899 -30.1247,16.376493 -6.5841,10.917799 -9.8762,29.375829 -9.8761,55.374149 -10e-5,25.9985 3.292,44.45653 9.8761,55.37414 6.5841,10.91769 16.6257,16.37652 30.1247,16.3765 13.4988,2e-5 23.5404,-5.45881 30.1247,-16.3765 6.584,-10.91761 9.8761,-29.37564 9.8762,-55.37414 -1e-4,-25.99832 -3.2935,-44.45508 -9.8801,-55.370329 z m 20.5002,126.876829 c -11.2458,14.83157 -28.1195,22.24727 -50.621,22.24727 -22.5017,0 -39.3765,-7.417 -50.6247,-22.25109 -11.2483,-14.83405 -16.8725,-38.66825 -16.8725,-71.50268 0,-32.83425 5.6242,-56.667182 16.8725,-71.498872 11.2482,-14.83137 28.123,-22.247129 50.6247,-22.247319 22.5015,1.9e-4 39.3765,7.415949 50.6248,22.247319 11.2482,14.83169 16.8723,38.664622 16.8725,71.498872 -2e-4,32.83443 -5.6256,56.6699 -16.8763,71.5065 z"
     id="path2822"
     style="font-size:250px;font-style:normal;font-variant:normal;font-weight:normal;font-stretch:normal;text-align:center;text-anchor:middle;fill:#000000;fill-opacity:1;stroke:none;font-family:'Rounded M+ 1p medium';-inkscape-font-specification:'Rounded M+ 1p medium,'" /><path
     inkscape:connector-curvature="0"
     d="m 807.3728,146.65594 143.4417,0"
     id="path2816"
     style="fill:none;stroke:#000000;stroke-width:20.00000381;stroke-linecap:round;stroke-linejoin:miter;stroke-miterlimit:4;stroke-opacity:1;stroke-dasharray:none" /></svg>