<?xml version="1.0" encoding="UTF-8" standalone="no"?>
<svg xmlns="http://www.w3.org/2000/svg" width="60.900002cm" height="60.900002cm" viewBox="0 0 609.00002 609">
  <g transform="translate(0 311.99999)">
    <rect width="605" height="605" x="1.9999999" y="-310" paint-order="fill markers stroke" rx="37.5" ry="37.5"/>
    <rect width="600" height="600" x="4.5" y="-307.5" fill="#fff" paint-order="fill markers stroke" rx="35" ry="35"/>
    <rect width="560" height="560" x="24.5" y="-287.5" fill="#0064b4" paint-order="fill markers stroke" rx="15" ry="15"/>
    <path fill="#fff" d="M187.34391 191.43942c0 3.87474 3.20551 7.15058 7.2175 7.15058 3.94264 0 7.2175-3.27341 7.2175-7.15058v-38.02538h-14.435zm50.25484-222.742568c-2.27442-5.880976-4.47609-22.654903-4.47609-29.270586 0-6.549244 2.93879-27.800694 5.54686-29.604716 2.54113-1.87191 8.7543 13.900118 10.95985 19.714169 2.20652 5.880987 3.27342 17.575545 4.01054 22.721341.73712 5.145807.38795 16.640084.38795 16.640084h3.80686v7.15057c-.14549.04846-.24248.193984-.48495.339475H239.1729c-.53345-3.477089-1.13479-6.281559-1.60519-7.684997M131.646-23.612811c-.14548-.145491-.29097-.242477-.48496-.339475v-7.15057h3.94266s-.38798-11.494277.29095-16.640084c.80017-5.145796 1.9398-16.840354 4.07843-22.721341 2.20653-5.814051 8.42019-21.585589 10.89294-19.714169 2.67208 1.804022 5.54637 23.055472 5.54637 29.604716 0 6.615683-2.13863 23.38961-4.34514 29.270586-.60134 1.401504-1.13479 4.209369-1.67309 7.684997zm136.66266-54.865747c-2.60418-9.48949-8.4871-21.986152-18.71178-42.836552-5.413-11.02679-22.32029-21.91973-40.63101-25.26102-2.13863-.38797-3.67592-.86806-5.01243-1.4694v-14.76914c6.14818-3.4092 10.69264-8.82123 12.29637-16.84036.24248 1.4694.93596 1.33846 1.60518 1.33846 1.00385 0 1.73612-2.00284 1.73612-4.54398 0-2.47323-.73712-4.54397-1.73612-4.54397-.38795 0-.66922.33947-1.00385.93595 0-.14549.0485-.24248.0485-.38795 0-14.76914-10.0239-26.7314-22.3872-26.7314-12.29638 0-22.3203 11.96226-22.3203 26.7314v.38795c-.33946-.60133-.60134-.93595-1.07172-.93595-.93596 0-1.73612 2.07074-1.73612 4.54397 0 2.54114.80016 4.54398 1.73612 4.54398.73712 0 1.4015.14549 1.73612-1.33846 1.53727 8.01913 6.08126 13.43214 12.16253 16.84036v14.76914c-1.27057.60134-2.73996 1.06689-5.01195 1.4694-18.2443 3.34129-35.15157 14.23423-40.56458 25.26102-10.22467 20.8504-16.10566 33.347062-18.64535 42.836552-2.60417 9.556426-6.9498 29.604723-6.21462 32.879587.66923 3.273402.33946 13.365208.66923 14.501444h2.13862v11.962253c.19398 3.142473 3.80686 5.747131 8.35375 5.747131 4.47608 0 8.15296-2.672075 8.28634-5.880985h15.23662c-1.53729 11.1606364-2.87575 25.9292827-2.87575 27.8676327 0 2.9388003 5.47992 10.3580403 5.47992 10.3580403 2.33747 3.2734-7.21749 41.23283-6.4823 53.99719.73711 12.8308 4.41303 32.946015 5.88048 38.826995 1.46941 5.8805 6.61617 2.93879 7.35135 6.54876.73713 3.67592-4.07841 4.01054-4.67976 5.88099-.48494 1.73612 1.4694 3.3413 3.34132 3.3413h15.90486c1.13478 0 2.00283-.93596 2.00283-2.00768 0 0 1.73612-19.64726.19399-23.99096-1.46941-4.413021-4.01054-13.565965-4.7428-21.986635-.73714-8.42018 2.20651-22.32029 3.27339-30.74095 1.13479-8.42018 6.21464-21.25098 8.82123-24.19123 2.13864-2.40534 3.00671-2.60417 4.94504-2.60417-1.73611.80016-2.80785 1.87191-2.80785 3.07458 0 1.67307 2.13863 3.07457 5.07839 3.8117-5.14531 1.87191-8.95459 6.81646-8.95459 12.63051V132.4328c0 7.48471 6.08126 13.43262 13.49905 13.43262 7.48471 0 13.43262-5.94791 13.43262-13.43262V41.546945c0-5.81405-3.74382-10.75909-8.88815-12.63051 3.00668-.73713 5.07888-2.13863 5.07888-3.8117 0-1.00385-.80018-1.9398-2.07075-2.67208 2.67208.33947 3.74381.86807 5.81407 2.9388 3.3413 3.07458 11.42782 42.50243 12.89771 51.25723 1.4694 8.75431-5.47993 34.817435-6.9503 47.180735-1.46939 12.49667-1.06688 24.392-1.06688 25.52775 0 .29096.0485.53344.14548.80016.33947.66923 1.00385 1.20267 1.87191 1.20267l15.90489-.0485c1.80401 0 2.9388-1.46938 3.3413-3.27339.19398-1.20268-6.08127-3.81172-5.94742-7.08366.19398-3.27342 15.63768-56.135345 15.30355-68.297885-.48495-12.16302-9.35613-47.38101-9.15537-51.99241 0 0 8.42019-9.08843 8.42019-12.0291703 0-1.9398-1.33846-16.7065153-2.87575-27.8671397h15.23662c.14549 3.205514 3.80687 5.880986 8.35326 5.880986 4.41304 0 8.01961-2.604188 8.21989-5.747143h.0485v-11.962222h2.07075c.38795-1.134785 0-11.227075.73712-14.501456.73712-3.273402-3.67592-23.32316-6.1482-32.879568M407.3439 191.43942c0 3.87474 3.20551 7.15058 7.2175 7.15058 3.94264 0 7.2175-3.27341 7.2175-7.15058v-38.02538h-14.435zm50.25484-222.742568c-2.27442-5.880976-4.47609-22.654903-4.47609-29.270586 0-6.549244 2.93879-27.800694 5.54686-29.604716 2.54113-1.87191 8.7543 13.900118 10.95985 19.714169 2.20652 5.880987 3.27342 17.575545 4.01054 22.721341.73712 5.145807.38795 16.640084.38795 16.640084h3.80686v7.15057c-.14549.04846-.24248.193984-.48495.339475h-18.17687c-.53345-3.477089-1.13479-6.281559-1.60519-7.684997m-105.92171 7.684997c-.14548-.145491-.29097-.242477-.48496-.339475v-7.15057h3.94266s-.38798-11.494277.29095-16.640084c.80017-5.145796 1.9398-16.840354 4.07843-22.721341 2.20653-5.814051 8.42019-21.585589 10.89294-19.714169 2.67208 1.804022 5.54637 23.055472 5.54637 29.604716 0 6.615683-2.13863 23.38961-4.34514 29.270586-.60134 1.401504-1.13479 4.209369-1.67309 7.684997zm136.66266-54.865747c-2.60418-9.48949-8.4871-21.986152-18.71178-42.836552-5.413-11.02679-22.32029-21.91973-40.63101-25.26102-2.13863-.38797-3.67592-.86806-5.01243-1.4694v-14.76914c6.14818-3.4092 10.69264-8.82123 12.29637-16.84036.24248 1.4694.93596 1.33846 1.60518 1.33846 1.00385 0 1.73612-2.00284 1.73612-4.54398 0-2.47323-.73712-4.54397-1.73612-4.54397-.38795 0-.66922.33947-1.00385.93595 0-.14549.0485-.24248.0485-.38795 0-14.76914-10.0239-26.7314-22.3872-26.7314-12.29638 0-22.3203 11.96226-22.3203 26.7314v.38795c-.33946-.60133-.60134-.93595-1.07172-.93595-.93596 0-1.73612 2.07074-1.73612 4.54397 0 2.54114.80016 4.54398 1.73612 4.54398.73712 0 1.4015.14549 1.73612-1.33846 1.53727 8.01913 6.08126 13.43214 12.16253 16.84036v14.76914c-1.27057.60134-2.73996 1.06689-5.01195 1.4694-18.2443 3.34129-35.15157 14.23423-40.56458 25.26102-10.22467 20.8504-16.10566 33.347062-18.64535 42.836552-2.60417 9.556426-6.9498 29.604723-6.21462 32.879587.66923 3.273402.33946 13.365208.66923 14.501444h2.13862v11.962253c.19398 3.142473 3.80686 5.747131 8.35375 5.747131 4.47608 0 8.15296-2.672075 8.28634-5.880985h15.23662c-1.53729 11.1606364-2.87575 25.9292827-2.87575 27.8676327 0 2.9388003 5.47992 10.3580403 5.47992 10.3580403 2.33747 3.2734-7.21749 41.23283-6.4823 53.99719.73711 12.8308 4.41303 32.946015 5.88048 38.826995 1.46941 5.8805 6.61617 2.93879 7.35135 6.54876.73713 3.67592-4.07841 4.01054-4.67976 5.88099-.48494 1.73612 1.4694 3.3413 3.34132 3.3413h15.90486c1.13478 0 2.00283-.93596 2.00283-2.00768 0 0 1.73612-19.64726.19399-23.99096-1.46941-4.413021-4.01054-13.565965-4.7428-21.986635-.73714-8.42018 2.20651-22.32029 3.27339-30.74095 1.13479-8.42018 6.21464-21.25098 8.82123-24.19123 2.13864-2.40534 3.00671-2.60417 4.94504-2.60417-1.73611.80016-2.80785 1.87191-2.80785 3.07458 0 1.67307 2.13863 3.07457 5.07839 3.8117-5.14531 1.87191-8.95459 6.81646-8.95459 12.63051V132.4328c0 7.48471 6.08126 13.43262 13.49905 13.43262 7.48471 0 13.43262-5.94791 13.43262-13.43262V41.546945c0-5.81405-3.74382-10.75909-8.88815-12.63051 3.00668-.73713 5.07888-2.13863 5.07888-3.8117 0-1.00385-.80018-1.9398-2.07075-2.67208 2.67208.33947 3.74381.86807 5.81407 2.9388 3.3413 3.07458 11.42782 42.50243 12.89771 51.25723 1.4694 8.75431-5.47993 34.817435-6.9503 47.180735-1.46939 12.49667-1.06688 24.392-1.06688 25.52775 0 .29096.0485.53344.14548.80016.33947.66923 1.00385 1.20267 1.87191 1.20267l15.90489-.0485c1.80401 0 2.9388-1.46938 3.3413-3.27339.19398-1.20268-6.08127-3.81172-5.94742-7.08366.19398-3.27342 15.63768-56.135345 15.30355-68.297885-.48495-12.16302-9.35613-47.38101-9.15537-51.99241 0 0 8.42019-9.08843 8.42019-12.0291703 0-1.9398-1.33846-16.7065153-2.87575-27.8671397h15.23662c.14549 3.205514 3.80687 5.880986 8.35326 5.880986 4.41304 0 8.01961-2.604188 8.21989-5.747143h.0485v-11.962222h2.07075c.38795-1.134785 0-11.227075.73712-14.501456.73712-3.273402-3.67592-23.32316-6.1482-32.879568"/>
  </g>
</svg>