<?xml version="1.0" encoding="UTF-8" standalone="no"?>
<!-- Created with Inkscape (http://www.inkscape.org/) -->

<svg
   version="1.1"
   width="1005.4"
   height="1005.4"
   id="svg2"
   xml:space="preserve"
   inkscape:version="1.1 (c68e22c387, 2021-05-23)"
   sodipodi:docname="Japanese_Road_sign_325-5-B.svg"
   xmlns:inkscape="http://www.inkscape.org/namespaces/inkscape"
   xmlns:sodipodi="http://sodipodi.sourceforge.net/DTD/sodipodi-0.dtd"
   xmlns:xlink="http://www.w3.org/1999/xlink"
   xmlns="http://www.w3.org/2000/svg"
   xmlns:svg="http://www.w3.org/2000/svg"
   xmlns:rdf="http://www.w3.org/1999/02/22-rdf-syntax-ns#"
   xmlns:cc="http://creativecommons.org/ns#"
   xmlns:dc="http://purl.org/dc/elements/1.1/"><sodipodi:namedview
     pagecolor="#ffffff"
     bordercolor="#666666"
     borderopacity="1"
     objecttolerance="10"
     gridtolerance="10"
     guidetolerance="10"
     inkscape:pageopacity="0"
     inkscape:pageshadow="2"
     inkscape:window-width="1366"
     inkscape:window-height="705"
     id="namedview28"
     showgrid="false"
     fit-margin-top="0.2"
     fit-margin-left="0.2"
     fit-margin-right="0.2"
     fit-margin-bottom="0.2"
     inkscape:zoom="0.5"
     inkscape:cx="421"
     inkscape:cy="503"
     inkscape:window-x="-8"
     inkscape:window-y="-8"
     inkscape:window-maximized="1"
     inkscape:current-layer="svg2"
     inkscape:pagecheckerboard="0" /><metadata
     id="metadata8"><rdf:RDF><cc:Work
         rdf:about=""><dc:format>image/svg+xml</dc:format><dc:type
           rdf:resource="http://purl.org/dc/dcmitype/StillImage" /></cc:Work></rdf:RDF></metadata><defs
     id="defs6"><linearGradient
       id="linearGradient15703"
       inkscape:swatch="solid"><stop
         style="stop-color:#ffffff;stop-opacity:1;"
         offset="0"
         id="stop15705" /></linearGradient><linearGradient
       inkscape:collect="always"
       xlink:href="#linearGradient15703"
       id="linearGradient15707"
       x1="-37.125"
       y1="465.375"
       x2="967.87512"
       y2="465.375"
       gradientUnits="userSpaceOnUse"
       gradientTransform="translate(37.325,37.325)" /></defs><path
     inkscape:connector-curvature="0"
     style="fill:url(#linearGradient15707);fill-opacity:1;stroke:#0066b3;stroke-width:5;stroke-miterlimit:4;stroke-opacity:1;stroke-dasharray:none"
     d="m 1002.7001,502.7 c 0,-276.1424 -223.85772,-500 -500.0001,-500 -276.14238,0 -500,223.8576 -500,500 0,276.1423 223.85762,500.0001 500,500.0001 276.14238,0 500.0001,-223.8578 500.0001,-500.0001 z"
     id="path3854" /><path
     id="path14622"
     d="m 968.07508,502.7 c 0,257.0196 -208.35548,465.375 -465.375,465.375 C 245.6805,968.075 37.325,759.7196 37.325,502.7 c 0,-257.0196 208.3555,-465.375 465.37508,-465.375 257.01952,0 465.375,208.3554 465.375,465.375 z"
     style="fill:#0066b3;fill-opacity:1;stroke:none"
     inkscape:connector-curvature="0"
     sodipodi:nodetypes="sssss" /><path
     id="rect939"
     style="fill:#ffffff;fill-opacity:1;fill-rule:evenodd;stroke-width:7.60368"
     d="m 119.6956,575.41348 v 48.39872 c 0,11.49219 9.25502,20.74721 20.74716,20.74721 h 719.11979 c 11.49217,0 20.73873,-9.25502 20.73873,-20.74721 v -48.39872 z" /><path
     id="rect966"
     style="fill:#ffffff;fill-opacity:1;fill-rule:evenodd;stroke-width:28.323"
     d="m 188.84477,471.69486 c -38.30687,0 -69.14597,30.83898 -69.14597,69.14593 v 21.60816 h 760.60557 v -21.60816 c 0,-38.30695 -30.83892,-69.14593 -69.14582,-69.14593 z" /><rect
     style="fill:#ffffff;fill-opacity:1;fill-rule:evenodd;stroke-width:19.3438"
     id="rect971"
     width="760.60577"
     height="51.162964"
     x="119.6986"
     y="549.35248" /><path
     id="rect984"
     style="fill:#ffffff;fill-opacity:1;fill-rule:evenodd;stroke:#ffffff;stroke-width:34.0548;stroke-linecap:round;stroke-linejoin:round;stroke-miterlimit:4;stroke-dasharray:none;stroke-opacity:1;paint-order:normal"
     d="m 274.79962,480.33815 445.12724,-4.32171 -64.82435,-125.32707 -311.15683,-2e-4 z"
     sodipodi:nodetypes="ccccc" /><circle
     style="fill:#0066b3;fill-opacity:1;stroke:#ffffff;stroke-width:45.7059;stroke-linecap:round;stroke-linejoin:round;stroke-miterlimit:4;stroke-dasharray:none;stroke-opacity:1"
     id="path867"
     cx="261.93802"
     cy="644.89642"
     r="50.254528" /><circle
     style="fill:#0066b3;fill-opacity:1;stroke:#ffffff;stroke-width:45.7059;stroke-linecap:round;stroke-linejoin:round;stroke-miterlimit:4;stroke-dasharray:none;stroke-opacity:1"
     id="path867-1"
     cx="737.46741"
     cy="644.67242"
     r="50.254528" /><path
     id="rect891"
     style="mix-blend-mode:normal;fill:#0066b3;fill-opacity:1;fill-rule:evenodd;stroke:#0066b3;stroke-width:27.7673;stroke-linecap:round;stroke-linejoin:round;stroke-miterlimit:4;stroke-dasharray:none;stroke-dashoffset:0;stroke-opacity:1;paint-order:normal"
     d="m 370.35282,389.58406 h 90.7541 v 64.82434 h -129.6487 z"
     sodipodi:nodetypes="ccccc" /><path
     id="rect891-8"
     style="mix-blend-mode:normal;fill:#0066b3;fill-opacity:1;fill-rule:evenodd;stroke:#0066b3;stroke-width:27.7673;stroke-linecap:round;stroke-linejoin:round;stroke-miterlimit:4;stroke-dasharray:none;stroke-dashoffset:0;stroke-opacity:1;paint-order:normal"
     d="M 629.65023,389.58406 H 538.89614 V 454.4084 H 668.54486 Z"
     sodipodi:nodetypes="ccccc" /><g
     aria-label="A"
     id="text1209"
     style="font-style:normal;font-variant:normal;font-weight:bold;font-stretch:normal;font-size:7.05556px;line-height:1.25;font-family:'Noto Sans JP';-inkscape-font-specification:'Noto Sans JP Bold';letter-spacing:0px;word-spacing:0px;fill:#1971ff;fill-opacity:1;stroke-width:0.264583"
     transform="matrix(16.333695,0,0,16.333695,-760.98649,-1250.1635)"><path
       d="m 74.930642,110.35511 c 0.155223,-0.54328 0.310445,-1.13595 0.444501,-1.70745 h 0.03528 c 0.148166,0.56445 0.289277,1.16417 0.451555,1.70745 l 0.155223,0.5715 H 74.77542 Z m -1.806223,2.72344 h 1.058334 l 0.366889,-1.34055 h 1.693335 l 0.366889,1.34055 h 1.093612 l -1.679224,-5.22817 h -1.227667 z"
       style="font-style:normal;font-variant:normal;font-weight:bold;font-stretch:normal;font-size:7.05556px;font-family:'Noto Sans JP';-inkscape-font-specification:'Noto Sans JP Bold';fill:#0066b3;fill-opacity:1;stroke-width:0.264583"
       id="path1222" /></g><g
     aria-label="X"
     id="text1213"
     style="font-weight:bold;font-size:7.05556px;line-height:1.25;font-family:'Noto Sans JP';-inkscape-font-specification:'Noto Sans JP Bold';letter-spacing:0px;word-spacing:0px;fill:#1971ff;fill-opacity:1;stroke-width:0.264583"
     transform="matrix(16.333695,0,0,16.333695,-760.98649,-1250.1635)"><path
       d="m 79.02021,113.04087 h 1.107723 l 0.55739,-1.15711 c 0.127,-0.26811 0.254,-0.54328 0.381,-0.86078 h 0.02822 c 0.155222,0.3175 0.275167,0.59267 0.409222,0.86078 l 0.585612,1.15711 h 1.157112 l -1.467557,-2.64583 1.375835,-2.58234 h -1.100668 l -0.493889,1.0795 c -0.112889,0.24695 -0.218722,0.50095 -0.345722,0.8255 h -0.03528 c -0.155223,-0.32455 -0.261056,-0.57855 -0.388056,-0.8255 l -0.522112,-1.0795 h -1.157111 l 1.375834,2.53295 z"
       style="font-size:7.05556px;fill:#0066b3;fill-opacity:1;stroke-width:0.264583"
       id="path1225" /></g><g
     aria-label="I"
     id="text1217"
     style="font-weight:bold;font-size:7.05556px;line-height:1.25;font-family:'Noto Sans JP';-inkscape-font-specification:'Noto Sans JP Bold';letter-spacing:0px;word-spacing:0px;fill:#1971ff;fill-opacity:1;stroke-width:0.264583"
     transform="matrix(16.333695,0,0,16.333695,-760.98649,-1250.1635)"><path
       d="m 84.822087,113.04086 h 1.044223 v -5.22817 h -1.044223 z"
       style="font-size:7.05556px;fill:#0066b3;fill-opacity:1;stroke-width:0.264583"
       id="path1228" /></g><path
     id="rect1198"
     style="fill:#ffffff;fill-opacity:1;fill-rule:evenodd;stroke:#ffffff;stroke-width:23.865;stroke-linecap:round;stroke-linejoin:round;stroke-miterlimit:4;stroke-dasharray:none;stroke-opacity:1"
     d="m 486.45929,276.01156 -9.89449,80.59377 h 46.17668 l -9.89449,-80.59377 z" /><path
     d="m 381.18086,595.82355 h 16.97975 V 525.0364 h 24.09284 v -14.22614 h -64.93598 v 14.22614 h 23.86339 z"
     style="font-style:normal;font-variant:normal;font-weight:bold;font-stretch:normal;font-size:7.024px;line-height:1.25;font-family:'Noto Sans JP';-inkscape-font-specification:'Noto Sans JP Bold';letter-spacing:0px;word-spacing:0px;fill:#0066b3;fill-opacity:1;stroke-width:4.30228"
     id="path1219" /></svg>
