<?xml version="1.0" encoding="UTF-8" standalone="no"?>
<svg
   xmlns:dc="http://purl.org/dc/elements/1.1/"
   xmlns:cc="http://creativecommons.org/ns#"
   xmlns:rdf="http://www.w3.org/1999/02/22-rdf-syntax-ns#"
   xmlns:svg="http://www.w3.org/2000/svg"
   xmlns="http://www.w3.org/2000/svg"
   width="60.900002cm"
   height="60.900002cm"
   viewBox="0 0 609.00002 609"
   version="1.1"
   id="svg832">
  <defs
     id="defs826" />
  <metadata
     id="metadata829">
    <rdf:RDF>
      <cc:Work
         rdf:about="">
        <dc:format>image/svg+xml</dc:format>
        <dc:type
           rdf:resource="http://purl.org/dc/dcmitype/StillImage" />
        <dc:title></dc:title>
      </cc:Work>
    </rdf:RDF>
  </metadata>
  <g
     id="layer1"
     transform="translate(-190.49995,502.49987)">
    <rect
       style="opacity:1;fill:#000000;fill-opacity:1;fill-rule:nonzero;stroke:none;stroke-width:20;stroke-linecap:butt;stroke-linejoin:round;stroke-miterlimit:4;stroke-dasharray:none;stroke-opacity:1;paint-order:fill markers stroke"
       id="rect1387"
       width="605"
       height="605"
       x="192.49995"
       y="-500.49988"
       rx="37.5"
       ry="37.5" />
    <rect
       ry="35"
       rx="35"
       y="-497.99988"
       x="194.99994"
       height="600"
       width="600"
       id="rect1414"
       style="opacity:1;fill:#ffffff;fill-opacity:1;fill-rule:nonzero;stroke:none;stroke-width:20;stroke-linecap:butt;stroke-linejoin:round;stroke-miterlimit:4;stroke-dasharray:none;stroke-opacity:1;paint-order:fill markers stroke" />
    <rect
       ry="21.999998"
       rx="21.999998"
       style="opacity:1;fill:#be121e;fill-opacity:1;fill-rule:nonzero;stroke:none;stroke-width:20;stroke-linecap:butt;stroke-linejoin:round;stroke-miterlimit:4;stroke-dasharray:none;stroke-opacity:1;paint-order:fill markers stroke"
       id="rect1416"
       width="574"
       height="574"
       x="207.99994"
       y="-484.99982" />
    <rect
       y="-404.99976"
       x="287.99994"
       height="413.99997"
       width="413.99997"
       id="rect834"
       style="opacity:1;fill:#ffffff;fill-opacity:1;fill-rule:nonzero;stroke:none;stroke-width:20;stroke-linecap:butt;stroke-linejoin:round;stroke-miterlimit:4;stroke-dasharray:none;stroke-opacity:1;paint-order:fill markers stroke" />
    <rect
       style="opacity:1;fill:#be121e;fill-opacity:1;fill-rule:nonzero;stroke:none;stroke-width:20.00000381;stroke-linecap:butt;stroke-linejoin:round;stroke-miterlimit:4;stroke-dasharray:none;stroke-opacity:1;paint-order:fill markers stroke"
       id="rect899"
       width="40"
       height="272.36877"
       x="470.02411"
       y="287.64203"
       transform="rotate(-45)" />
    <path
       style="opacity:1;fill:#0064b4;fill-opacity:1;fill-rule:nonzero;stroke:none;stroke-width:20;stroke-linecap:butt;stroke-linejoin:round;stroke-miterlimit:4;stroke-dasharray:none;stroke-opacity:1;paint-order:fill markers stroke"
       d="m 294.00026,-239.36193 306.66621,-159.64037 34.65476,-0.002 -341.32181,177.68084 z"
       id="rect963" />
    <path
       id="path975"
       d="m 457.68822,-96.099525 238.31077,-160.742675 0.002,19.29831 -229.36546,154.708956 z"
       style="opacity:1;fill:#0064b4;fill-opacity:1;fill-rule:nonzero;stroke:none;stroke-width:20;stroke-linecap:butt;stroke-linejoin:round;stroke-miterlimit:4;stroke-dasharray:none;stroke-opacity:1;paint-order:fill markers stroke" />
    <path
       style="color:#000000;font-style:normal;font-variant:normal;font-weight:normal;font-stretch:normal;font-size:medium;line-height:normal;font-family:sans-serif;font-variant-ligatures:normal;font-variant-position:normal;font-variant-caps:normal;font-variant-numeric:normal;font-variant-alternates:normal;font-feature-settings:normal;text-indent:0;text-align:start;text-decoration:none;text-decoration-line:none;text-decoration-style:solid;text-decoration-color:#000000;letter-spacing:normal;word-spacing:normal;text-transform:none;writing-mode:lr-tb;direction:ltr;text-orientation:mixed;dominant-baseline:auto;baseline-shift:baseline;text-anchor:start;white-space:normal;shape-padding:0;clip-rule:nonzero;display:inline;overflow:visible;visibility:visible;opacity:1;isolation:auto;mix-blend-mode:normal;color-interpolation:sRGB;color-interpolation-filters:linearRGB;solid-color:#000000;solid-opacity:1;vector-effect:none;fill:#ffffff;fill-opacity:1;fill-rule:nonzero;stroke:none;stroke-width:20;stroke-linecap:butt;stroke-linejoin:miter;stroke-miterlimit:4;stroke-dasharray:none;stroke-dashoffset:0;stroke-opacity:1;color-rendering:auto;image-rendering:auto;shape-rendering:auto;text-rendering:auto;enable-background:accumulate"
       d="m 470.74904,-376.39292 c -2.7854,1.87878 -3.91841,4.43217 -4.51465,6.06705 -0.74423,2.04056 -0.91499,3.5607 -1.03701,4.89448 -0.0933,1.02015 -0.0202,1.0697 -0.0215,1.85148 l -1.0605,2.37277 c -1.25759,0.76322 -2.47551,1.62229 -3.66803,2.70723 -2.24015,2.038 -5.49173,5.78747 -4.62684,11.63488 l 0.0327,0.22047 0.043,0.21904 c 1.24423,6.42279 6.22808,8.74365 9.2717,9.80443 0.74837,0.26081 1.47515,0.37143 2.20907,0.55449 0.37558,1.12569 0.7385,2.23518 1.21299,3.55882 0.6774,1.88965 1.42589,3.8642 2.27528,5.76761 0.75193,1.68498 1.44724,3.24731 3.07412,5.27933 -5.01177,4.90216 -5.88776,9.65526 -8.02335,13.63292 -3.23295,5.96937 -5.97226,12.343 -7.32429,16.39834 -2.04137,6.07941 0.1673,3.05093 -3.68771,6.93175 0.0392,-0.0434 -4.50495,2.84921 -9.03119,4.92596 -4.53297,2.07989 -8.73914,3.56295 -12.82402,6.14602 l -0.0297,0.0198 -0.0308,0.0195 c -1.29283,0.83068 -2.08413,1.12562 -3.57444,1.71662 -1.49032,0.59095 -4.72756,1.61122 -7.40019,5.176 l -0.002,0.005 -0.002,0.002 c -2.75673,3.68199 -2.9106,6.7935 -2.99627,9.35324 -0.0812,2.42629 0.19119,4.50605 0.63473,6.47652 1.46377,7.42878 6.26637,8.92093 9.17561,10.17028 2.85287,1.22509 5.32139,1.81235 8.10174,2.02522 4.89027,0.44904 8.58924,-1.91747 9.93361,-2.80075 0.23733,-0.15643 0.14034,-0.0849 0.27343,-0.16015 0.14314,0.0709 0.58104,0.27315 2.16979,0.68755 5.76568,1.57432 7.38719,0.10531 10.05093,-0.63899 2.67799,-0.74832 5.39881,-1.74378 8.0351,-2.79492 2.63633,-1.05114 5.14718,-2.15247 7.20325,-3.11334 2.05602,-0.96083 2.77663,-1.0885 5.17373,-2.74174 l 0.0233,-0.0162 0.0225,-0.0154 c 0.87622,-0.61177 1.58155,-1.27711 2.35948,-1.92373 0.24413,0.8571 0.467,1.46116 0.70507,2.33628 1.05442,3.86751 2.03579,7.82812 2.68386,10.82397 0.18469,0.85386 0.26532,1.35787 0.38841,2.01191 -0.79999,1.07512 -1.84417,2.40933 -3.09968,3.95267 -2.81389,3.45898 -6.09959,7.29329 -8.55075,10.86328 -3.06358,4.42207 -5.07884,9.47061 -7.25985,14.79906 -2.1852,5.3388 -4.226,10.73636 -5.40248,13.47269 l -0.20282,0.47467 -18.18397,58.27325 c -0.89247,0.33247 -2.20328,0.69427 -4.11396,1.47586 0.38407,-0.15845 -1.19452,0.24531 -3.27622,1.26236 -2.14408,1.0476 -6.0458,3.71818 -7.20509,8.70525 l -0.0802,0.34585 -0.0546,0.35158 c -1.14468,7.20995 3.74082,14.24474 10.8709,15.66028 l 0.0489,0.009 27.08997,5.09936 23.24776,-15.68144 13.99821,-47.41397 c 0.71415,-1.83067 5.07454,-9.81867 9.10358,-16.3942 0.35083,-0.57258 0.61472,-0.97187 0.96104,-1.53151 2.17896,7.24703 17.85954,59.12188 18.49016,61.20342 -0.64035,0.68688 -1.56101,1.5224 -2.95704,3.12089 l -0.1155,0.13275 -0.10915,0.13475 c 0.66798,-0.82098 -0.5417,0.3202 -1.98442,2.24232 -1.44269,1.92215 -3.77621,6.46544 -2.26952,11.48418 2.13645,7.115305 9.68221,11.391035 16.99427,9.195635 l 31.70486,-9.379225 c 7.13633,-2.07242 11.43226,-9.90622 9.27353,-17.0387 l 0.0723,0.24605 -29.12098,-105.95126 c -0.046,0.0195 -0.0873,0.132 -0.0882,0.11309 -5.6e-4,-0.0249 0.005,-0.30836 0.004,-0.4217 l -0.19941,-0.72258 c 0.0382,0.12335 0.18405,0.41029 0.20137,0.49814 7.2e-4,-0.22019 -0.005,-0.28745 0.006,-0.61349 0.008,-0.23904 0.0475,-0.70138 0.0611,-0.98055 2.48871,1.78786 5.53683,3.1399 8.68314,3.12286 4.21626,-0.0228 6.86071,-1.55521 8.91229,-2.84923 3.46427,-1.48904 3.94,-3.24653 4.56047,-4.23863 0.7167,-1.14579 1.10185,-2.02584 1.48035,-2.9333 0.75701,-1.81492 1.35263,-3.67318 1.92585,-5.64862 1.14647,-3.95092 2.08804,-7.92814 2.51756,-11.30678 l 10e-6,-9.9e-4 v -10e-4 c 0.34942,-2.75559 0.0375,-3.8283 -0.18774,-5.45525 -0.22521,-1.62702 -0.54808,-3.3836 -0.94735,-5.31632 -0.79853,-3.86542 -1.90405,-8.39614 -3.11319,-12.93175 -1.20919,-4.53559 -2.51578,-9.04584 -3.73791,-12.83575 -1.22209,-3.78989 -1.62795,-5.96825 -3.85178,-9.56873 l -0.17391,-0.28097 -0.19109,-0.26943 c -2.47659,-3.47405 -4.37218,-4.81977 -7.66465,-7.83404 -3.2924,-3.01435 -7.32039,-6.54404 -11.35512,-9.98051 -4.03476,-3.43644 -8.05621,-6.76402 -11.35373,-9.37304 -1.64877,-1.30454 -3.10535,-2.4242 -4.38472,-3.34563 -1.27935,-0.92145 -0.97122,-1.40285 -4.77115,-2.72465 -1.31887,-0.47896 -4.59125,-1.72565 -7.60355,-2.94723 -1.10592,-0.44846 -2.04224,-0.85276 -2.97463,-1.2542 -0.16609,-0.7758 -0.33018,-1.40067 -0.47696,-2.32991 -0.25101,-1.58896 -0.43701,-3.24873 -0.52499,-4.49793 0.8378,-0.51695 1.69243,-0.98192 2.50019,-1.61721 1.3365,-1.05124 2.7045,-2.29578 3.93913,-4.32999 1.23018,-2.02695 2.2539,-5.26592 1.64251,-8.58413 -1.11074,-6.04872 -5.71799,-8.54935 -8.64069,-9.69331 -1.3293,-0.52028 -2.61931,-0.85386 -3.91778,-1.12297 -0.53049,-0.72429 -0.91431,-1.29015 -1.4865,-2.02918 -0.77471,-1.00068 -1.56173,-1.98019 -2.4724,-2.96684 -0.87228,-0.94512 -1.54658,-1.9149 -4.00607,-3.24819 -3.29466,-1.87796 -4.16634,-1.45868 -5.39824,-1.58796 -1.26763,-0.13305 -2.47197,-0.17581 -3.77898,-0.19182 l -4.5e-4,3.1e-4 c -2.61426,-0.032 -5.56962,0.0724 -8.53044,0.24549 -2.96103,0.17307 -5.88561,0.41473 -8.35779,0.69563 -1.23612,0.14045 -2.34796,0.28644 -3.40035,0.46655 -0.98415,0.16848 -1.55028,0.0807 -3.70666,1.01978 -0.83253,0.34218 -1.56336,0.73975 -2.20622,1.17328 z m 4.21778,53.83261 c -0.0122,0.0109 -0.017,0.0213 -0.0298,0.0307 -0.0204,0.0197 -0.043,0.0317 -0.0639,0.0511 z m -29.04152,81.22425 c 0.16194,-0.0164 0.0565,-0.005 0.16832,-0.0194 -0.0113,0.001 -0.008,0.003 -0.019,0.004 z"
       id="path1067" />
    <path
       id="path1096"
       d="m 534.86227,-286.41092 c -10e-6,-1.53646 0.76591,-1.28115 2.878,-1.02119 2.04709,0.3713 7.22833,5.62874 9.78702,10.49024 2.62268,4.92552 8.95562,36.58938 10.68283,37.80463 2.94307,3.51857 5.43706,2.75266 8.63539,0.7056 1.53184,-0.46423 4.53978,-11.9618 5.1172,-16.5034 0.57563,-4.53979 -7.73986,-35.246 -10.42654,-39.59599 -3.00806,-4.21949 -31.72797,-28.59319 -34.67052,-29.61676 -3.00794,-1.08625 -13.43278,-5.11726 -15.28813,-6.39657 -1.72679,-1.21617 -3.58354,-14.45675 -2.94296,-17.14348 0.13924,-1.02585 0.13923,-2.04709 0,-3.06831 5.37342,-2.17707 8.57172,-4.54446 8.18786,-6.58876 -0.32498,-1.79178 -3.45359,-2.94293 -8.31549,-3.32824 -2.11206,-2.94294 -5.62925,-7.99565 -7.2284,-8.82749 -2.17709,-1.27655 -22.38845,0.18562 -24.49951,1.15116 -2.11211,0.83092 -1.66187,7.03671 -1.66187,7.03671 l -3.26323,7.29197 c -4.02922,1.91707 -6.39652,3.96418 -6.1408,5.69328 0.37142,1.91711 3.90387,3.008 9.14737,3.32822 0.23201,0.64061 0.46428,1.1512 0.57558,1.5365 0.57564,1.47149 4.09421,13.36915 6.52475,16.11998 2.36729,2.68766 6.14072,1.47148 7.67587,2.36737 1.53643,1.02121 -0.32499,4.09416 -0.32499,4.09416 0,0 -4.98911,3.38858 -7.80403,5.88504 -2.81293,2.43234 -3.96409,6.65232 -6.78032,11.89766 -2.87803,5.3094 -5.69337,11.96222 -6.65237,14.84067 -1.9171,5.69282 -1.53652,6.20483 -6.14125,10.87459 -4.66927,4.60477 -19.19022,9.65886 -23.53967,12.40917 -4.28443,2.75271 -7.03658,2.6877 -8.37997,4.4795 -1.34153,1.79175 -1.1512,5.43707 -0.57562,7.86801 0.46417,2.43236 5.62878,4.02921 8.37958,4.2195 2.75268,0.27852 4.34945,-2.55769 7.10023,-2.87796 2.75268,-0.27855 3.2633,-0.0464 6.97263,0.89587 3.70889,1.02586 20.34176,-6.58825 22.19672,-7.86756 4.02917,-2.813 10.04277,-9.78705 11.25804,-10.42665 1.08626,-0.51056 1.40652,0.2321 1.40652,0.2321 2.11206,0.70553 10.10674,31.15231 9.53123,33.8386 -0.57566,2.62265 -9.97924,12.79355 -13.75307,18.29465 -3.77382,5.43706 -8.95559,20.14964 -11.70599,26.54664 l -18.42286,59.04186 c -0.3249,2.55768 -3.38857,4.28445 -5.1172,4.92506 -1.60149,0.64057 -3.38856,1.15115 -4.60482,1.6618 -1.21613,0.46419 -3.83879,0.96088 -4.28445,2.87794 -0.32498,2.04708 1.0259,3.90388 2.943,4.28446 l 32.62339,6.14127 c 1.98203,0.37136 3.90383,-0.9609 4.21946,-2.94297 l 16.18406,-54.81955 c 2.94296,-7.7404 17.46284,-30.12882 18.67808,-31.79202 1.40654,-1.91712 5.24529,-2.11208 6.0772,-4e-5 0.51061,2.1121 23.47602,77.91221 23.47602,77.91221 0.89581,2.43233 -1.08621,5.37345 -2.30249,6.7168 -1.15115,1.34153 -2.49264,2.55769 -3.38857,3.58356 -0.83088,1.02124 -3.00792,2.62272 -2.43237,4.53979 0.57565,1.91712 2.62276,3.06833 4.53985,2.49269 l 31.79151,-9.40309 c 1.98201,-0.57564 3.07296,-2.62269 2.49272,-4.53978 l -29.361,-106.82518 c -0.83132,-1.60129 1.08621,-16.18404 0.64046,-19.89428 -0.51057,-3.77389 -9.59526,-39.08348 -9.7229,-40.61902"
       style="fill:#0064b4;fill-opacity:1;fill-rule:nonzero;stroke:none;stroke-width:0.34999999;stroke-miterlimit:4;stroke-dasharray:none;stroke-opacity:1" />
    <path
       style="opacity:1;fill:#be121e;fill-opacity:1;fill-rule:nonzero;stroke:none;stroke-width:20.00000381;stroke-linecap:butt;stroke-linejoin:round;stroke-miterlimit:4;stroke-dasharray:none;stroke-opacity:1;paint-order:fill markers stroke"
       d="m 233.36987,-431.34461 28.28424,-28.28426 141.10367,141.10364 -37.2009,19.36765 z"
       id="rect1121" />
    <g
       transform="scale(0.93611484,1.068245)"
       id="text988"
       style="font-style:normal;font-variant:normal;font-weight:normal;font-stretch:normal;font-size:79.2578px;line-height:125%;font-family:IPAPGothic;-inkscape-font-specification:IPAPGothic;letter-spacing:0px;word-spacing:0px;fill:#0064b4;fill-opacity:1;stroke:#0064b4;stroke-width:3.49999985;stroke-linecap:round;stroke-linejoin:round;stroke-opacity:1;stroke-miterlimit:4;stroke-dasharray:none">
      <path
         d="M 350.68961,-6.1471802 V -35.868854 q 10.75863,-11.687429 17.26024,-15.170438 6.03722,-3.328208 11.61003,-3.328208 17.26024,0 17.33764,18.498646 0,26.7804665 -24.53586,26.8578667 -2.5542,0 -2.5542,2.3220058 0,2.3220058 2.5542,2.3220058 29.10248,0 29.17988,-31.5018783 0,-23.065258 -21.98166,-23.142658 -7.19822,0 -14.08683,3.94741 -5.80502,3.328208 -14.78344,12.616231 v -12.771031 q 2.63161,-2.863807 4.64401,-5.185813 1.4706,-1.625404 0.3096,-3.018608 -1.0062,-1.238403 -2.78641,-1.083602 h -2.1672 v -7.043418 q 0,-2.089805 -2.32201,-2.089805 -2.322,0 -2.322,2.089805 v 7.043418 h -11.37783 q -2.63161,0 -2.78641,2.322005 0.2322,2.322006 2.78641,2.322006 h 11.37783 v 22.213855 q -6.11462,6.501617 -13.31284,15.402639 -1.7028,2.167205 0.2322,3.637809 1.70281,1.238403 3.40561,-0.928802 5.18582,-6.269416 9.67503,-11.300429 v 24.6906618 q 0,2.399406 2.322,2.4768062 2.32201,0 2.32201,-2.4768062 z"
         style="font-style:normal;font-variant:normal;font-weight:normal;font-stretch:normal;font-size:79.2578px;font-family:'Arphic PRound-Gothic Medium JIS';-inkscape-font-specification:'Arphic PRound-Gothic Medium JIS';stroke-width:3.49999985;stroke:#0064b4;stroke-opacity:1;stroke-miterlimit:4;stroke-dasharray:none;stroke-linejoin:round;stroke-linecap:round;fill:#0064b4;fill-opacity:1"
         id="path1008" />
      <path
         d="m 430.41181,-55.760704 q 16.56364,-1.006202 35.52669,-2.709006 2.5542,-0.232201 2.322,-2.709007 -0.2322,-2.167206 -2.322,-1.935005 -17.49245,1.702804 -34.36569,2.631607 1.0062,-4.721412 2.32201,-9.752425 0.4644,-1.935004 -1.70281,-2.631606 -2.1672,-0.541802 -2.63161,1.315803 -1.2384,5.805015 -2.6316,11.300428 -6.57902,0.0774 -13.00323,0.387001 -2.16721,-0.0774 -2.24461,2.167206 0,2.399406 2.24461,2.476806 5.65021,-0.0774 11.84223,-0.309601 -7.27562,28.405871 -15.09304,46.7497163 -0.774,1.8576046 1.3158,2.6316065 2.16721,0.774002 3.01861,-1.3158032 7.97222,-18.6534466 15.40264,-48.2977206 z m 9.28802,8.978423 q -2.63161,0.541801 -2.24461,3.018607 0.46441,1.935005 2.24461,1.625404 16.56364,-3.715209 34.13349,-0.928802 1.7028,0.309601 2.1672,-1.857605 0.4644,-2.399406 -2.1672,-2.786407 -19.58225,-2.631606 -34.13349,0.928803 z m -1.161,19.272648 q -6.34682,6.269415 -6.34682,11.532628 0,11.6100293 21.67206,11.6100293 9.36542,0 21.98165,-3.0186076 3.32821,-0.6966017 2.55421,-3.2508077 -0.5418,-1.857605 -2.55421,-1.393204 -13.08063,3.0186077 -21.98165,3.0186077 -17.02805,0 -17.02805,-6.9660177 0,-3.560408 4.87622,-8.28182 1.4706,-1.470604 0,-3.018608 -1.47061,-1.702804 -3.17341,-0.2322 z"
         style="font-style:normal;font-variant:normal;font-weight:normal;font-stretch:normal;font-size:79.2578px;font-family:'Arphic PRound-Gothic Medium JIS';-inkscape-font-specification:'Arphic PRound-Gothic Medium JIS';stroke-width:3.49999985;stroke:#0064b4;stroke-opacity:1;stroke-miterlimit:4;stroke-dasharray:none;stroke-linejoin:round;stroke-linecap:round;fill:#0064b4;fill-opacity:1"
         id="path1010" />
      <path
         d="m 537.84327,-70.31194 h -42.4153 q -1.0062,0 -1.70281,0.619202 -0.5418,0.541801 -0.6966,1.548004 0,1.238403 0.774,1.857604 0.69661,0.541802 1.62541,0.619202 h 35.68149 q 0.6966,0.0774 0.6966,0.541801 0.0774,0.541801 -0.8514,1.083603 l -40.7125,32.12108 -0.0774,0.0774 -0.0774,0.0774 q -0.0774,0 -0.15481,0.0774 -1.2384,0.774002 -1.3932,1.702805 -0.0774,0.928802 0.387,1.780204 0.5418,0.928802 1.54801,1.083603 1.0062,0.0774 2.0124,-0.619202 0.0774,-0.2322 0,0 0.3096,-0.309601 0,0 12.15183,-8.436621 14.55124,-9.597624 6.26941,-3.792609 20.04665,-3.870009 10.44902,0 16.02184,4.644011 4.95361,4.02481 5.10841,9.365423 -0.0774,8.668822 -7.81742,13.622434 -4.87621,3.018608 -11.14563,4.2570109 -1.4706,-4.9536119 -7.27562,-9.9846249 -5.88241,-5.340613 -14.62863,-5.340613 -5.65022,0 -8.82362,2.554206 -2.86381,2.322006 -2.94121,6.037215 0,11.8422296 25.92906,11.99703 12.61623,-0.0774 21.51726,-5.4954136 9.59762,-6.0372154 9.82982,-17.2602434 h 0.0774 q 0,-0.0774 -0.0774,-0.1548 0,-0.232201 0,-0.309601 -0.0774,-7.740019 -6.65642,-13.080632 -6.73381,-5.418014 -19.11784,-5.495414 -7.97222,0 -13.15804,1.161003 l 23.83926,-18.808247 q 2.63161,-2.089805 2.16721,-4.566611 -0.5418,-2.167206 -2.08981,-2.244606 z m -16.33144,61.6105535 q -21.20765,-0.0774 -21.28505,-7.3530185 0,-1.702804 1.3932,-2.786407 1.70281,-1.161003 5.72762,-1.161003 6.50161,0 11.30043,4.02481 4.25701,3.71521 5.88241,7.1982183 -1.4706,0 -3.01861,0.0774 z"
         style="font-style:normal;font-variant:normal;font-weight:normal;font-stretch:normal;font-size:79.2578px;font-family:'Arphic PRound-Gothic Medium JIS';-inkscape-font-specification:'Arphic PRound-Gothic Medium JIS';stroke-width:3.49999985;stroke:#0064b4;stroke-opacity:1;stroke-miterlimit:4;stroke-dasharray:none;stroke-linejoin:round;stroke-linecap:round;fill:#0064b4;fill-opacity:1"
         id="path1012" />
      <path
         d="m 586.68279,-54.831901 q 15.86704,-0.928803 32.35329,-2.399406 2.3994,-0.0774 2.4768,-2.476806 -0.0774,-2.399406 -2.4768,-2.167206 -15.63484,1.470604 -30.96008,2.399406 1.3932,-4.721412 2.5542,-9.752424 0.54181,-2.631607 -1.7028,-3.173408 -2.32201,-0.464401 -2.78641,2.244606 -1.2384,5.418013 -2.9412,10.990827 -8.66883,0.2322 -16.87325,0.541801 -2.3994,0 -2.3994,2.244606 0.0774,2.399406 2.3994,2.399406 7.66262,-0.232201 15.48004,-0.541802 -1.2384,3.483009 -2.4768,6.966018 -4.95362,12.616231 -15.01564,32.35328 -1.2384,2.167206 0.6192,3.250808 2.16721,1.238403 3.40561,-1.083602 9.75242,-18.421246 15.17044,-32.662882 1.7028,-4.489211 3.1734,-9.133222 z m 13.46764,52.6321307 q 7.50782,-0.0774 12.38403,-4.5666114 3.48301,-3.3282083 4.10221,-8.4366213 7.50782,3.79261 14.86084,9.0558228 1.935,1.4706037 3.3282,-0.5418013 1.23841,-1.9350048 -0.774,-3.2508081 -10.44902,-7.0434174 -17.56984,-10.6038264 -0.3096,-1.470604 -1.0062,-3.173408 -1.70281,-4.644011 -1.70281,-9.520224 0,-3.096007 1.16101,-6.811217 0.774,-2.631606 -1.31581,-3.483008 -2.1672,-0.696602 -3.17341,2.244605 -1.2384,3.79261 -1.3158,8.04962 0,5.185813 1.6254,9.675024 0.0774,0.232201 0.15481,0.464402 -8.90103,-3.79261 -14.55124,-3.79261 -5.65022,0 -9.52022,3.79261 -3.71521,3.483008 -3.71521,8.668821 0,5.4180137 4.25701,8.746222 4.17961,3.3282083 12.77103,3.4830087 z m 0,-4.6440116 q -6.11462,-0.0774 -9.44283,-2.399406 -2.8638,-1.9350051 -2.9412,-5.1858131 0,-3.096007 2.3994,-5.495413 2.63161,-2.322006 6.19202,-2.322006 4.95361,0 14.47383,4.17961 0.54181,0.232201 1.31581,0.619202 -0.0774,4.17961 -2.78641,7.043417 -3.32821,3.3282085 -9.21062,3.5604091 z m 13.85463,-39.9384991 q 9.59763,3.096007 16.87324,6.888617 2.39941,1.470604 3.48301,-0.774002 0.92881,-2.167205 -1.3932,-3.328208 -8.90102,-4.257011 -17.33764,-7.043418 -2.16721,-0.774002 -3.01861,1.315803 -0.6966,2.167206 1.3932,2.941208 z"
         style="font-style:normal;font-variant:normal;font-weight:normal;font-stretch:normal;font-size:79.2578px;font-family:'Arphic PRound-Gothic Medium JIS';-inkscape-font-specification:'Arphic PRound-Gothic Medium JIS';stroke-width:3.49999985;stroke:#0064b4;stroke-opacity:1;stroke-miterlimit:4;stroke-dasharray:none;stroke-linejoin:round;stroke-linecap:round;fill:#0064b4;fill-opacity:1"
         id="path1014" />
    </g>
  </g>
</svg>
