<?xml version="1.0" encoding="UTF-8" standalone="no"?>
<svg
	xmlns="http://www.w3.org/2000/svg"
	xmlns:cc="http://creativecommons.org/ns#"
	xmlns:dc="http://purl.org/dc/elements/1.1/"
	xmlns:rdf="http://www.w3.org/1999/02/22-rdf-syntax-ns#"
	xmlns:svg="http://www.w3.org/2000/svg"
	width="512"
	height="512"
	viewBox="-14 -14 28 28"
	version="1.1"
	>
	<title>shapez_level19</title>
	<metadata>
		<rdf:RDF>
			<cc:Work rdf:about="">
				<cc:license rdf:resource="https://www.gnu.org/licenses/gpl-3.0" />
				<dc:title>shapez_level19</dc:title>
				<dc:creator>
					<cc:Agent><dc:title>zawa-ch.</dc:title></cc:Agent>
				</dc:creator>
				<dc:source>https://shapez.io/</dc:source>
			</cc:Work>
		</rdf:RDF>
	</metadata>
	<defs>
		<rect id="shape-rect1" x="0" y="-9" width="9" height="9" />
		<rect id="shape-rect2" x="0" y="-6.8" width="6.8" height="6.8" />
		<rect id="shape-rect3" x="0" y="-4.6" width="4.6" height="4.6" />
		<rect id="shape-rect4" x="0" y="-2.4" width="2.4" height="2.4" />
		<path id="shape-star1" d="M 0,-5.4 L 9,-9 5.4,0 H 0 Z" />
		<path id="shape-star2" d="M 0,-4.08 L 6.8,-6.8 4.08,0 H 0 Z" />
		<path id="shape-star3" d="M 0,-2.76 L 4.6,-4.6 2.76,0 H 0 Z" />
		<path id="shape-star4" d="M 0,-1.44 L 2.4,-2.4 1.44,0 H 0 Z" />
		<path id="shape-windmill1" d="M 0,-5.4 L 9,-9 V 0 H 0 Z" />
		<path id="shape-windmill2" d="M 0,-4.08 L 6.8,-6.8 V 0 H 0 Z" />
		<path id="shape-windmill3" d="M 0,-2.76 L 4.6,-4.6 V 0 H 0 Z" />
		<path id="shape-windmill4" d="M 0,-1.44 L 2.4,-2.4 V 0 H 0 Z" />
		<path id="shape-circle1" d="M 0,-9 A 9,9 0 0 1 9,0 H 0 Z" />
		<path id="shape-circle2" d="M 0,-6.8 A 6.8,6.8 0 0 1 6.8,0 H 0 Z" />
		<path id="shape-circle3" d="M 0,-4.6 A 4.6,4.6 0 0 1 4.6,0 H 0 Z" />
		<path id="shape-circle4" d="M 0,-2.4 A 2.4,2.4 0 0 1 2.4,0 H 0 Z" />
	</defs>
	<style>
		.bg { fill: rgb(40, 50, 65); fill-opacity: 0.1; stroke: none; }
		.shape { stroke: #555; stroke-width: 1; }
		.red { fill: #ff666a; }
		.green { fill: #78ff66; }
		.blue { fill: #66a7ff; }
		.yellow { fill: #fcf52a; }
		.purple { fill: #dd66ff; }
		.cyan { fill: #87fff5; }
		.white { fill: #ffffff; }
		.uncolored { fill: #aaaaaa; }
	</style>
	<g>
		<circle class="bg" cx="0" cy="0" r="11.5" />
	</g>
	<g>
		<g>
			<use href="#shape-circle1" class="shape purple" transform="rotate(0)" />
			<use href="#shape-rect1" class="shape purple" transform="rotate(90)" />
			<use href="#shape-circle1" class="shape purple" transform="rotate(180)" />
		</g>
		<g>
			<use href="#shape-star2" class="shape white" transform="rotate(0)" />
			<use href="#shape-star2" class="shape white" transform="rotate(90)" />
			<use href="#shape-star2" class="shape white" transform="rotate(180)" />
			<use href="#shape-star2" class="shape white" transform="rotate(270)" />
		</g>
	</g>
</svg>
